<?xml version="1.0" standalone="no"?>
<!DOCTYPE svg PUBLIC "-//W3C//DTD SVG 1.1//EN" "http://www.w3.org/Graphics/SVG/1.1/DTD/svg11.dtd" >
<svg xmlns="http://www.w3.org/2000/svg" xmlns:xlink="http://www.w3.org/1999/xlink" version="1.1">
<metadata>
Created by FontForge 20170731 at Mon Jul 24 16:10:42 2017
 By Aleksey,,,
Copyright 2017 The Exo Project Authors (https://github.com/NDISCOVER/Exo-1.0)
</metadata>
<defs>
<font id="Exo-ThinItalic" horiz-adv-x="560" >
  <font-face 
    font-family="Exo Thin"
    font-weight="250"
    font-style="italic"
    font-stretch="normal"
    units-per-em="1000"
    panose-1="0 0 3 0 0 0 0 0 0 0"
    ascent="800"
    descent="-200"
    x-height="531"
    cap-height="732"
    bbox="-470 -270 1368 1104"
    underline-thickness="50"
    underline-position="-150"
    slope="-9"
    unicode-range="U+000D-FB04"
  />
<missing-glyph horiz-adv-x="651" 
d="M90 531h531v-531h-531v531zM597 24v483h-483v-483h483zM189 115l150 150l-150 150l17 17l150 -150l150 150l17 -17l-150 -150l150 -150l-17 -17l-150 150l-150 -150z" />
    <glyph glyph-name="fi" unicode="fi" horiz-adv-x="544" 
d="M464 0h-24l80 507h-296l-80 -507h-24l80 507h-87l3 16l88 8l14 85q1 6 8 51t40.5 73.5t91.5 28.5t115 -5l-2 -16h-116q-40 0 -62.5 -16t-32.5 -43t-18 -73l-14 -85h320zM582 714l-10 -62q-1 -12 -13 -12h-11q-5 0 -8 3.5t-2 8.5l10 62q2 12 14 12h11q11 0 9 -12z" />
    <glyph glyph-name="fl" unicode="fl" horiz-adv-x="685" 
d="M613 16l-3 -16h-55q-47 0 -71.5 24.5t-24.5 71.5q0 29 9 83l91 569h-164q-55 0 -86 -16t-45.5 -44t-21.5 -72l-14 -85h188l-4 -24h-188l-80 -507h-24l80 507h-87l3 16l88 8l14 85q8 48 24.5 81t54 52.5t101.5 19.5q84 0 187 -6l-93 -584q-1 -7 -5 -32t-4 -50
q0 -37 17 -54.5t50 -20.5z" />
    <glyph glyph-name="f_f" unicode="ff" horiz-adv-x="728" 
d="M652.5 732q-22.5 -16 -32.5 -43t-18 -73l-14 -85h188l-4 -24h-188l-80 -507h-24l80 507h-336l-80 -507h-24l80 507h-87l3 16l88 8l14 85q1 6 8 51t40.5 73.5t91.5 28.5t115 -5l-2 -16h-116q-40 0 -62.5 -16t-32.5 -43t-18 -73l-14 -85h336l14 85q1 6 8 51t40.5 73.5
t91.5 28.5t115 -5l-2 -16h-116q-40 0 -62.5 -16z" />
    <glyph glyph-name="f_f_i" unicode="ffi" horiz-adv-x="904" 
d="M824 0h-24l80 507h-296l-80 -507h-24l80 507h-336l-80 -507h-24l80 507h-87l3 16l88 8l14 85q1 6 8 51t40.5 73.5t91.5 28.5t115 -5l-2 -16h-116q-40 0 -62.5 -16t-32.5 -43t-18 -73l-14 -85h336l14 85q1 6 8 51t40.5 73.5t91.5 28.5t115 -5l-2 -16h-116q-40 0 -62.5 -16
t-32.5 -43t-18 -73l-14 -85h320zM942 714l-10 -62q-1 -12 -13 -12h-11q-5 0 -8 3.5t-2 8.5l10 62q2 12 14 12h11q11 0 9 -12z" />
    <glyph glyph-name="f_f_l" unicode="ffl" horiz-adv-x="989" 
d="M973 16l-3 -16h-55q-47 0 -71.5 24.5t-24.5 71.5q0 29 9 83l91 569h-164q-55 0 -86 -16t-45.5 -44t-21.5 -72l-14 -85h188l-4 -24h-188l-80 -507h-24l80 507h-336l-80 -507h-24l80 507h-87l3 16l88 8l14 85q1 6 8 51t40.5 73.5t91.5 28.5t115 -5l-2 -16h-116
q-40 0 -62.5 -16t-32.5 -43t-18 -73l-14 -85h336l14 85q8 48 24.5 81t54 52.5t101.5 19.5q83 0 187 -6l-93 -584q-1 -7 -5 -32t-4 -50q0 -37 17 -54.5t50 -20.5z" />
    <glyph glyph-name=".notdef" horiz-adv-x="651" 
d="M90 531h531v-531h-531v531zM597 24v483h-483v-483h483zM189 115l150 150l-150 150l17 17l150 -150l150 150l17 -17l-150 -150l150 -150l-17 -17l-150 150l-150 -150z" />
    <glyph glyph-name=".null" horiz-adv-x="0" 
 />
    <glyph glyph-name="nonmarkingreturn" unicode="&#xd;" horiz-adv-x="234" 
 />
    <glyph glyph-name="NULL" horiz-adv-x="0" 
 />
    <glyph glyph-name="NULL" horiz-adv-x="0" 
 />
    <glyph glyph-name="space" unicode=" " horiz-adv-x="234" 
 />
    <glyph glyph-name="exclam" unicode="!" horiz-adv-x="260" 
d="M232 731h24l-89 -535h-16zM111 10v2l10 62q2 12 14 12h11q10 0 10 -9v-3l-10 -62q-1 -12 -14 -12h-11q-10 0 -10 10z" />
    <glyph glyph-name="quotedbl" unicode="&#x22;" horiz-adv-x="193" 
d="M151 673l10 67h25l-10 -67l-31 -158h-12zM231 673l10 67h25l-10 -67l-31 -158h-12z" />
    <glyph glyph-name="numbersign" unicode="#" horiz-adv-x="654" 
d="M244 249h-177l4 12h178l65 206h-179l5 12h178l81 253h12l-81 -253h186l80 253h12l-80 -253h178l-4 -12h-179l-65 -206h178l-4 -12h-178l-78 -249h-12l78 249h-186l-78 -249h-12zM446 261l65 206h-185l-65 -206h185z" />
    <glyph glyph-name="dollar" unicode="$" horiz-adv-x="609" 
d="M181 502q-3 -19 -3 -36q0 -48 26.5 -66.5t85.5 -18.5h114q72 0 106.5 -28.5t34.5 -87.5q0 -18 -3 -41l-10 -66q-15 -93 -74 -128t-154 -36l-13 -82h-18l13 82q-52 0 -111 3t-96 9l2 16q80 -6 221 -6q90 0 141.5 29.5t64.5 112.5l10 66q3 20 3 37q0 50 -29 73t-92 23h-112
q-68 0 -101 25t-33 82q0 17 3 38l10 66q15 99 67.5 134.5t145.5 35.5q14 0 24 -1l13 87h18l-13 -87q44 -3 93 -7t74 -8l-2 -16q-126 8 -205 8q-59 0 -97 -12t-61.5 -43.5t-32.5 -90.5z" />
    <glyph glyph-name="percent" unicode="%" horiz-adv-x="954" 
d="M154.5 369.5q-25.5 20.5 -25.5 64.5q0 19 3 40l21 133q11 66 43.5 95.5t105.5 29.5h101q60 0 85.5 -20.5t25.5 -64.5q0 -12 -4 -40l-21 -133q-10 -66 -43 -95.5t-106 -29.5h-101q-59 0 -84.5 20.5zM796 732h21l-554 -732h-21zM343 365q61 0 90.5 22.5t39.5 86.5l21 133
q3 21 3 37q0 39 -22 55.5t-75 16.5h-101q-42 0 -67.5 -9t-40.5 -32.5t-22 -67.5l-21 -133q-3 -19 -3 -36q0 -41 23 -57t74 -16h101zM583.5 23.5q-25.5 20.5 -25.5 64.5q0 19 3 40l21 133q10 66 43 95.5t106 29.5h101q60 0 85.5 -20.5t25.5 -64.5q0 -21 -4 -40l-21 -133
q-10 -66 -43 -95.5t-106 -29.5h-101q-59 0 -84.5 20.5zM772 19q61 0 90.5 22.5t39.5 86.5l21 133q4 28 4 37q0 39 -22 55.5t-75 16.5h-101q-62 0 -91.5 -22.5t-39.5 -86.5l-21 -133q-3 -19 -3 -36q0 -41 23 -57t74 -16h101z" />
    <glyph glyph-name="ampersand" unicode="&#x26;" horiz-adv-x="653" 
d="M104 36.5q-43 42.5 -43 115.5q0 82 34 137.5t118 105.5l70 42l-18 32q-36 62 -36 126q0 68 48 102.5t133 34.5q45 0 75 -2t56 -4l-3 -16h-130q-74 0 -114.5 -25.5t-40.5 -87.5q0 -58 33 -116l194 -337l180 151l8 -9l-83 -85l-92 -76l74 -125h-29l-64 111l-35 -28
q-62 -49 -114 -69t-107 -20q-71 0 -114 42.5zM317.5 34.5q45.5 16.5 100.5 60.5l43 35l-168 288l-62 -35q-58 -32 -89 -65.5t-43.5 -72t-12.5 -91.5q0 -63 36 -99.5t101 -36.5q49 0 94.5 16.5z" />
    <glyph glyph-name="quotesingle" unicode="'" horiz-adv-x="113" 
d="M151 673l10 67h25l-10 -67l-31 -158h-12z" />
    <glyph glyph-name="parenleft" unicode="(" horiz-adv-x="315" 
d="M141 184q0 177 64 355.5t191 320.5h27q-126 -141 -191.5 -317.5t-65.5 -350.5q0 -227 89 -402h-28q-86 165 -86 394z" />
    <glyph glyph-name="parenright" unicode=")" horiz-adv-x="314" 
d="M252 469q0 105 -20.5 199t-68.5 192h27q48 -96 67.5 -188.5t19.5 -197.5q0 -371 -256 -684h-27q258 316 258 679z" />
    <glyph glyph-name="asterisk" unicode="*" horiz-adv-x="483" 
d="M298 723l14 4l47 -123l-25 -11zM348 552l125 83l7 -12l-117 -90zM141 606l143 4l-3 -24l-142 6zM191 409l54 134l25 -4l-67 -134zM295 495l16 23l105 -83l-10 -11z" />
    <glyph glyph-name="plus" unicode="+" horiz-adv-x="609" 
d="M583 344h-212l-33 -212h-24l33 212h-212l4 24h212l33 212h24l-33 -212h212z" />
    <glyph glyph-name="comma" unicode="," horiz-adv-x="172" 
d="M62.5 -68.5q-1.5 0.5 -2.5 0.5l1 6q9 0 13 3.5t6 11.5l7 47h-6q-10 0 -10 10v3l10 60q1 13 14 13h10q10 0 10 -9v-4l-18 -110q-5 -32 -30 -32q-3 0 -4.5 0.5z" />
    <glyph glyph-name="hyphen" unicode="-" horiz-adv-x="331" 
d="M72 302h284l-4 -24h-284z" />
    <glyph glyph-name="period" unicode="." horiz-adv-x="172" 
d="M71 10v2l10 62q2 12 14 12h11q10 0 10 -9v-3l-10 -62q-1 -12 -14 -12h-11q-10 0 -10 10z" />
    <glyph glyph-name="slash" unicode="/" horiz-adv-x="354" 
d="M430 770h19l-414 -842h-19z" />
    <glyph glyph-name="zero" unicode="0" horiz-adv-x="662" 
d="M158.5 30.5q-41.5 30.5 -41.5 95.5q0 17 3 36l65 414q12 78 67.5 120t130.5 42h134q75 0 110 -33.5t35 -91.5q0 -17 -3 -37l-65 -414q-26 -162 -194 -162h-134q-66 0 -107.5 30.5zM403 22q144 0 167 140l65 414q3 18 3 33q0 52 -31.5 79.5t-93.5 27.5h-134
q-67 0 -113.5 -37.5t-56.5 -102.5l-65 -414q-3 -16 -3 -30q0 -53 34 -81.5t94 -28.5h134z" />
    <glyph glyph-name="one" unicode="1" horiz-adv-x="354" 
d="M334 705l-178 -61l3 16l179 72h24l-116 -732h-24z" />
    <glyph glyph-name="two" unicode="2" horiz-adv-x="598" 
d="M64 22l316 273q199 173 199 303q0 56 -40 87t-139 31h-193l3 16l48 2q98 4 154 4q191 0 191 -140q0 -64 -51.5 -144t-157.5 -173l-293 -257h444l-4 -24h-480z" />
    <glyph glyph-name="three" unicode="3" horiz-adv-x="590" 
d="M48 0l3 16h252q171 0 198 145q13 68 13 86q0 55 -40.5 81t-95.5 28l-193 7l3 14l195 6q65 2 107.5 31t52.5 90q13 79 13 97q0 55 -39 85t-112 30h-212l3 16q74 6 219 6q84 0 124.5 -36t40.5 -97q0 -21 -13 -101q-8 -47 -33.5 -77t-55 -43t-49.5 -14q20 -3 45.5 -16
t44.5 -39.5t19 -65.5q0 -10 -13 -88q-13 -82 -71 -124.5t-153 -42.5q-166 0 -253 6z" />
    <glyph glyph-name="four" unicode="4" horiz-adv-x="575" 
d="M438 212h-365l-7 23l386 497h25l-386 -498h350l38 238l16 55h16l-46 -293h120l-2 -16l-121 -6l-34 -210h-24z" />
    <glyph glyph-name="five" unicode="5" horiz-adv-x="649" 
d="M133 2l3 16h222q81 0 142.5 39t72.5 111l16 105q3 18 3 34q0 53 -35 82.5t-104 29.5h-95q-117 0 -153 -107h-22l87 420h395l-4 -22h-373l-69 -335q14 27 52.5 46.5t92.5 19.5h93q76 0 117.5 -36t41.5 -96q0 -10 -2 -34l-18 -109q-12 -80 -80 -125t-160 -45q-157 0 -223 6
z" />
    <glyph glyph-name="six" unicode="6" horiz-adv-x="636" 
d="M169 44.5q-37 45.5 -37 159.5q0 140 33.5 261.5t105 197t179.5 75.5q43 0 135 -4l43 -2l-3 -16h-188q-59 0 -113 -37t-94 -111.5t-57 -182.5q108 6 233 6q93 0 142.5 -24t49.5 -88q0 -13 -3 -30l-16 -101q-12 -78 -63 -113.5t-121 -35.5h-119q-70 0 -107 45.5zM398 21
q63 0 105 27t53 98l16 103q3 15 3 27q0 55 -42.5 74t-129.5 19h-233q-15 -102 -15 -168q0 -100 31.5 -140t92.5 -40h119z" />
    <glyph glyph-name="seven" unicode="7" horiz-adv-x="535" 
d="M578 708h-416l4 24h428l12 -23l-400 -709h-28z" />
    <glyph glyph-name="eight" unicode="8" horiz-adv-x="655" 
d="M157.5 27.5q-37.5 27.5 -37.5 80.5q0 8 2 26l17 109q9 55 47.5 86.5t76.5 39.5q-36 16 -53.5 43.5t-17.5 62.5q0 8 2 24l13 85q13 78 60 115.5t117 37.5h136q59 0 88 -26t29 -82q0 -22 -4 -45l-13 -85q-6 -41 -34 -75t-67 -47q37 -7 57.5 -34t20.5 -66q0 -7 -2 -25
l-19 -118q-10 -65 -55 -99.5t-119 -34.5h-135q-72 0 -109.5 27.5zM456 384q41 0 71 17t47 42.5t21 50.5l14 88q4 21 4 43q0 47 -23.5 68.5t-73.5 21.5h-136q-68 0 -103 -32t-46 -101l-14 -88q-1 -6 -1 -18q0 -40 28 -66t83 -26h129zM405 22q129 0 147 109l18 115q3 20 3 34
q0 45 -28 63.5t-93 18.5h-129q-28 0 -62.5 -11.5t-62.5 -37.5t-34 -67l-18 -115q-2 -14 -2 -20q0 -46 34.5 -67.5t91.5 -21.5h135z" />
    <glyph glyph-name="nine" unicode="9" horiz-adv-x="636" 
d="M583 689.5q37 -45.5 37 -159.5q0 -140 -33.5 -261.5t-105 -197t-179.5 -75.5q-43 0 -135 4l-43 2l3 16h188q59 0 113 37t94 111.5t57 182.5q-108 -6 -233 -6q-93 0 -142.5 24t-49.5 88q0 14 3 30l16 101q12 78 63 113.5t121 35.5h119q70 0 107 -45.5zM354 713
q-63 0 -105 -27t-53 -98l-16 -103q-3 -15 -3 -27q0 -55 42.5 -74t129.5 -19h233q15 102 15 168q0 100 -31.5 140t-92.5 40h-119z" />
    <glyph glyph-name="colon" unicode=":" horiz-adv-x="172" 
d="M71 10v2l10 62q2 12 14 12h11q10 0 10 -9v-3l-10 -62q-1 -12 -14 -12h-11q-10 0 -10 10zM142 455v2l10 62q2 12 14 12h11q10 0 10 -9v-3l-10 -62q-1 -12 -14 -12h-11q-10 0 -10 10z" />
    <glyph glyph-name="semicolon" unicode=";" horiz-adv-x="172" 
d="M142 455v2l10 62q2 12 14 12h11q10 0 10 -9v-3l-10 -62q-1 -12 -14 -12h-11q-10 0 -10 10zM62.5 -68.5q-1.5 0.5 -2.5 0.5l1 6q9 0 13 3.5t6 11.5l7 47h-6q-10 0 -10 10v3l10 60q1 13 14 13h10q10 0 10 -9v-4l-18 -110q-5 -32 -30 -32q-3 0 -4.5 0.5z" />
    <glyph glyph-name="less" unicode="&#x3c;" horiz-adv-x="609" 
d="M134 336l4 24l436 136l-3 -20l-415 -129l375 -127l-3 -20z" />
    <glyph glyph-name="equal" unicode="=" horiz-adv-x="609" 
d="M120 248h448l-4 -24h-448zM158 488h448l-4 -24h-448z" />
    <glyph glyph-name="greater" unicode="&#x3e;" horiz-adv-x="609" 
d="M149 220l415 129l-375 127l3 20l394 -136l-4 -24l-436 -136z" />
    <glyph glyph-name="question" unicode="?" horiz-adv-x="532" 
d="M238 321h35q72 0 115 13t66.5 44t32.5 85l13 81q5 28 5 58q0 62 -31.5 88.5t-101.5 26.5q-56 0 -106.5 -9.5t-111.5 -32.5l2 14q60 28 115 39t111 11q80 0 114 -33t34 -98q0 -29 -6 -64l-13 -81q-14 -86 -73.5 -126t-181.5 -40l-16 -102h-22zM186 10v2l10 62q2 12 14 12
h11q10 0 10 -9v-3l-10 -62q-1 -12 -14 -12h-11q-10 0 -10 10z" />
    <glyph glyph-name="at" unicode="@" horiz-adv-x="901" 
d="M102 -136.5q-41 42.5 -41 110.5q0 17 3 35l82 512q13 79 61 128.5t143 49.5h395q71 0 107 -35t36 -100q0 -20 -3 -43l-53 -354q-4 -27 -22 -65.5t-58.5 -70t-104.5 -31.5h-29l2 63q-25 -28 -94.5 -48.5t-121.5 -20.5q-161 0 -161 182q0 113 35 196.5t94.5 128t131.5 44.5
q62 0 114.5 -15.5t85.5 -47.5l-67 -460q56 0 107 29t64 116l53 354q4 32 4 43q0 61 -31.5 86t-89.5 25h-394q-84 0 -126.5 -42.5t-53.5 -111.5l-82 -512q-3 -18 -3 -35q0 -61 36.5 -95t95.5 -34h384l-2 -14q-71 -10 -290 -10h-98q-68 0 -109 42.5zM517.5 29.5
q53.5 11.5 103.5 49.5l59 400q-47 25 -86.5 34.5t-87.5 9.5q-65 0 -119.5 -41.5t-87 -119.5t-32.5 -183q0 -161 135 -161q62 0 115.5 11.5z" />
    <glyph glyph-name="A" unicode="A" horiz-adv-x="660" 
d="M435 732h34l146 -732h-25l-51 254h-333l-136 -254h-25zM535 276l-87 430l-230 -430h317z" />
    <glyph glyph-name="B" unicode="B" horiz-adv-x="597" 
d="M196 732h233q84 0 125 -35t41 -100q0 -26 -4 -49q-11 -69 -48 -110.5t-88 -53.5q38 -11 72 -49.5t34 -101.5q0 -28 -6 -54q-37 -179 -222 -179h-253zM396 394q69 0 112 38.5t58 112.5q6 29 6 51q0 114 -147 114h-209l-50 -316h230zM337 22q88 0 132.5 42t62.5 121
q5 23 5 48q0 63 -39.5 101t-102.5 38h-232l-56 -350h230z" />
    <glyph glyph-name="C" unicode="C" horiz-adv-x="589" 
d="M158.5 47.5q-44.5 53.5 -44.5 162.5q0 70 16 166q28 180 96 271t192 91q62 0 109 -5.5t105 -16.5l-4 -16q-109 16 -212 16q-76 0 -126.5 -38t-82.5 -114t-53 -198q-15 -88 -15 -155q0 -104 39 -149.5t129 -45.5q75 0 122.5 3.5t91.5 10.5l-3 -16q-98 -20 -216 -20
q-99 0 -143.5 53.5z" />
    <glyph glyph-name="D" unicode="D" horiz-adv-x="663" 
d="M196 732h252q116 0 164.5 -62t48.5 -192q0 -47 -12 -123q-25 -159 -100 -257t-210 -98h-259zM338 22q126 0 195 95t93 247q11 68 11 117q0 78 -17 127.5t-59.5 75.5t-117.5 26h-227l-109 -688h231z" />
    <glyph glyph-name="E" unicode="E" horiz-adv-x="565" 
d="M97 94q0 15 3 34l76 479q11 68 51 97t95 28l297 -6l-3 -16h-297q-49 0 -80 -25t-40 -83l-36 -227l359 -6l-3 -16l-360 -2l-35 -228q-3 -16 -3 -30q0 -45 25.5 -61t73.5 -16h288l-3 -16l-289 -6q-119 -2 -119 100z" />
    <glyph glyph-name="F" unicode="F" horiz-adv-x="544" 
d="M175 598q12 78 50 106.5t96 27.5l298 -6l-3 -16h-300q-51 0 -79 -25t-38 -83l-36 -227l359 -6l-3 -16l-359 -2l-56 -351h-24z" />
    <glyph glyph-name="G" unicode="G" horiz-adv-x="636" 
d="M159 47q-44 53 -44 170q0 60 15 160q27 175 95.5 269t201.5 94q68 0 120.5 -8t103.5 -22l-2 -16q-113 24 -226 24q-119 0 -180.5 -88t-88.5 -262q-15 -93 -15 -159q0 -102 39.5 -147.5t129.5 -45.5q51 0 124.5 18t110.5 35l44 278h-214l2 16q24 4 69.5 5t101.5 1
q32 0 68 -3l-58 -366h-16l2 53q-37 -17 -109.5 -38t-128.5 -21q-101 0 -145 53z" />
    <glyph glyph-name="H" unicode="H" horiz-adv-x="646" 
d="M196 732h24l-58 -367h438l58 367h24l-116 -732h-24l54 343h-438l-54 -343h-24z" />
    <glyph glyph-name="I" unicode="I" horiz-adv-x="184" 
d="M196 732h24l-116 -732h-24z" />
    <glyph glyph-name="J" unicode="J" horiz-adv-x="319" 
d="M31 19l3 16q42 -18 97 -18q116 0 140 148l90 567h24l-90 -567q-14 -88 -54.5 -129.5t-110.5 -41.5q-61 0 -99 25z" />
    <glyph glyph-name="K" unicode="K" horiz-adv-x="561" 
d="M196 732h24l-56 -354h155l284 354h28l-292 -365l187 -367h-27l-181 356h-158l-56 -356h-24z" />
    <glyph glyph-name="L" unicode="L" horiz-adv-x="517" 
d="M126 19.5q-29 19.5 -29 71.5q0 17 3 35l96 606h24l-96 -606q-3 -18 -3 -35q0 -40 23.5 -54.5t64.5 -14.5h286l-3 -22h-281q-56 0 -85 19.5z" />
    <glyph glyph-name="M" unicode="M" horiz-adv-x="770" 
d="M268 732h22l117 -682l335 682h22l-32 -732h-24l32 682l-328 -682h-22l-113 682l-181 -682h-25z" />
    <glyph glyph-name="N" unicode="N" horiz-adv-x="649" 
d="M196 732h22l333 -691l110 691h24l-116 -732h-22l-333 692l-110 -692h-24z" />
    <glyph glyph-name="O" unicode="O" horiz-adv-x="678" 
d="M211 10.5q-48 16.5 -73.5 61t-25.5 127.5q0 70 16 169q24 150 64.5 230t103 110t161.5 30q74 0 122.5 -19t74.5 -65.5t26 -129.5q0 -71 -16 -170q-23 -148 -65 -226t-104 -106t-159 -28q-77 0 -125 16.5zM489 41.5q55 25.5 91 99.5t60 220q15 90 15 164q0 78 -23.5 119.5
t-67 56.5t-112.5 15q-90 0 -146 -27.5t-93.5 -104t-60.5 -223.5q-16 -106 -16 -162q0 -75 22 -114.5t65.5 -54t118.5 -14.5q92 0 147 25.5z" />
    <glyph glyph-name="P" unicode="P" horiz-adv-x="592" 
d="M196 732h266q149 0 149 -145q0 -25 -6 -65q-34 -219 -222 -219q-84 0 -230 6l-49 -309h-24zM385 325q75 0 126.5 43.5t69.5 153.5q6 40 6 64q0 65 -33 94.5t-96 29.5h-242l-61 -385h230z" />
    <glyph glyph-name="Q" unicode="Q" horiz-adv-x="678" 
d="M211 10.5q-48 16.5 -73.5 61t-25.5 127.5q0 70 16 169q24 150 64.5 230t103 110t161.5 30q74 0 122.5 -19t74.5 -65.5t26 -129.5q0 -71 -16 -170q-23 -148 -65 -226t-104 -106t-159 -28q-77 0 -125 16.5zM489 41.5q55 25.5 91 99.5t60 220q15 90 15 164q0 78 -23.5 119.5
t-67 56.5t-112.5 15q-90 0 -146 -27.5t-93.5 -104t-60.5 -223.5q-16 -106 -16 -162q0 -75 22 -114.5t65.5 -54t118.5 -14.5q92 0 147 25.5zM390.5 -122q-34.5 29 -38.5 89h16q10 -51 38.5 -73.5t76.5 -22.5q35 0 65 11l-3 -22q-31 -11 -63 -11q-57 0 -91.5 29z" />
    <glyph glyph-name="R" unicode="R" horiz-adv-x="604" 
d="M196 732h256q64 0 111.5 -34t47.5 -123q0 -22 -5 -57q-18 -110 -67.5 -149t-113.5 -43l109 -326h-24l-109 325q-17 0 -28 1q-181 3 -217 5l-52 -331h-24zM401 347q69 0 116.5 35.5t63.5 139.5q4 25 4 51q0 79 -39 108t-98 29h-232l-57 -363h242z" />
    <glyph glyph-name="S" unicode="S" horiz-adv-x="565" 
d="M181 -3q-63 3 -102 9l2 16q80 -6 221 -6q90 0 141.5 29.5t64.5 112.5l10 66q3 20 3 37q0 50 -29 73t-92 23h-112q-68 0 -101 25t-33 82q0 17 3 38l10 66q15 99 67.5 134.5t145.5 35.5q33 0 104.5 -5.5t104.5 -10.5l-2 -16q-126 8 -205 8q-59 0 -97 -12t-61.5 -43.5
t-32.5 -90.5l-10 -66q-3 -19 -3 -36q0 -48 26.5 -66.5t85.5 -18.5h114q72 0 106.5 -28.5t34.5 -87.5q0 -18 -3 -41l-10 -66q-14 -95 -75 -129.5t-160 -34.5q-53 0 -116 3z" />
    <glyph glyph-name="T" unicode="T" horiz-adv-x="602" 
d="M396 710h-254l4 22h532l-4 -22h-254l-112 -710h-24z" />
    <glyph glyph-name="U" unicode="U" horiz-adv-x="667" 
d="M172 38q-53 44 -53 148q0 62 12 134l65 412h24l-65 -412q-13 -80 -13 -135q0 -93 46.5 -131t142.5 -38q83 0 135.5 21.5t90 87.5t57.5 195l65 412h24l-65 -412q-22 -136 -63 -207t-98.5 -95t-143.5 -24q-108 0 -161 44z" />
    <glyph glyph-name="V" unicode="V" horiz-adv-x="660" 
d="M161 732h25l142 -706l378 706h25l-390 -732h-34z" />
    <glyph glyph-name="W" unicode="W" horiz-adv-x="980" 
d="M161 732h25l111 -707l291 707h34l56 -706l347 706h26l-360 -732h-34l-56 702l-290 -702h-34z" />
    <glyph glyph-name="X" unicode="X" horiz-adv-x="586" 
d="M364 360l172 -360h-28l-162 342l-267 -342h-31l285 369l-172 363h28l163 -347l274 347h31z" />
    <glyph glyph-name="Y" unicode="Y" horiz-adv-x="590" 
d="M314 260l-168 472h27l156 -440l318 440h29l-338 -472l-41 -260h-24z" />
    <glyph glyph-name="Z" unicode="Z" horiz-adv-x="553" 
d="M48 22l534 688h-425l4 22h453l-4 -22l-534 -688h435l-3 -22h-463z" />
    <glyph glyph-name="bracketleft" unicode="[" horiz-adv-x="327" 
d="M130 -174.5q-25 35.5 -25 88.5q0 20 4 48l112 708q11 67 47 119.5t116 52.5h50l-3 -22h-50q-52 0 -88 -37t-48 -113l-112 -708q-4 -30 -4 -44q0 -49 22 -77.5t70 -28.5h50l-3 -22h-50q-63 0 -88 35.5z" />
    <glyph glyph-name="backslash" unicode="\" horiz-adv-x="354" 
d="M149 770h19l148 -842h-19z" />
    <glyph glyph-name="bracketright" unicode="]" horiz-adv-x="327" 
d="M-3 -188h50q58 0 91.5 41.5t44.5 108.5l112 708q4 23 4 46q0 53 -24 78.5t-68 25.5h-50l3 22h50q63 0 88 -35.5t25 -88.5q0 -20 -4 -48l-112 -708q-11 -67 -47 -119.5t-116 -52.5h-50z" />
    <glyph glyph-name="asciicircum" unicode="^" horiz-adv-x="407" 
d="M305 661h20l99 -130h-18l-94 115l-142 -115h-18z" />
    <glyph glyph-name="underscore" unicode="_" horiz-adv-x="609" 
d="M-19 -117h609l-3 -24h-609z" />
    <glyph glyph-name="grave" unicode="`" horiz-adv-x="201" 
d="M148 764h26l100 -133h-14z" />
    <glyph glyph-name="a" unicode="a" horiz-adv-x="559" 
d="M138 38q-46 44 -46 133q0 37 10 97q22 142 83 205.5t184 63.5q51 0 103 -13.5t83 -42.5l-76 -481h-16l2 59q-30 -20 -92.5 -42.5t-113.5 -22.5q-75 0 -121 44zM357 30.5q45 14.5 110 44.5l63 401q-24 15 -67 27t-96 12q-80 0 -127.5 -26t-73.5 -81t-41 -150
q-9 -57 -9 -86q0 -79 38 -117.5t104 -38.5q54 0 99 14.5z" />
    <glyph glyph-name="b" unicode="b" horiz-adv-x="561" 
d="M202.5 13q-52.5 19 -89.5 44l-17 -57h-16l121 763h24l-46 -291q51 30 110.5 47.5t103.5 17.5q71 0 114.5 -44t43.5 -128q0 -43 -10 -111q-19 -119 -80.5 -189.5t-158.5 -70.5q-47 0 -99.5 19zM446 78.5q52 62.5 71 182.5q10 65 10 102q0 78 -37.5 115t-99.5 37
q-87 0 -214 -59l-60 -383q48 -27 91 -42t96 -15q91 0 143 62.5z" />
    <glyph glyph-name="c" unicode="c" horiz-adv-x="485" 
d="M139.5 34q-46.5 40 -46.5 146q0 33 10 93q22 138 83.5 201t162.5 63q69 0 167 -6l-4 -16h-165q-88 0 -143.5 -55t-77.5 -198q-9 -58 -9 -82q0 -65 18 -101t53 -49.5t91 -13.5h168l-2 -16q-82 -6 -170 -6q-89 0 -135.5 40z" />
    <glyph glyph-name="d" unicode="d" 
d="M138 38q-45 44 -45 127q0 55 10 106q17 90 43.5 146.5t79.5 88t142 31.5q49 0 89 -9t78 -30l42 265h24l-121 -763h-16l2 59q-47 -27 -102 -46t-111 -19q-70 0 -115 44zM357.5 31.5q51.5 15.5 110.5 43.5l63 401q-37 20 -76 29.5t-89 9.5q-81 0 -128 -27t-71 -80t-40 -145
q-10 -58 -10 -92q0 -79 37.5 -117t97.5 -38q54 0 105.5 15.5z" />
    <glyph glyph-name="e" unicode="e" horiz-adv-x="548" 
d="M148 37.5q-53 43.5 -53 133.5q0 52 11 120q17 121 80 185.5t184 64.5q90 0 135 -32t45 -103q0 -94 -74 -132t-189 -38q-51 0 -95 5.5t-68 12.5q-5 -34 -5 -81q0 -83 46 -120t152 -37h154l-3 -16q-102 -6 -153 -6q-114 0 -167 43.5zM459 289.5q67 31.5 67 114.5
q0 62 -38.5 88.5t-119.5 26.5q-116 0 -170 -61.5t-72 -187.5q62 -12 143 -12q123 0 190 31.5z" />
    <glyph glyph-name="f" unicode="f" horiz-adv-x="360" 
d="M200 507h-87l3 16l88 8l14 85q1 6 8 51t40.5 73.5t91.5 28.5t115 -5l-2 -16h-116q-40 0 -62.5 -16t-32.5 -43t-18 -73l-14 -85h188l-4 -24h-188l-80 -507h-24z" />
    <glyph glyph-name="g" unicode="g" horiz-adv-x="559" 
d="M63 -232l3 16h156q85 0 147.5 37.5t75.5 112.5l21 125q-54 -33 -111.5 -49t-110.5 -16q-39 0 -73.5 19t-55.5 57.5t-21 93.5q0 46 10 111q14 89 43 146t84 86.5t146 29.5q100 0 186 -13l-94 -592q-11 -66 -53 -104t-95 -52.5t-103 -12.5zM351.5 29.5
q50.5 13.5 116.5 45.5l68 433l-67 3q-76 4 -112 4q-105 0 -157 -58.5t-72 -185.5q-10 -67 -10 -105q0 -74 36 -112t93 -38q54 0 104.5 13.5z" />
    <glyph glyph-name="h" unicode="h" horiz-adv-x="564" 
d="M201 763h24l-47 -294q52 33 111 52t120 19q67 0 102 -33t35 -95q0 -19 -3 -42l-59 -370h-24l57 363q4 23 4 46q0 58 -30 83.5t-89 25.5q-63 0 -112 -15t-114 -50l-72 -453h-24z" />
    <glyph glyph-name="i" unicode="i" horiz-adv-x="184" 
d="M180 643.5q-3 3.5 -2 8.5l10 62q2 12 14 12h11q11 0 9 -12l-10 -62q-1 -12 -13 -12h-11q-5 0 -8 3.5zM164 531h24l-84 -531h-24z" />
    <glyph glyph-name="j" unicode="j" horiz-adv-x="184" 
d="M180 643.5q-3 3.5 -2 8.5l10 62q2 12 14 12h11q11 0 9 -12l-10 -62q-1 -12 -13 -12h-11q-5 0 -8 3.5zM164 531h24l-85 -535q-22 -137 -45 -233h-16z" />
    <glyph glyph-name="k" unicode="k" horiz-adv-x="497" 
d="M201 763h24l-74 -466q113 0 191.5 54t116.5 180h24q-52 -179 -194 -234l168 -297h-28l-164 290q-26 -7 -59 -11t-58 -4l-44 -275h-24z" />
    <glyph glyph-name="l" unicode="l" horiz-adv-x="269" 
d="M123.5 24.5q-24.5 24.5 -24.5 71.5q0 29 9 83l93 584h24l-93 -584q-1 -7 -5 -32t-4 -50q0 -37 17 -54.5t50 -20.5l63 -6l-3 -16h-55q-47 0 -71.5 24.5z" />
    <glyph glyph-name="m" unicode="m" horiz-adv-x="943" 
d="M164 531h16l-2 -62q121 71 228 71q60 0 90.5 -21t44.5 -61q54 37 117.5 59.5t126.5 22.5q141 0 141 -131q0 -19 -4 -39l-59 -370h-24l59 370q4 20 4 39q0 109 -121 109q-65 0 -118 -18.5t-119 -57.5q2 -18 2 -29q0 -28 -5 -54l-57 -359h-24l57 359q5 35 5 51
q0 108 -120 108q-61 0 -109 -15t-117 -50l-72 -453h-24z" />
    <glyph glyph-name="n" unicode="n" horiz-adv-x="564" 
d="M164 531h16l-2 -62q51 32 110.5 51.5t117.5 19.5q75 0 107.5 -35t32.5 -94q0 -20 -9 -79l-53 -332h-24l52 331q10 65 10 78q0 109 -120 109q-63 0 -112 -15t-114 -50l-72 -453h-24z" />
    <glyph glyph-name="o" unicode="o" 
d="M143 34.5q-49 40.5 -49 135.5q0 39 8 95q17 106 48 165t82 83t133 24q97 0 141 -45t44 -136q0 -40 -10 -105q-16 -98 -46 -153.5t-81.5 -79.5t-133.5 -24q-87 0 -136 40.5zM399 35q44 19 72.5 71t44.5 152q9 57 9 98q0 86 -37.5 122.5t-127.5 36.5q-74 0 -118 -21
t-71.5 -76t-44.5 -160q-8 -54 -8 -88q0 -89 42.5 -121.5t123.5 -32.5q71 0 115 19z" />
    <glyph glyph-name="p" unicode="p" 
d="M164 529q74 8 221 8q80 0 123 -43.5t43 -132.5q0 -44 -10 -100q-20 -129 -77 -198t-171 -69q-54 0 -96.5 9t-87.5 30l-43 -270h-24zM446.5 77.5q49.5 61.5 70.5 190.5q10 63 10 92q0 156 -143 155l-200 -2l-73 -464q61 -20 95.5 -26.5t87.5 -6.5q103 0 152.5 61.5z" />
    <glyph glyph-name="q" unicode="q" 
d="M465 59q-55 -33 -115 -49t-107 -16q-67 0 -108 47.5t-41 124.5q0 44 10 109q14 90 43.5 146.5t87 86t153.5 29.5q40 0 89.5 -4t85.5 -9l-121 -761h-24zM351.5 30.5q51.5 14.5 116.5 44.5l68 433q-46 2 -67 4q-66 4 -100 4q-77 0 -125.5 -27t-75 -80.5t-40.5 -139.5
q-10 -63 -10 -103q0 -71 36 -110.5t94 -39.5q52 0 103.5 14.5z" />
    <glyph glyph-name="r" unicode="r" horiz-adv-x="376" 
d="M164 531h16l-2 -62q89 68 177 68q50 0 75 -8l-4 -24q-34 8 -75 8q-46 0 -88 -16t-87 -44l-72 -453h-24z" />
    <glyph glyph-name="s" unicode="s" horiz-adv-x="502" 
d="M159.5 -4.5q-71.5 1.5 -92.5 4.5l3 16h212q68 0 106 22t47 75l8 49q1 6 1 17q0 37 -22 55t-68 18h-113q-66 0 -96 18.5t-30 58.5q0 20 4 40l8 46q10 60 49 91t118 31q44 0 98.5 -1.5t98.5 -4.5l-4 -16h-197q-66 0 -98 -24t-41 -76l-8 -46q-4 -27 -4 -40q0 -29 24 -41
t80 -12h112q51 0 82.5 -25.5t31.5 -72.5q0 -6 -2 -22l-8 -49q-9 -59 -55.5 -86t-125.5 -27q-47 0 -118.5 1.5z" />
    <glyph glyph-name="t" unicode="t" horiz-adv-x="366" 
d="M173.5 28q-28.5 28 -28.5 79q0 26 4 51t5 30l53 321h-86l2 16l85 6l32 149h16l-24 -149h175l-3 -22h-175l-51 -321q-9 -56 -9 -81q0 -39 20 -60t62 -25l66 -6l-3 -16h-56q-56 0 -84.5 28z" />
    <glyph glyph-name="u" unicode="u" horiz-adv-x="564" 
d="M138 26.5q-36 32.5 -36 89.5q0 25 4 51l58 364h24l-58 -369q-4 -24 -4 -41q0 -51 28.5 -78t91.5 -27q61 0 111 14.5t115 47.5l72 453h24l-84 -531h-16l2 62q-56 -33 -109 -50.5t-118 -17.5q-69 0 -105 32.5z" />
    <glyph glyph-name="v" unicode="v" horiz-adv-x="529" 
d="M104 531h24l126 -502l231 398q27 47 40 112h16q0 -60 -38 -125l-240 -414h-24z" />
    <glyph glyph-name="w" unicode="w" horiz-adv-x="798" 
d="M104 531h24l105 -499l214 499h26l89 -501l202 413q9 18 18 46t13 50h16q0 -24 -8 -54t-22 -58l-210 -427h-27l-87 499l-215 -499h-26z" />
    <glyph glyph-name="x" unicode="x" horiz-adv-x="506" 
d="M309 264l152 -264h-25l-144 248l-219 -248h-28l236 267l-152 264h25l144 -249l219 249h28z" />
    <glyph glyph-name="y" unicode="y" horiz-adv-x="543" 
d="M97 -215q45 11 97 63.5t99 151.5q-27 3 -45.5 10.5t-35 31t-25.5 68.5l-83 421h24l82 -415q10 -53 33 -70.5t62 -20.5l205 429q25 55 28 85h16q0 -50 -21 -93l-213 -445q-57 -119 -109.5 -172.5t-113.5 -65.5v22z" />
    <glyph glyph-name="z" unicode="z" horiz-adv-x="497" 
d="M68 22l412 487h-349l3 22h376l-3 -22l-412 -486h355q0 -4 -1.5 -11.5t-2.5 -10.5h-381z" />
    <glyph glyph-name="braceleft" unicode="{" horiz-adv-x="304" 
d="M158 -178.5q-30 31.5 -30 84.5q0 23 13.5 101.5t16.5 95.5q24 129 24 151q0 35 -19 50.5t-62 15.5l4 27q92 8 102 73l37 236q10 63 29.5 103t58 61.5t102.5 21.5l-4 -22q-49 0 -79 -11.5t-51 -47t-32 -105.5l-37 -236q-6 -35 -32.5 -58t-61.5 -28q34 -4 52 -25t18 -50
q0 -18 -24 -149q-3 -18 -16.5 -98.5t-13.5 -98.5q0 -56 28.5 -78.5t88.5 -22.5l-3 -22q-79 0 -109 31.5z" />
    <glyph glyph-name="bar" unicode="|" horiz-adv-x="254" 
d="M237 770h24l-133 -842h-24z" />
    <glyph glyph-name="braceright" unicode="}" horiz-adv-x="304" 
d="M0 -188q71 0 109 33t52 117l43 269q6 33 29.5 56t62.5 27q-29 4 -48 23.5t-19 48.5q0 25 24 171q22 136 22 154q0 59 -29 84t-86 25l4 22q74 0 104.5 -34.5t30.5 -93.5q0 -13 -21 -150q-25 -165 -25 -176q0 -53 79 -61l-4 -27q-38 0 -66.5 -17.5t-34.5 -55.5l-42 -265
q-8 -49 -24 -85.5t-55.5 -61.5t-108.5 -25z" />
    <glyph glyph-name="asciitilde" unicode="~" horiz-adv-x="473" 
d="M357 551q-14 10 -35 30q-18 17 -29 25t-22 8q-23 0 -44 -10t-40.5 -23l-25.5 -17l-2 8q36 28 62.5 43t52.5 15q13 0 27.5 -10t35.5 -29q34 -34 51 -34q25 0 50.5 14.5t58.5 38.5l5 -7q-37 -32 -62.5 -47t-53.5 -15q-15 0 -29 10z" />
    <glyph glyph-name="uni00A0" unicode="&#xa0;" horiz-adv-x="234" 
 />
    <glyph glyph-name="exclamdown" unicode="&#xa1;" horiz-adv-x="260" 
d="M233 521v-2l-10 -62q-1 -12 -14 -12h-11q-10 0 -10 9v3l10 62q2 12 14 12h11q10 0 10 -10zM112 -200h-24l89 535h16z" />
    <glyph glyph-name="cent" unicode="&#xa2;" horiz-adv-x="488" 
d="M251 -5q-77 0 -120.5 37t-43.5 132q0 97 32 182.5t89 137.5t129 52l13 82h18l-13 -83q76 -5 153 -25l-2 -14q-90 18 -171 18q-65 0 -116 -48.5t-79.5 -129t-28.5 -172.5q0 -85 35 -116t104 -31q51 0 87.5 5t102.5 18l-2 -16q-50 -14 -85.5 -19.5t-83.5 -8.5l-12 -78h-18z
" />
    <glyph glyph-name="sterling" unicode="&#xa3;" horiz-adv-x="609" 
d="M71 16l122 6l52 326l-121 3l2 16l123 3l26 165q12 79 42.5 122.5t73.5 59t103 15.5q33 0 135 -6l-3 -16h-134q-58 0 -95.5 -13.5t-62 -51.5t-35.5 -110l-26 -165l239 -3l-2 -16l-241 -3l-52 -326h318l-3 -22h-464z" />
    <glyph glyph-name="currency" unicode="&#xa4;" horiz-adv-x="609" 
d="M504.5 307.5q-13.5 -32.5 -38.5 -56.5l80 -95l-19 -17l-81 95q-46 -33 -107 -33q-28 0 -52.5 10.5t-42.5 28.5l-117 -101l-15 17l117 101q-24 35 -24 78q0 38 13.5 70t37.5 56l-80 95l19 17l81 -95q46 33 107 33q28 0 53 -10.5t43 -28.5l116 101l15 -17l-117 -101
q25 -34 25 -78q0 -37 -13.5 -69.5zM261 257q31 -32 79 -32q66 0 110 40.5t44 110.5q0 48 -31.5 79.5t-80.5 31.5q-42 0 -76.5 -19t-55 -53.5t-20.5 -78.5q0 -47 31 -79z" />
    <glyph glyph-name="yen" unicode="&#xa5;" horiz-adv-x="609" 
d="M344 284h199l-4 -24h-212l-15 -92h213l-4 -24h-212l-23 -144h-24l23 144h-213l4 24h212l15 92h-213l4 24h200l-159 448h27l156 -440l318 440h29z" />
    <glyph glyph-name="brokenbar" unicode="&#xa6;" horiz-adv-x="254" 
d="M237 770h24l-54 -341h-24zM156 256h24l-52 -328h-24z" />
    <glyph glyph-name="section" unicode="&#xa7;" horiz-adv-x="559" 
d="M202 -4q-68 2 -91 4l3 16h206q84 0 117.5 24t40.5 70q6 39 8 47q7 43 7 55q0 18 -8.5 27t-29.5 12.5t-62 3.5h-149q-66 0 -96 18t-30 55q0 12 4 39l8 48q7 47 26 66t53 25q-23 8 -32.5 23t-9.5 39q0 16 2 31l10 61q12 71 51.5 97.5t117.5 26.5q49 0 124.5 -1.5t98.5 -4.5
l-2 -16h-224q-64 0 -98 -20.5t-44 -81.5q-13 -74 -13 -89q0 -32 22.5 -42.5t73.5 -10.5h169q62 0 85.5 -15.5t23.5 -52.5q0 -16 -3 -34l-10 -62q-7 -46 -23.5 -64.5t-51.5 -22.5q23 -7 32 -19.5t9 -32.5q0 -16 -6 -52l-9 -53q-9 -63 -55 -89.5t-131 -26.5q-46 0 -114 2z
M397 277q58 0 81.5 4.5t33 19.5t15.5 53l10 62q3 17 3 28q0 31 -18.5 41.5t-69.5 10.5h-169q-46 0 -72 -6.5t-39 -24t-18 -51.5l-10 -61q-2 -14 -2 -19q0 -29 23.5 -43t82.5 -14h149z" />
    <glyph glyph-name="dieresis" unicode="&#xa8;" horiz-adv-x="424" 
d="M181 676l10 64q1 12 15 12h11q10 0 10 -9q0 4 -11 -65q-2 -12 -14 -12h-11q-10 0 -10 10zM389 676l10 64q1 12 15 12h11q10 0 10 -9q0 4 -11 -65q-2 -12 -14 -12h-11q-10 0 -10 10z" />
    <glyph glyph-name="copyright" unicode="&#xa9;" horiz-adv-x="864" 
d="M168.5 82.5q-45.5 82.5 -45.5 196.5q0 113 45.5 218t117.5 170t145 65h256q91 0 132.5 -67t41.5 -170q0 -126 -41 -240.5t-108 -184.5t-141 -70h-256q-101 0 -146.5 82.5zM573 14q70 0 133 68t101 179t38 231q0 105 -38.5 165.5t-121.5 60.5h-256q-66 0 -133.5 -60.5
t-112 -162t-44.5 -216.5t41.5 -190t136.5 -75h256zM332 177.5q-31 30.5 -31 107.5q0 84 26 152t68.5 107t90.5 39q32 0 84 -5t92 -12l-2 -9q-41 6 -92.5 9t-83.5 3q-45 0 -83.5 -40.5t-61 -105.5t-22.5 -136q0 -63 24 -94.5t78 -31.5q116 0 187 16l-1 -9q-47 -13 -89.5 -17
t-98.5 -4q-54 0 -85 30.5z" />
    <glyph glyph-name="ordfeminine" unicode="&#xaa;" horiz-adv-x="406" 
d="M146.5 388q-34.5 32 -34.5 98q0 28 8 72q16 105 62 151.5t138 46.5q39 0 78.5 -10t63.5 -31l-56 -355h-16l1 43q-23 -14 -69 -30.5t-84 -16.5q-57 0 -91.5 32zM313 386q34 11 80 32l46 291q-20 11 -51 19.5t-69 8.5q-59 0 -94 -19t-54 -58.5t-30 -108.5q-7 -39 -7 -63
q0 -57 28.5 -85t76.5 -28q40 0 74 11zM103 291h312l-3 -20h-312z" />
    <glyph glyph-name="guillemotleft" unicode="&#xab;" horiz-adv-x="604" 
d="M101 278l238 203l14 -16l-222 -189l164 -191l-17 -15zM351 278l238 203l14 -16l-222 -189l164 -191l-17 -15z" />
    <glyph glyph-name="logicalnot" unicode="&#xac;" horiz-adv-x="609" 
d="M564 224h-24l38 240h-424l4 24h448z" />
    <glyph glyph-name="uni00AD" unicode="&#xad;" horiz-adv-x="331" 
d="M72 302h284l-4 -24h-284z" />
    <glyph glyph-name="registered" unicode="&#xae;" horiz-adv-x="864" 
d="M168.5 82.5q-45.5 82.5 -45.5 196.5q0 113 45.5 218t117.5 170t145 65h256q91 0 132.5 -67t41.5 -170q0 -126 -41 -240.5t-108 -184.5t-141 -70h-256q-101 0 -146.5 82.5zM573 14q70 0 133 68t101 179t38 231q0 105 -38.5 165.5t-121.5 60.5h-256q-66 0 -133.5 -60.5
t-112 -162t-44.5 -216.5t41.5 -190t136.5 -75h256zM377 580h177q50 0 78.5 -19t28.5 -71q0 -57 -37 -98.5t-94 -45.5l80 -193h-13l-80 192l-163 5l-31 -197h-14zM524 359q34 0 62.5 18t44.5 47t16 62q0 43 -22.5 61.5t-66.5 18.5h-169l-33 -207h168z" />
    <glyph glyph-name="macron" unicode="&#xaf;" horiz-adv-x="387" 
d="M180 706h252l-3 -15h-252z" />
    <glyph glyph-name="degree" unicode="&#xb0;" horiz-adv-x="338" 
d="M175 538q-29 28 -29 72q0 65 40.5 105t103.5 40q46 0 74 -28t28 -73q0 -65 -39.5 -104.5t-101.5 -39.5q-47 0 -76 28zM342.5 560.5q35.5 36.5 35.5 91.5q0 40 -24.5 64.5t-66.5 24.5q-55 0 -91 -37t-36 -91q0 -39 25.5 -64t67.5 -25q54 0 89.5 36.5z" />
    <glyph glyph-name="plusminus" unicode="&#xb1;" horiz-adv-x="609" 
d="M107 168h448l-4 -24h-448zM607 494h-212l-33 -212h-24l33 212h-212l4 24h212l33 212h24l-33 -212h212z" />
    <glyph glyph-name="uni00B2" unicode="&#xb2;" horiz-adv-x="421" 
d="M110 374l225 180q64 52 91 99.5t27 96.5q0 36 -26.5 56t-91.5 20h-131l2 15q100 5 139 5q130 0 130 -93q0 -53 -28.5 -105t-95.5 -106l-205 -166h291l-3 -21h-326z" />
    <glyph glyph-name="uni00B3" unicode="&#xb3;" horiz-adv-x="421" 
d="M99 356l3 15h170q52 0 86.5 20.5t42.5 72.5l7 40q2 12 2 16q-1 36 -27 52t-62 17l-131 5l3 14l131 4q94 3 106 78l7 44q1 6 1 18q0 35 -25.5 54.5t-74.5 19.5h-144l3 15q58 5 151 5q57 0 85 -24.5t28 -64.5q0 -14 -2 -22l-7 -45q-7 -44 -37 -65.5t-55 -23.5q25 -5 49 -24
t24 -56q0 -4 -2 -18l-7 -40q-8 -54 -47.5 -83t-104.5 -29q-106 0 -173 5z" />
    <glyph glyph-name="acute" unicode="&#xb4;" horiz-adv-x="201" 
d="M269 764h26l-154 -133h-14z" />
    <glyph glyph-name="uni00B5" unicode="&#xb5;" horiz-adv-x="582" 
 />
    <glyph glyph-name="paragraph" unicode="&#xb6;" horiz-adv-x="572" 
d="M345 325q-16 -10 -85 -10q-71 0 -107.5 35t-36.5 91q0 10 2 28l20 123q11 67 66 103.5t122 36.5h335l-4 -26h-89l-112 -706h-24l112 708h-114l-155 -978h-24zM348 339l58 369h-84q-66 0 -109 -33.5t-52 -84.5l-18 -119q-3 -13 -3 -26q0 -63 35 -84.5t89 -21.5h84z" />
    <glyph glyph-name="periodcentered" unicode="&#xb7;" horiz-adv-x="281" 
d="M141 367.5q-3 3.5 -2 8.5l2 12q2 12 14 12h12q11 0 9 -12l-2 -12q-1 -12 -13 -12h-12q-5 0 -8 3.5z" />
    <glyph glyph-name="cedilla" unicode="&#xb8;" horiz-adv-x="267" 
d="M158 -105q0 -16 -12 -34t-34.5 -31t-52.5 -13h-20l2 10l26 2q24 2 41 13t26 25t9 25q0 19 -17 29.5t-59 10.5l66 78h14l-58 -68q69 -1 69 -47z" />
    <glyph glyph-name="uni00B9" unicode="&#xb9;" horiz-adv-x="421" 
d="M420 375l-3 -20h-288l3 20h133l71 449l-132 -39l3 15l134 47h21l-75 -472h133z" />
    <glyph glyph-name="ordmasculine" unicode="&#xba;" horiz-adv-x="435" 
d="M151 385.5q-37 29.5 -37 100.5q0 31 6 70q13 78 36 121t61.5 61t100.5 18q73 0 106.5 -33.5t33.5 -100.5q0 -28 -7 -77q-12 -73 -34.5 -113.5t-61.5 -58t-101 -17.5q-66 0 -103 29.5zM342.5 388.5q32.5 13.5 53.5 51.5t33 110q6 42 6 72q0 62 -27.5 88.5t-94.5 26.5
q-54 0 -86.5 -15.5t-53 -55.5t-32.5 -116q-5 -42 -5 -64q0 -64 31 -87.5t91 -23.5q52 0 84.5 13.5zM103 291h312l-3 -20h-312z" />
    <glyph glyph-name="guillemotright" unicode="&#xbb;" horiz-adv-x="604" 
d="M67 86l221 188l-164 194l17 13l177 -208l-238 -203zM317 86l221 188l-164 194l17 13l177 -208l-238 -203z" />
    <glyph glyph-name="onequarter" unicode="&#xbc;" horiz-adv-x="1145" 
d="M855 770h20l-508 -770h-20zM1029 138h-246l-5 18l258 331h25l-256 -329h226l25 154l12 38h16l-31 -192h80l-2 -15l-80 -5l-23 -137h-22zM430 375l-3 -20h-288l3 20h133l71 449l-132 -39l3 15l134 47h21l-75 -472h133z" />
    <glyph glyph-name="onehalf" unicode="&#xbd;" horiz-adv-x="1145" 
d="M855 770h20l-508 -770h-20zM755 19l225 180q64 52 91 99.5t27 96.5q0 36 -26.5 56t-91.5 20h-131l2 15q100 5 139 5q130 0 130 -93q0 -53 -28.5 -105t-95.5 -106l-205 -166h291l-3 -21h-326zM430 375l-3 -20h-288l3 20h133l71 449l-132 -39l3 15l134 47h21l-75 -472h133z
" />
    <glyph glyph-name="threequarters" unicode="&#xbe;" horiz-adv-x="1145" 
d="M855 770h20l-508 -770h-20zM1029 138h-246l-5 18l258 331h25l-256 -329h226l25 154l12 38h16l-31 -192h80l-2 -15l-80 -5l-23 -137h-22zM109 356l3 15h170q52 0 86.5 20.5t42.5 72.5l7 40q2 12 2 16q-1 36 -27 52t-62 17l-131 5l3 14l131 4q94 3 106 78l7 44q1 6 1 18
q0 35 -25.5 54.5t-74.5 19.5h-144l3 15q58 5 151 5q57 0 85 -24.5t28 -64.5q0 -14 -2 -22l-7 -45q-7 -44 -37 -65.5t-55 -23.5q25 -5 49 -24t24 -56q0 -4 -2 -18l-7 -40q-8 -54 -47.5 -83t-104.5 -29q-106 0 -173 5z" />
    <glyph glyph-name="questiondown" unicode="&#xbf;" horiz-adv-x="532" 
d="M412 521v-2l-10 -62q-1 -12 -14 -12h-11q-10 0 -10 9v3l10 62q2 12 14 12h11q10 0 10 -10zM360 210h-35q-72 0 -115 -13t-66.5 -44t-32.5 -85l-13 -81q-5 -28 -5 -58q0 -62 31.5 -88.5t101.5 -26.5q56 0 106.5 9.5t111.5 32.5l-2 -14q-60 -28 -115 -39t-111 -11
q-80 0 -114 33t-34 98q0 29 6 64l13 81q14 86 73.5 126t181.5 40l16 102h22z" />
    <glyph glyph-name="Agrave" unicode="&#xc0;" horiz-adv-x="660" 
d="M435 732h34l146 -732h-25l-51 254h-333l-136 -254h-25zM535 276l-87 430l-230 -430h317zM356 924h26l100 -133h-14z" />
    <glyph glyph-name="Aacute" unicode="&#xc1;" horiz-adv-x="660" 
d="M435 732h34l146 -732h-25l-51 254h-333l-136 -254h-25zM535 276l-87 430l-230 -430h317zM577 924h26l-154 -133h-14z" />
    <glyph glyph-name="Acircumflex" unicode="&#xc2;" horiz-adv-x="660" 
d="M435 732h34l146 -732h-25l-51 254h-333l-136 -254h-25zM535 276l-87 430l-230 -430h317zM462 921h20l99 -130h-18l-94 115l-142 -115h-18z" />
    <glyph glyph-name="Atilde" unicode="&#xc3;" horiz-adv-x="660" 
d="M435 732h34l146 -732h-25l-51 254h-333l-136 -254h-25zM535 276l-87 430l-230 -430h317zM351 888.5q29 21.5 66 21.5q21 0 39.5 -9.5t41.5 -28.5q22 -17 38.5 -26t35.5 -9q32 0 54.5 19t28.5 54h14q-6 -40 -32.5 -64.5t-68.5 -24.5q-19 0 -35.5 9t-39.5 27
q-27 19 -43.5 28t-37.5 9q-31 0 -54 -18t-29 -55h-14q7 46 36 67.5z" />
    <glyph glyph-name="Adieresis" unicode="&#xc4;" horiz-adv-x="660" 
d="M435 732h34l146 -732h-25l-51 254h-333l-136 -254h-25zM535 276l-87 430l-230 -430h317zM319 836l10 64q1 12 15 12h11q10 0 10 -9q0 4 -11 -65q-2 -12 -14 -12h-11q-10 0 -10 10zM527 836l10 64q1 12 15 12h11q10 0 10 -9q0 4 -11 -65q-2 -12 -14 -12h-11q-10 0 -10 10z
" />
    <glyph glyph-name="Aring" unicode="&#xc5;" horiz-adv-x="660" 
d="M435 732h34l146 -732h-25l-51 254h-333l-136 -254h-25zM535 276l-87 430l-230 -430h317zM391 799.5q-25 19.5 -25 63.5q0 50 32.5 86t88.5 36q37 0 61.5 -20t24.5 -62q0 -52 -31 -87.5t-86 -35.5q-40 0 -65 19.5zM531.5 826q25.5 30 25.5 75q0 37 -20.5 52.5t-50.5 15.5
q-51 0 -77.5 -30t-26.5 -76q0 -36 21 -51.5t53 -15.5q50 0 75.5 30z" />
    <glyph glyph-name="AE" unicode="&#xc6;" horiz-adv-x="896" 
d="M530 14q-36 19 -36 76q0 15 3 31l21 131h-259l-199 -252h-30l469 590q50 63 75 89t59 40t87 13l266 -6l-3 -16h-267q-50 0 -73.5 -10.5t-30.5 -28.5t-13 -56l-3 -23l-35 -218l329 -3l-3 -16l-329 -3l-37 -229q-2 -10 -2 -28q0 -45 26.5 -60.5t71.5 -15.5h257l-3 -16
l-249 -6q-56 -2 -92 17zM521 274l62 387l-306 -387h244z" />
    <glyph glyph-name="Ccedilla" unicode="&#xc7;" horiz-adv-x="589" 
d="M289.5 678q-50.5 -38 -82.5 -114t-53 -198q-15 -88 -15 -155q0 -104 39 -149.5t129 -45.5q75 0 122.5 3.5t91.5 10.5l-3 -16q-89 -18 -194 -20l-53 -62q69 -1 69 -47q0 -16 -12 -34t-34.5 -31t-52.5 -13h-20l2 10l26 2q24 2 41 13t26 25t9 25q0 19 -17 29.5t-59 10.5
l61 72h-8q-99 0 -143.5 53.5t-44.5 162.5q0 70 16 166q28 180 96 271t192 91q62 0 109 -5.5t105 -16.5l-4 -16q-109 16 -212 16q-76 0 -126.5 -38z" />
    <glyph glyph-name="Egrave" unicode="&#xc8;" horiz-adv-x="565" 
d="M97 94q0 15 3 34l76 479q11 68 51 97t95 28l297 -6l-3 -16h-297q-49 0 -80 -25t-40 -83l-36 -227l359 -6l-3 -16l-360 -2l-35 -228q-3 -16 -3 -30q0 -45 25.5 -61t73.5 -16h288l-3 -16l-289 -6q-119 -2 -119 100zM326 924h26l100 -133h-14z" />
    <glyph glyph-name="Eacute" unicode="&#xc9;" horiz-adv-x="565" 
d="M97 94q0 15 3 34l76 479q11 68 51 97t95 28l297 -6l-3 -16h-297q-49 0 -80 -25t-40 -83l-36 -227l359 -6l-3 -16l-360 -2l-35 -228q-3 -16 -3 -30q0 -45 25.5 -61t73.5 -16h288l-3 -16l-289 -6q-119 -2 -119 100zM547 924h26l-154 -133h-14z" />
    <glyph glyph-name="Ecircumflex" unicode="&#xca;" horiz-adv-x="565" 
d="M97 94q0 15 3 34l76 479q11 68 51 97t95 28l297 -6l-3 -16h-297q-49 0 -80 -25t-40 -83l-36 -227l359 -6l-3 -16l-360 -2l-35 -228q-3 -16 -3 -30q0 -45 25.5 -61t73.5 -16h288l-3 -16l-289 -6q-119 -2 -119 100zM432 921h20l99 -130h-18l-94 115l-142 -115h-18z" />
    <glyph glyph-name="Edieresis" unicode="&#xcb;" horiz-adv-x="565" 
d="M97 94q0 15 3 34l76 479q11 68 51 97t95 28l297 -6l-3 -16h-297q-49 0 -80 -25t-40 -83l-36 -227l359 -6l-3 -16l-360 -2l-35 -228q-3 -16 -3 -30q0 -45 25.5 -61t73.5 -16h288l-3 -16l-289 -6q-119 -2 -119 100zM289 836l10 64q1 12 15 12h11q10 0 10 -9q0 4 -11 -65
q-2 -12 -14 -12h-11q-10 0 -10 10zM497 836l10 64q1 12 15 12h11q10 0 10 -9q0 4 -11 -65q-2 -12 -14 -12h-11q-10 0 -10 10z" />
    <glyph glyph-name="Igrave" unicode="&#xcc;" horiz-adv-x="184" 
d="M196 732h24l-116 -732h-24zM117 924h26l100 -133h-14z" />
    <glyph glyph-name="Iacute" unicode="&#xcd;" horiz-adv-x="184" 
d="M196 732h24l-116 -732h-24zM338 924h26l-154 -133h-14z" />
    <glyph glyph-name="Icircumflex" unicode="&#xce;" horiz-adv-x="184" 
d="M196 732h24l-116 -732h-24zM223 921h20l99 -130h-18l-94 115l-142 -115h-18z" />
    <glyph glyph-name="Idieresis" unicode="&#xcf;" horiz-adv-x="184" 
d="M196 732h24l-116 -732h-24zM80 836l10 64q1 12 15 12h11q10 0 10 -9q0 4 -11 -65q-2 -12 -14 -12h-11q-10 0 -10 10zM288 836l10 64q1 12 15 12h11q10 0 10 -9q0 4 -11 -65q-2 -12 -14 -12h-11q-10 0 -10 10z" />
    <glyph glyph-name="Eth" unicode="&#xd0;" horiz-adv-x="663" 
d="M612.5 670q48.5 -62 48.5 -192q0 -47 -12 -123q-25 -159 -100 -257t-210 -98h-259l57 362h-75l4 22h75l55 348h252q116 0 164.5 -62zM637 481q0 78 -17 127.5t-59.5 75.5t-117.5 26h-227l-52 -326h226l-4 -22h-225l-54 -340h231q126 0 195 95t93 247q11 68 11 117z" />
    <glyph glyph-name="Ntilde" unicode="&#xd1;" horiz-adv-x="649" 
d="M196 732h22l333 -691l110 691h24l-116 -732h-22l-333 692l-110 -692h-24zM341 888.5q29 21.5 66 21.5q21 0 39.5 -9.5t41.5 -28.5q22 -17 38.5 -26t35.5 -9q32 0 54.5 19t28.5 54h14q-6 -40 -32.5 -64.5t-68.5 -24.5q-19 0 -35.5 9t-39.5 27q-27 19 -43.5 28t-37.5 9
q-31 0 -54 -18t-29 -55h-14q7 46 36 67.5z" />
    <glyph glyph-name="Ograve" unicode="&#xd2;" horiz-adv-x="678" 
d="M211 10.5q-48 16.5 -73.5 61t-25.5 127.5q0 70 16 169q24 150 64.5 230t103 110t161.5 30q74 0 122.5 -19t74.5 -65.5t26 -129.5q0 -71 -16 -170q-23 -148 -65 -226t-104 -106t-159 -28q-77 0 -125 16.5zM489 41.5q55 25.5 91 99.5t60 220q15 90 15 164q0 78 -23.5 119.5
t-67 56.5t-112.5 15q-90 0 -146 -27.5t-93.5 -104t-60.5 -223.5q-16 -106 -16 -162q0 -75 22 -114.5t65.5 -54t118.5 -14.5q92 0 147 25.5zM368 924h26l100 -133h-14z" />
    <glyph glyph-name="Oacute" unicode="&#xd3;" horiz-adv-x="678" 
d="M211 10.5q-48 16.5 -73.5 61t-25.5 127.5q0 70 16 169q24 150 64.5 230t103 110t161.5 30q74 0 122.5 -19t74.5 -65.5t26 -129.5q0 -71 -16 -170q-23 -148 -65 -226t-104 -106t-159 -28q-77 0 -125 16.5zM489 41.5q55 25.5 91 99.5t60 220q15 90 15 164q0 78 -23.5 119.5
t-67 56.5t-112.5 15q-90 0 -146 -27.5t-93.5 -104t-60.5 -223.5q-16 -106 -16 -162q0 -75 22 -114.5t65.5 -54t118.5 -14.5q92 0 147 25.5zM589 924h26l-154 -133h-14z" />
    <glyph glyph-name="Ocircumflex" unicode="&#xd4;" horiz-adv-x="678" 
d="M211 10.5q-48 16.5 -73.5 61t-25.5 127.5q0 70 16 169q24 150 64.5 230t103 110t161.5 30q74 0 122.5 -19t74.5 -65.5t26 -129.5q0 -71 -16 -170q-23 -148 -65 -226t-104 -106t-159 -28q-77 0 -125 16.5zM489 41.5q55 25.5 91 99.5t60 220q15 90 15 164q0 78 -23.5 119.5
t-67 56.5t-112.5 15q-90 0 -146 -27.5t-93.5 -104t-60.5 -223.5q-16 -106 -16 -162q0 -75 22 -114.5t65.5 -54t118.5 -14.5q92 0 147 25.5zM474 921h20l99 -130h-18l-94 115l-142 -115h-18z" />
    <glyph glyph-name="Otilde" unicode="&#xd5;" horiz-adv-x="678" 
d="M211 10.5q-48 16.5 -73.5 61t-25.5 127.5q0 70 16 169q24 150 64.5 230t103 110t161.5 30q74 0 122.5 -19t74.5 -65.5t26 -129.5q0 -71 -16 -170q-23 -148 -65 -226t-104 -106t-159 -28q-77 0 -125 16.5zM489 41.5q55 25.5 91 99.5t60 220q15 90 15 164q0 78 -23.5 119.5
t-67 56.5t-112.5 15q-90 0 -146 -27.5t-93.5 -104t-60.5 -223.5q-16 -106 -16 -162q0 -75 22 -114.5t65.5 -54t118.5 -14.5q92 0 147 25.5zM363 888.5q29 21.5 66 21.5q21 0 39.5 -9.5t41.5 -28.5q22 -17 38.5 -26t35.5 -9q32 0 54.5 19t28.5 54h14q-6 -40 -32.5 -64.5
t-68.5 -24.5q-19 0 -35.5 9t-39.5 27q-27 19 -43.5 28t-37.5 9q-31 0 -54 -18t-29 -55h-14q7 46 36 67.5z" />
    <glyph glyph-name="Odieresis" unicode="&#xd6;" horiz-adv-x="678" 
d="M211 10.5q-48 16.5 -73.5 61t-25.5 127.5q0 70 16 169q24 150 64.5 230t103 110t161.5 30q74 0 122.5 -19t74.5 -65.5t26 -129.5q0 -71 -16 -170q-23 -148 -65 -226t-104 -106t-159 -28q-77 0 -125 16.5zM489 41.5q55 25.5 91 99.5t60 220q15 90 15 164q0 78 -23.5 119.5
t-67 56.5t-112.5 15q-90 0 -146 -27.5t-93.5 -104t-60.5 -223.5q-16 -106 -16 -162q0 -75 22 -114.5t65.5 -54t118.5 -14.5q92 0 147 25.5zM331 836l10 64q1 12 15 12h11q10 0 10 -9q0 4 -11 -65q-2 -12 -14 -12h-11q-10 0 -10 10zM539 836l10 64q1 12 15 12h11q10 0 10 -9
q0 4 -11 -65q-2 -12 -14 -12h-11q-10 0 -10 10z" />
    <glyph glyph-name="multiply" unicode="&#xd7;" horiz-adv-x="609" 
d="M378 356l126 -150l-19 -17l-126 150l-174 -150l-15 17l174 150l-126 150l19 17l126 -150l174 150l15 -17z" />
    <glyph glyph-name="Oslash" unicode="&#xd8;" horiz-adv-x="678" 
d="M656 649q24 -46 24 -125q0 -71 -16 -170q-23 -148 -65 -226t-104 -106t-159 -28q-74 0 -120 15t-72 53l-54 -62h-25l69 79q-22 43 -22 120q0 70 16 169q24 150 64.5 230t103 110t161.5 30q70 0 116.5 -16.5t72.5 -55.5l58 66h25zM151 99l479 548q-23 39 -66 54t-112 15
q-90 0 -146 -27.5t-93.5 -104t-60.5 -223.5q-16 -106 -16 -162q0 -62 15 -100zM639 629l-479 -549q21 -37 64.5 -50.5t117.5 -13.5q92 0 147 25.5t91 99.5t60 220q15 90 15 164q0 61 -16 104z" />
    <glyph glyph-name="Ugrave" unicode="&#xd9;" horiz-adv-x="667" 
d="M172 38q-53 44 -53 148q0 62 12 134l65 412h24l-65 -412q-13 -80 -13 -135q0 -93 46.5 -131t142.5 -38q83 0 135.5 21.5t90 87.5t57.5 195l65 412h24l-65 -412q-22 -136 -63 -207t-98.5 -95t-143.5 -24q-108 0 -161 44zM346 924h26l100 -133h-14z" />
    <glyph glyph-name="Uacute" unicode="&#xda;" horiz-adv-x="667" 
d="M172 38q-53 44 -53 148q0 62 12 134l65 412h24l-65 -412q-13 -80 -13 -135q0 -93 46.5 -131t142.5 -38q83 0 135.5 21.5t90 87.5t57.5 195l65 412h24l-65 -412q-22 -136 -63 -207t-98.5 -95t-143.5 -24q-108 0 -161 44zM567 924h26l-154 -133h-14z" />
    <glyph glyph-name="Ucircumflex" unicode="&#xdb;" horiz-adv-x="667" 
d="M172 38q-53 44 -53 148q0 62 12 134l65 412h24l-65 -412q-13 -80 -13 -135q0 -93 46.5 -131t142.5 -38q83 0 135.5 21.5t90 87.5t57.5 195l65 412h24l-65 -412q-22 -136 -63 -207t-98.5 -95t-143.5 -24q-108 0 -161 44zM452 921h20l99 -130h-18l-94 115l-142 -115h-18z
" />
    <glyph glyph-name="Udieresis" unicode="&#xdc;" horiz-adv-x="667" 
d="M172 38q-53 44 -53 148q0 62 12 134l65 412h24l-65 -412q-13 -80 -13 -135q0 -93 46.5 -131t142.5 -38q83 0 135.5 21.5t90 87.5t57.5 195l65 412h24l-65 -412q-22 -136 -63 -207t-98.5 -95t-143.5 -24q-108 0 -161 44zM309 836l10 64q1 12 15 12h11q10 0 10 -9
q0 4 -11 -65q-2 -12 -14 -12h-11q-10 0 -10 10zM517 836l10 64q1 12 15 12h11q10 0 10 -9q0 4 -11 -65q-2 -12 -14 -12h-11q-10 0 -10 10z" />
    <glyph glyph-name="Yacute" unicode="&#xdd;" horiz-adv-x="590" 
d="M314 260l-168 472h27l156 -440l318 440h29l-338 -472l-41 -260h-24zM525 924h26l-154 -133h-14z" />
    <glyph glyph-name="Thorn" unicode="&#xde;" horiz-adv-x="535" 
d="M531 437q0 -25 -6 -65q-29 -189 -222 -189q-68 0 -170 5l-29 -188h-24l116 732h22l-23 -150h177q159 0 159 -145zM507 436q0 65 -35.5 94.5t-103.5 29.5h-177l-55 -355h169q169 0 196 167q6 40 6 64z" />
    <glyph glyph-name="germandbls" unicode="&#xdf;" horiz-adv-x="566" 
d="M285.5 -2q-47.5 4 -74.5 9l2 14q95 -5 173 -5q69 0 100.5 32.5t37.5 73.5q6 36 6 52q0 31 -22 47.5t-66 33.5q-34 14 -53.5 24.5t-33 29t-13.5 45.5q0 33 22 61.5t66 68.5q48 43 72.5 75t24.5 72q0 54 -35.5 85t-95.5 31q-87 0 -136.5 -42.5t-64.5 -138.5l-90 -566h-24
l90 566q16 105 71.5 154t155.5 49q76 0 114.5 -38.5t38.5 -98.5q0 -46 -26.5 -82t-78.5 -82q-41 -37 -60.5 -61.5t-19.5 -52.5q0 -30 20.5 -45t64.5 -32q50 -18 76.5 -39t26.5 -64q0 -18 -6 -52q-11 -61 -55 -94.5t-111 -33.5q-49 0 -96.5 4z" />
    <glyph glyph-name="agrave" unicode="&#xe0;" horiz-adv-x="559" 
d="M138 38q-46 44 -46 133q0 37 10 97q22 142 83 205.5t184 63.5q51 0 103 -13.5t83 -42.5l-76 -481h-16l2 59q-30 -20 -92.5 -42.5t-113.5 -22.5q-75 0 -121 44zM357 30.5q45 14.5 110 44.5l63 401q-24 15 -67 27t-96 12q-80 0 -127.5 -26t-73.5 -81t-41 -150
q-9 -57 -9 -86q0 -79 38 -117.5t104 -38.5q54 0 99 14.5zM290 764h26l100 -133h-14z" />
    <glyph glyph-name="aacute" unicode="&#xe1;" horiz-adv-x="559" 
d="M138 38q-46 44 -46 133q0 37 10 97q22 142 83 205.5t184 63.5q51 0 103 -13.5t83 -42.5l-76 -481h-16l2 59q-30 -20 -92.5 -42.5t-113.5 -22.5q-75 0 -121 44zM357 30.5q45 14.5 110 44.5l63 401q-24 15 -67 27t-96 12q-80 0 -127.5 -26t-73.5 -81t-41 -150
q-9 -57 -9 -86q0 -79 38 -117.5t104 -38.5q54 0 99 14.5zM511 764h26l-154 -133h-14z" />
    <glyph glyph-name="acircumflex" unicode="&#xe2;" horiz-adv-x="559" 
d="M138 38q-46 44 -46 133q0 37 10 97q22 142 83 205.5t184 63.5q51 0 103 -13.5t83 -42.5l-76 -481h-16l2 59q-30 -20 -92.5 -42.5t-113.5 -22.5q-75 0 -121 44zM357 30.5q45 14.5 110 44.5l63 401q-24 15 -67 27t-96 12q-80 0 -127.5 -26t-73.5 -81t-41 -150
q-9 -57 -9 -86q0 -79 38 -117.5t104 -38.5q54 0 99 14.5zM406 761h20l99 -130h-18l-94 115l-142 -115h-18z" />
    <glyph glyph-name="atilde" unicode="&#xe3;" horiz-adv-x="559" 
d="M138 38q-46 44 -46 133q0 37 10 97q22 142 83 205.5t184 63.5q51 0 103 -13.5t83 -42.5l-76 -481h-16l2 59q-30 -20 -92.5 -42.5t-113.5 -22.5q-75 0 -121 44zM357 30.5q45 14.5 110 44.5l63 401q-24 15 -67 27t-96 12q-80 0 -127.5 -26t-73.5 -81t-41 -150
q-9 -57 -9 -86q0 -79 38 -117.5t104 -38.5q54 0 99 14.5zM275 728.5q29 21.5 66 21.5q21 0 39.5 -9.5t41.5 -28.5q22 -17 38.5 -26t35.5 -9q32 0 54.5 19t28.5 54h14q-6 -40 -32.5 -64.5t-68.5 -24.5q-19 0 -35.5 9t-39.5 27q-27 19 -43.5 28t-37.5 9q-31 0 -54 -18t-29 -55
h-14q7 46 36 67.5z" />
    <glyph glyph-name="adieresis" unicode="&#xe4;" horiz-adv-x="559" 
d="M138 38q-46 44 -46 133q0 37 10 97q22 142 83 205.5t184 63.5q51 0 103 -13.5t83 -42.5l-76 -481h-16l2 59q-30 -20 -92.5 -42.5t-113.5 -22.5q-75 0 -121 44zM357 30.5q45 14.5 110 44.5l63 401q-24 15 -67 27t-96 12q-80 0 -127.5 -26t-73.5 -81t-41 -150
q-9 -57 -9 -86q0 -79 38 -117.5t104 -38.5q54 0 99 14.5zM253 676l10 64q1 12 15 12h11q10 0 10 -9q0 4 -11 -65q-2 -12 -14 -12h-11q-10 0 -10 10zM461 676l10 64q1 12 15 12h11q10 0 10 -9q0 4 -11 -65q-2 -12 -14 -12h-11q-10 0 -10 10z" />
    <glyph glyph-name="aring" unicode="&#xe5;" horiz-adv-x="559" 
d="M138 38q-46 44 -46 133q0 37 10 97q22 142 83 205.5t184 63.5q51 0 103 -13.5t83 -42.5l-76 -481h-16l2 59q-30 -20 -92.5 -42.5t-113.5 -22.5q-75 0 -121 44zM357 30.5q45 14.5 110 44.5l63 401q-24 15 -67 27t-96 12q-80 0 -127.5 -26t-73.5 -81t-41 -150
q-9 -57 -9 -86q0 -79 38 -117.5t104 -38.5q54 0 99 14.5zM325 619.5q-25 19.5 -25 63.5q0 50 32.5 86t88.5 36q37 0 61.5 -20t24.5 -62q0 -52 -31 -87.5t-86 -35.5q-40 0 -65 19.5zM465.5 646q25.5 30 25.5 75q0 37 -20.5 52.5t-50.5 15.5q-51 0 -77.5 -30t-26.5 -76
q0 -36 21 -51.5t53 -15.5q50 0 75.5 30z" />
    <glyph glyph-name="ae" unicode="&#xe6;" horiz-adv-x="915" 
d="M136.5 37.5q-41.5 43.5 -41.5 133.5q0 155 62.5 260.5t213.5 105.5q46 0 100 -15.5t85 -40.5q64 60 183 60q87 0 132.5 -37.5t45.5 -108.5q0 -46 -30 -82t-85.5 -56.5t-127.5 -20.5q-59 0 -114 6.5t-70 12.5q-4 -39 -4 -78q0 -82 30.5 -121.5t111.5 -39.5h212l-3 -16
q-74 -6 -206 -6q-65 0 -105 26.5t-54 71.5q-38 -35 -99.5 -66.5t-120.5 -31.5q-74 0 -115.5 43.5zM829 291.5q63 33.5 63 100.5q0 60 -38 93.5t-108 33.5q-91 0 -141 -28t-73.5 -80t-39.5 -142q14 -2 62.5 -6.5t102.5 -4.5q109 0 172 33.5zM364 44.5q61 28.5 104 67.5
q-6 24 -6 55q0 80 19.5 162t62.5 139q-33 18 -79 32.5t-95 14.5q-139 0 -195 -100t-56 -241q0 -158 125 -158q59 0 120 28.5z" />
    <glyph glyph-name="ccedilla" unicode="&#xe7;" horiz-adv-x="485" 
d="M203.5 460q-55.5 -55 -77.5 -198q-9 -58 -9 -82q0 -65 18 -101t53 -49.5t91 -13.5h168l-2 -16q-82 -6 -170 -6h-19l-53 -62q69 -1 69 -47q0 -16 -12 -34t-34.5 -31t-52.5 -13h-20l2 10l26 2q24 2 41 13t26 25t9 25q0 19 -17 29.5t-59 10.5l62 73q-73 6 -111.5 47.5
t-38.5 137.5q0 33 10 93q22 138 83.5 201t162.5 63q69 0 167 -6l-4 -16h-165q-88 0 -143.5 -55z" />
    <glyph glyph-name="egrave" unicode="&#xe8;" horiz-adv-x="548" 
d="M148 37.5q-53 43.5 -53 133.5q0 52 11 120q17 121 80 185.5t184 64.5q90 0 135 -32t45 -103q0 -94 -74 -132t-189 -38q-51 0 -95 5.5t-68 12.5q-5 -34 -5 -81q0 -83 46 -120t152 -37h154l-3 -16q-102 -6 -153 -6q-114 0 -167 43.5zM459 289.5q67 31.5 67 114.5
q0 62 -38.5 88.5t-119.5 26.5q-116 0 -170 -61.5t-72 -187.5q62 -12 143 -12q123 0 190 31.5zM288 764h26l100 -133h-14z" />
    <glyph glyph-name="eacute" unicode="&#xe9;" horiz-adv-x="548" 
d="M148 37.5q-53 43.5 -53 133.5q0 52 11 120q17 121 80 185.5t184 64.5q90 0 135 -32t45 -103q0 -94 -74 -132t-189 -38q-51 0 -95 5.5t-68 12.5q-5 -34 -5 -81q0 -83 46 -120t152 -37h154l-3 -16q-102 -6 -153 -6q-114 0 -167 43.5zM459 289.5q67 31.5 67 114.5
q0 62 -38.5 88.5t-119.5 26.5q-116 0 -170 -61.5t-72 -187.5q62 -12 143 -12q123 0 190 31.5zM509 764h26l-154 -133h-14z" />
    <glyph glyph-name="ecircumflex" unicode="&#xea;" horiz-adv-x="548" 
d="M148 37.5q-53 43.5 -53 133.5q0 52 11 120q17 121 80 185.5t184 64.5q90 0 135 -32t45 -103q0 -94 -74 -132t-189 -38q-51 0 -95 5.5t-68 12.5q-5 -34 -5 -81q0 -83 46 -120t152 -37h154l-3 -16q-102 -6 -153 -6q-114 0 -167 43.5zM459 289.5q67 31.5 67 114.5
q0 62 -38.5 88.5t-119.5 26.5q-116 0 -170 -61.5t-72 -187.5q62 -12 143 -12q123 0 190 31.5zM404 761h20l99 -130h-18l-94 115l-142 -115h-18z" />
    <glyph glyph-name="edieresis" unicode="&#xeb;" horiz-adv-x="548" 
d="M148 37.5q-53 43.5 -53 133.5q0 52 11 120q17 121 80 185.5t184 64.5q90 0 135 -32t45 -103q0 -94 -74 -132t-189 -38q-51 0 -95 5.5t-68 12.5q-5 -34 -5 -81q0 -83 46 -120t152 -37h154l-3 -16q-102 -6 -153 -6q-114 0 -167 43.5zM459 289.5q67 31.5 67 114.5
q0 62 -38.5 88.5t-119.5 26.5q-116 0 -170 -61.5t-72 -187.5q62 -12 143 -12q123 0 190 31.5zM251 676l10 64q1 12 15 12h11q10 0 10 -9q0 4 -11 -65q-2 -12 -14 -12h-11q-10 0 -10 10zM459 676l10 64q1 12 15 12h11q10 0 10 -9q0 4 -11 -65q-2 -12 -14 -12h-11
q-10 0 -10 10z" />
    <glyph glyph-name="igrave" unicode="&#xec;" horiz-adv-x="184" 
d="M164 531h24l-84 -531h-24zM102 764h26l100 -133h-14z" />
    <glyph glyph-name="iacute" unicode="&#xed;" horiz-adv-x="184" 
d="M164 531h24l-84 -531h-24zM323 764h26l-154 -133h-14z" />
    <glyph glyph-name="icircumflex" unicode="&#xee;" horiz-adv-x="184" 
d="M164 531h24l-84 -531h-24zM218 761h20l99 -130h-18l-94 115l-142 -115h-18z" />
    <glyph glyph-name="idieresis" unicode="&#xef;" horiz-adv-x="184" 
d="M164 531h24l-84 -531h-24zM65 676l10 64q1 12 15 12h11q10 0 10 -9q0 4 -11 -65q-2 -12 -14 -12h-11q-10 0 -10 10zM273 676l10 64q1 12 15 12h11q10 0 10 -9q0 4 -11 -65q-2 -12 -14 -12h-11q-10 0 -10 10z" />
    <glyph glyph-name="eth" unicode="&#xf0;" 
d="M556 440q0 -82 -14 -172v-2q-17 -106 -47.5 -164.5t-81.5 -83t-134 -24.5q-87 0 -136 40.5t-49 135.5q0 39 8 95q17 106 48 165t82 83t133 24q146 0 170 -123v21q0 168 -85 242l-155 -57l-3 14l145 54q-67 51 -181 53l4 22q125 -2 201 -66l157 58l3 -14l-149 -55
q84 -82 84 -246zM399 35q44 19 73 72.5t45 156.5q8 51 8 92q0 85 -39 122t-126 37q-74 0 -118 -21t-71.5 -76t-44.5 -160q-8 -54 -8 -88q0 -89 42.5 -121.5t123.5 -32.5q71 0 115 19z" />
    <glyph glyph-name="ntilde" unicode="&#xf1;" horiz-adv-x="564" 
d="M164 531h16l-2 -62q51 32 110.5 51.5t117.5 19.5q75 0 107.5 -35t32.5 -94q0 -20 -9 -79l-53 -332h-24l52 331q10 65 10 78q0 109 -120 109q-63 0 -112 -15t-114 -50l-72 -453h-24zM277 728.5q29 21.5 66 21.5q21 0 39.5 -9.5t41.5 -28.5q22 -17 38.5 -26t35.5 -9
q32 0 54.5 19t28.5 54h14q-6 -40 -32.5 -64.5t-68.5 -24.5q-19 0 -35.5 9t-39.5 27q-27 19 -43.5 28t-37.5 9q-31 0 -54 -18t-29 -55h-14q7 46 36 67.5z" />
    <glyph glyph-name="ograve" unicode="&#xf2;" 
d="M143 34.5q-49 40.5 -49 135.5q0 39 8 95q17 106 48 165t82 83t133 24q97 0 141 -45t44 -136q0 -40 -10 -105q-16 -98 -46 -153.5t-81.5 -79.5t-133.5 -24q-87 0 -136 40.5zM399 35q44 19 72.5 71t44.5 152q9 57 9 98q0 86 -37.5 122.5t-127.5 36.5q-74 0 -118 -21
t-71.5 -76t-44.5 -160q-8 -54 -8 -88q0 -89 42.5 -121.5t123.5 -32.5q71 0 115 19zM284 764h26l100 -133h-14z" />
    <glyph glyph-name="oacute" unicode="&#xf3;" 
d="M143 34.5q-49 40.5 -49 135.5q0 39 8 95q17 106 48 165t82 83t133 24q97 0 141 -45t44 -136q0 -40 -10 -105q-16 -98 -46 -153.5t-81.5 -79.5t-133.5 -24q-87 0 -136 40.5zM399 35q44 19 72.5 71t44.5 152q9 57 9 98q0 86 -37.5 122.5t-127.5 36.5q-74 0 -118 -21
t-71.5 -76t-44.5 -160q-8 -54 -8 -88q0 -89 42.5 -121.5t123.5 -32.5q71 0 115 19zM505 764h26l-154 -133h-14z" />
    <glyph glyph-name="ocircumflex" unicode="&#xf4;" 
d="M143 34.5q-49 40.5 -49 135.5q0 39 8 95q17 106 48 165t82 83t133 24q97 0 141 -45t44 -136q0 -40 -10 -105q-16 -98 -46 -153.5t-81.5 -79.5t-133.5 -24q-87 0 -136 40.5zM399 35q44 19 72.5 71t44.5 152q9 57 9 98q0 86 -37.5 122.5t-127.5 36.5q-74 0 -118 -21
t-71.5 -76t-44.5 -160q-8 -54 -8 -88q0 -89 42.5 -121.5t123.5 -32.5q71 0 115 19zM400 761h20l99 -130h-18l-94 115l-142 -115h-18z" />
    <glyph glyph-name="otilde" unicode="&#xf5;" 
d="M143 34.5q-49 40.5 -49 135.5q0 39 8 95q17 106 48 165t82 83t133 24q97 0 141 -45t44 -136q0 -40 -10 -105q-16 -98 -46 -153.5t-81.5 -79.5t-133.5 -24q-87 0 -136 40.5zM399 35q44 19 72.5 71t44.5 152q9 57 9 98q0 86 -37.5 122.5t-127.5 36.5q-74 0 -118 -21
t-71.5 -76t-44.5 -160q-8 -54 -8 -88q0 -89 42.5 -121.5t123.5 -32.5q71 0 115 19zM269 728.5q29 21.5 66 21.5q21 0 39.5 -9.5t41.5 -28.5q22 -17 38.5 -26t35.5 -9q32 0 54.5 19t28.5 54h14q-6 -40 -32.5 -64.5t-68.5 -24.5q-19 0 -35.5 9t-39.5 27q-27 19 -43.5 28
t-37.5 9q-31 0 -54 -18t-29 -55h-14q7 46 36 67.5z" />
    <glyph glyph-name="odieresis" unicode="&#xf6;" 
d="M143 34.5q-49 40.5 -49 135.5q0 39 8 95q17 106 48 165t82 83t133 24q97 0 141 -45t44 -136q0 -40 -10 -105q-16 -98 -46 -153.5t-81.5 -79.5t-133.5 -24q-87 0 -136 40.5zM399 35q44 19 72.5 71t44.5 152q9 57 9 98q0 86 -37.5 122.5t-127.5 36.5q-74 0 -118 -21
t-71.5 -76t-44.5 -160q-8 -54 -8 -88q0 -89 42.5 -121.5t123.5 -32.5q71 0 115 19zM247 676l10 64q1 12 15 12h11q10 0 10 -9q0 4 -11 -65q-2 -12 -14 -12h-11q-10 0 -10 10zM455 676l10 64q1 12 15 12h11q10 0 10 -9q0 4 -11 -65q-2 -12 -14 -12h-11q-10 0 -10 10z" />
    <glyph glyph-name="divide" unicode="&#xf7;" horiz-adv-x="609" 
d="M362.5 519.5q-5.5 6.5 -3.5 16.5l4 27q2 11 9 18t19 7h12q24 0 21 -25l-4 -27q-4 -23 -29 -23h-12q-11 0 -16.5 6.5zM139 368h448l-4 -24h-448zM301 130.5q-5 6.5 -4 16.5l4 27q5 25 28 25h12q26 0 21 -25l-4 -27q-4 -23 -29 -23h-12q-11 0 -16 6.5z" />
    <glyph glyph-name="oslash" unicode="&#xf8;" 
d="M521 473q29 -42 29 -117q0 -40 -10 -105q-16 -98 -46 -153.5t-81.5 -79.5t-133.5 -24q-101 0 -146 51l-41 -45h-22l52 58q-28 40 -28 112q0 39 8 95q17 106 48 165t82 83t133 24q102 0 146 -51l41 45h22zM138 75l358 394q-19 24 -52 35t-84 11q-74 0 -118 -21t-71.5 -76
t-44.5 -160q-8 -54 -8 -88q0 -60 20 -95zM505 455l-357 -393q20 -25 54.5 -35.5t81.5 -10.5q71 0 115 19t72.5 71t44.5 152q9 57 9 98q0 65 -20 99z" />
    <glyph glyph-name="ugrave" unicode="&#xf9;" horiz-adv-x="564" 
d="M138 26.5q-36 32.5 -36 89.5q0 25 4 51l58 364h24l-58 -369q-4 -24 -4 -41q0 -51 28.5 -78t91.5 -27q61 0 111 14.5t115 47.5l72 453h24l-84 -531h-16l2 62q-56 -33 -109 -50.5t-118 -17.5q-69 0 -105 32.5zM290 764h26l100 -133h-14z" />
    <glyph glyph-name="uacute" unicode="&#xfa;" horiz-adv-x="564" 
d="M138 26.5q-36 32.5 -36 89.5q0 25 4 51l58 364h24l-58 -369q-4 -24 -4 -41q0 -51 28.5 -78t91.5 -27q61 0 111 14.5t115 47.5l72 453h24l-84 -531h-16l2 62q-56 -33 -109 -50.5t-118 -17.5q-69 0 -105 32.5zM511 764h26l-154 -133h-14z" />
    <glyph glyph-name="ucircumflex" unicode="&#xfb;" horiz-adv-x="564" 
d="M138 26.5q-36 32.5 -36 89.5q0 25 4 51l58 364h24l-58 -369q-4 -24 -4 -41q0 -51 28.5 -78t91.5 -27q61 0 111 14.5t115 47.5l72 453h24l-84 -531h-16l2 62q-56 -33 -109 -50.5t-118 -17.5q-69 0 -105 32.5zM406 761h20l99 -130h-18l-94 115l-142 -115h-18z" />
    <glyph glyph-name="udieresis" unicode="&#xfc;" horiz-adv-x="564" 
d="M138 26.5q-36 32.5 -36 89.5q0 25 4 51l58 364h24l-58 -369q-4 -24 -4 -41q0 -51 28.5 -78t91.5 -27q61 0 111 14.5t115 47.5l72 453h24l-84 -531h-16l2 62q-56 -33 -109 -50.5t-118 -17.5q-69 0 -105 32.5zM253 676l10 64q1 12 15 12h11q10 0 10 -9q0 4 -11 -65
q-2 -12 -14 -12h-11q-10 0 -10 10zM461 676l10 64q1 12 15 12h11q10 0 10 -9q0 4 -11 -65q-2 -12 -14 -12h-11q-10 0 -10 10z" />
    <glyph glyph-name="yacute" unicode="&#xfd;" horiz-adv-x="543" 
d="M97 -215q45 11 97 63.5t99 151.5q-27 3 -45.5 10.5t-35 31t-25.5 68.5l-83 421h24l82 -415q10 -53 33 -70.5t62 -20.5l205 429q25 55 28 85h16q0 -50 -21 -93l-213 -445q-57 -119 -109.5 -172.5t-113.5 -65.5v22zM471 764h26l-154 -133h-14z" />
    <glyph glyph-name="thorn" unicode="&#xfe;" 
d="M201 763h24l-37 -232q69 6 197 6q80 0 123 -43.5t43 -132.5q0 -44 -10 -100q-20 -129 -77 -198t-171 -69q-54 0 -97 9t-87 30l-43 -270h-24zM446.5 77.5q49.5 61.5 70.5 190.5q10 63 10 92q0 156 -143 155l-199 -2l-73 -464q60 -20 94.5 -26.5t87.5 -6.5
q103 0 152.5 61.5z" />
    <glyph glyph-name="ydieresis" unicode="&#xff;" horiz-adv-x="543" 
d="M97 -215q45 11 97 63.5t99 151.5q-27 3 -45.5 10.5t-35 31t-25.5 68.5l-83 421h24l82 -415q10 -53 33 -70.5t62 -20.5l205 429q25 55 28 85h16q0 -50 -21 -93l-213 -445q-57 -119 -109.5 -172.5t-113.5 -65.5v22zM213 676l10 64q1 12 15 12h11q10 0 10 -9q0 4 -11 -65
q-2 -12 -14 -12h-11q-10 0 -10 10zM421 676l10 64q1 12 15 12h11q10 0 10 -9q0 4 -11 -65q-2 -12 -14 -12h-11q-10 0 -10 10z" />
    <glyph glyph-name="Amacron" unicode="&#x100;" horiz-adv-x="660" 
d="M435 732h34l146 -732h-25l-51 254h-333l-136 -254h-25zM535 276l-87 430l-230 -430h317zM338 866h252l-3 -15h-252z" />
    <glyph glyph-name="amacron" unicode="&#x101;" horiz-adv-x="559" 
d="M138 38q-46 44 -46 133q0 37 10 97q22 142 83 205.5t184 63.5q51 0 103 -13.5t83 -42.5l-76 -481h-16l2 59q-30 -20 -92.5 -42.5t-113.5 -22.5q-75 0 -121 44zM357 30.5q45 14.5 110 44.5l63 401q-24 15 -67 27t-96 12q-80 0 -127.5 -26t-73.5 -81t-41 -150
q-9 -57 -9 -86q0 -79 38 -117.5t104 -38.5q54 0 99 14.5zM272 706h252l-3 -15h-252z" />
    <glyph glyph-name="Abreve" unicode="&#x102;" horiz-adv-x="660" 
d="M435 732h34l146 -732h-25l-51 254h-333l-136 -254h-25zM535 276l-87 430l-230 -430h317zM377 816.5q-30 23.5 -30 77.5q0 9 2 33h14q-2 -22 -2 -30q0 -46 25 -68t66 -22q50 0 86.5 28.5t46.5 91.5h14q-12 -74 -52.5 -104t-94.5 -30q-45 0 -75 23.5z" />
    <glyph glyph-name="abreve" unicode="&#x103;" horiz-adv-x="559" 
d="M138 38q-46 44 -46 133q0 37 10 97q22 142 83 205.5t184 63.5q51 0 103 -13.5t83 -42.5l-76 -481h-16l2 59q-30 -20 -92.5 -42.5t-113.5 -22.5q-75 0 -121 44zM357 30.5q45 14.5 110 44.5l63 401q-24 15 -67 27t-96 12q-80 0 -127.5 -26t-73.5 -81t-41 -150
q-9 -57 -9 -86q0 -79 38 -117.5t104 -38.5q54 0 99 14.5zM311 656.5q-30 23.5 -30 77.5q0 9 2 33h14q-2 -22 -2 -30q0 -46 25 -68t66 -22q50 0 86.5 28.5t46.5 91.5h14q-12 -74 -52.5 -104t-94.5 -30q-45 0 -75 23.5z" />
    <glyph glyph-name="Aogonek" unicode="&#x104;" horiz-adv-x="660" 
d="M435 732h34l146 -732h-25l-51 254h-333l-136 -254h-25zM535 276l-87 430l-230 -430h317zM517 -162.5q-25 19.5 -25 53.5q0 27 23.5 57.5t74.5 51.5h12q-43 -20 -67 -50t-24 -55q0 -30 23 -46t69 -16h5l-3 -14q-8 -1 -21 -1q-42 0 -67 19.5z" />
    <glyph glyph-name="aogonek" unicode="&#x105;" horiz-adv-x="559" 
d="M411 -151q23 -16 69 -16h5l-3 -14q-8 -1 -21 -1q-42 0 -67 19.5t-25 53.5q0 27 23.5 57.5t74.5 51.5h-4l2 59q-30 -20 -92.5 -42.5t-113.5 -22.5q-75 0 -121 44t-46 133q0 37 10 97q22 142 83 205.5t184 63.5q51 0 103 -13.5t83 -42.5l-76 -481q-43 -20 -67 -50t-24 -55
q0 -30 23 -46zM357 30.5q45 14.5 110 44.5l63 401q-24 15 -67 27t-96 12q-80 0 -127.5 -26t-73.5 -81t-41 -150q-9 -57 -9 -86q0 -79 38 -117.5t104 -38.5q54 0 99 14.5z" />
    <glyph glyph-name="Cacute" unicode="&#x106;" horiz-adv-x="589" 
d="M158.5 47.5q-44.5 53.5 -44.5 162.5q0 70 16 166q28 180 96 271t192 91q62 0 109 -5.5t105 -16.5l-4 -16q-109 16 -212 16q-76 0 -126.5 -38t-82.5 -114t-53 -198q-15 -88 -15 -155q0 -104 39 -149.5t129 -45.5q75 0 122.5 3.5t91.5 10.5l-3 -16q-98 -20 -216 -20
q-99 0 -143.5 53.5zM547 924h26l-154 -133h-14z" />
    <glyph glyph-name="cacute" unicode="&#x107;" horiz-adv-x="485" 
d="M139.5 34q-46.5 40 -46.5 146q0 33 10 93q22 138 83.5 201t162.5 63q69 0 167 -6l-4 -16h-165q-88 0 -143.5 -55t-77.5 -198q-9 -58 -9 -82q0 -65 18 -101t53 -49.5t91 -13.5h168l-2 -16q-82 -6 -170 -6q-89 0 -135.5 40zM481 764h26l-154 -133h-14z" />
    <glyph glyph-name="Ccircumflex" unicode="&#x108;" horiz-adv-x="589" 
d="M158.5 47.5q-44.5 53.5 -44.5 162.5q0 70 16 166q28 180 96 271t192 91q62 0 109 -5.5t105 -16.5l-4 -16q-109 16 -212 16q-76 0 -126.5 -38t-82.5 -114t-53 -198q-15 -88 -15 -155q0 -104 39 -149.5t129 -45.5q75 0 122.5 3.5t91.5 10.5l-3 -16q-98 -20 -216 -20
q-99 0 -143.5 53.5zM432 921h20l99 -130h-18l-94 115l-142 -115h-18z" />
    <glyph glyph-name="ccircumflex" unicode="&#x109;" horiz-adv-x="485" 
d="M139.5 34q-46.5 40 -46.5 146q0 33 10 93q22 138 83.5 201t162.5 63q69 0 167 -6l-4 -16h-165q-88 0 -143.5 -55t-77.5 -198q-9 -58 -9 -82q0 -65 18 -101t53 -49.5t91 -13.5h168l-2 -16q-82 -6 -170 -6q-89 0 -135.5 40zM376 761h20l99 -130h-18l-94 115l-142 -115h-18z
" />
    <glyph glyph-name="Cdotaccent" unicode="&#x10a;" horiz-adv-x="589" 
d="M158.5 47.5q-44.5 53.5 -44.5 162.5q0 70 16 166q28 180 96 271t192 91q62 0 109 -5.5t105 -16.5l-4 -16q-109 16 -212 16q-76 0 -126.5 -38t-82.5 -114t-53 -198q-15 -88 -15 -155q0 -104 39 -149.5t129 -45.5q75 0 122.5 3.5t91.5 10.5l-3 -16q-98 -20 -216 -20
q-99 0 -143.5 53.5zM416 843v2l10 62q1 12 14 12h11q10 0 10 -9v-3l-10 -62q-2 -12 -14 -12h-11q-10 0 -10 10z" />
    <glyph glyph-name="cdotaccent" unicode="&#x10b;" horiz-adv-x="485" 
d="M139.5 34q-46.5 40 -46.5 146q0 33 10 93q22 138 83.5 201t162.5 63q69 0 167 -6l-4 -16h-165q-88 0 -143.5 -55t-77.5 -198q-9 -58 -9 -82q0 -65 18 -101t53 -49.5t91 -13.5h168l-2 -16q-82 -6 -170 -6q-89 0 -135.5 40zM343 683v2l10 62q1 12 14 12h11q10 0 10 -9v-3
l-10 -62q-2 -12 -14 -12h-11q-10 0 -10 10z" />
    <glyph glyph-name="Ccaron" unicode="&#x10c;" horiz-adv-x="589" 
d="M158.5 47.5q-44.5 53.5 -44.5 162.5q0 70 16 166q28 180 96 271t192 91q62 0 109 -5.5t105 -16.5l-4 -16q-109 16 -212 16q-76 0 -126.5 -38t-82.5 -114t-53 -198q-15 -88 -15 -155q0 -104 39 -149.5t129 -45.5q75 0 122.5 3.5t91.5 10.5l-3 -16q-98 -20 -216 -20
q-99 0 -143.5 53.5zM330 921h18l93 -115l143 115h18l-153 -130h-20z" />
    <glyph glyph-name="ccaron" unicode="&#x10d;" horiz-adv-x="485" 
d="M139.5 34q-46.5 40 -46.5 146q0 33 10 93q22 138 83.5 201t162.5 63q69 0 167 -6l-4 -16h-165q-88 0 -143.5 -55t-77.5 -198q-9 -58 -9 -82q0 -65 18 -101t53 -49.5t91 -13.5h168l-2 -16q-82 -6 -170 -6q-89 0 -135.5 40zM254 761h18l93 -115l143 115h18l-153 -130h-20z
" />
    <glyph glyph-name="Dcaron" unicode="&#x10e;" horiz-adv-x="663" 
d="M196 732h252q116 0 164.5 -62t48.5 -192q0 -47 -12 -123q-25 -159 -100 -257t-210 -98h-259zM338 22q126 0 195 95t93 247q11 68 11 117q0 78 -17 127.5t-59.5 75.5t-117.5 26h-227l-109 -688h231zM320 921h18l93 -115l143 115h18l-153 -130h-20z" />
    <glyph glyph-name="dcaron" unicode="&#x10f;" 
d="M138 38q-45 44 -45 127q0 55 10 106q17 90 43.5 146.5t79.5 88t142 31.5q49 0 89 -9t78 -30l42 265h24l-121 -763h-16l2 59q-47 -27 -102 -46t-111 -19q-70 0 -115 44zM357.5 31.5q51.5 15.5 110.5 43.5l63 401q-37 20 -76 29.5t-89 9.5q-81 0 -128 -27t-71 -80t-40 -145
q-10 -58 -10 -92q0 -79 37.5 -117t97.5 -38q54 0 105.5 15.5zM654 724l10 67h25l-10 -67l-29 -158h-12z" />
    <glyph glyph-name="Dcroat" unicode="&#x110;" horiz-adv-x="663" 
d="M612.5 670q48.5 -62 48.5 -192q0 -47 -12 -123q-25 -159 -100 -257t-210 -98h-259l57 362h-75l4 22h75l55 348h252q116 0 164.5 -62zM637 481q0 78 -17 127.5t-59.5 75.5t-117.5 26h-227l-52 -326h226l-4 -22h-225l-54 -340h231q126 0 195 95t93 247q11 68 11 117z" />
    <glyph glyph-name="dcroat" unicode="&#x111;" horiz-adv-x="568" 
d="M658 640h-77l-101 -640h-16l2 59q-47 -27 -102 -46t-111 -19q-70 0 -115 44t-45 127q0 55 10 106q17 90 43.5 146.5t79.5 88t142 31.5q49 0 89 -9t78 -30l23 142h-158l3 16h157l17 107h24l-17 -107h77zM531 476q-37 20 -76 29.5t-89 9.5q-81 0 -128 -27t-71 -80t-40 -145
q-10 -58 -10 -92q0 -79 37.5 -117t97.5 -38q54 0 105.5 15.5t110.5 43.5z" />
    <glyph glyph-name="Emacron" unicode="&#x112;" horiz-adv-x="565" 
d="M97 94q0 15 3 34l76 479q11 68 51 97t95 28l297 -6l-3 -16h-297q-49 0 -80 -25t-40 -83l-36 -227l359 -6l-3 -16l-360 -2l-35 -228q-3 -16 -3 -30q0 -45 25.5 -61t73.5 -16h288l-3 -16l-289 -6q-119 -2 -119 100zM308 866h252l-3 -15h-252z" />
    <glyph glyph-name="emacron" unicode="&#x113;" horiz-adv-x="548" 
d="M148 37.5q-53 43.5 -53 133.5q0 52 11 120q17 121 80 185.5t184 64.5q90 0 135 -32t45 -103q0 -94 -74 -132t-189 -38q-51 0 -95 5.5t-68 12.5q-5 -34 -5 -81q0 -83 46 -120t152 -37h154l-3 -16q-102 -6 -153 -6q-114 0 -167 43.5zM459 289.5q67 31.5 67 114.5
q0 62 -38.5 88.5t-119.5 26.5q-116 0 -170 -61.5t-72 -187.5q62 -12 143 -12q123 0 190 31.5zM270 706h252l-3 -15h-252z" />
    <glyph glyph-name="Ebreve" unicode="&#x114;" horiz-adv-x="565" 
d="M97 94q0 15 3 34l76 479q11 68 51 97t95 28l297 -6l-3 -16h-297q-49 0 -80 -25t-40 -83l-36 -227l359 -6l-3 -16l-360 -2l-35 -228q-3 -16 -3 -30q0 -45 25.5 -61t73.5 -16h288l-3 -16l-289 -6q-119 -2 -119 100zM347 816.5q-30 23.5 -30 77.5q0 9 2 33h14q-2 -22 -2 -30
q0 -46 25 -68t66 -22q50 0 86.5 28.5t46.5 91.5h14q-12 -74 -52.5 -104t-94.5 -30q-45 0 -75 23.5z" />
    <glyph glyph-name="ebreve" unicode="&#x115;" horiz-adv-x="548" 
d="M148 37.5q-53 43.5 -53 133.5q0 52 11 120q17 121 80 185.5t184 64.5q90 0 135 -32t45 -103q0 -94 -74 -132t-189 -38q-51 0 -95 5.5t-68 12.5q-5 -34 -5 -81q0 -83 46 -120t152 -37h154l-3 -16q-102 -6 -153 -6q-114 0 -167 43.5zM459 289.5q67 31.5 67 114.5
q0 62 -38.5 88.5t-119.5 26.5q-116 0 -170 -61.5t-72 -187.5q62 -12 143 -12q123 0 190 31.5zM309 656.5q-30 23.5 -30 77.5q0 9 2 33h14q-2 -22 -2 -30q0 -46 25 -68t66 -22q50 0 86.5 28.5t46.5 91.5h14q-12 -74 -52.5 -104t-94.5 -30q-45 0 -75 23.5z" />
    <glyph glyph-name="Edotaccent" unicode="&#x116;" horiz-adv-x="565" 
d="M97 94q0 15 3 34l76 479q11 68 51 97t95 28l297 -6l-3 -16h-297q-49 0 -80 -25t-40 -83l-36 -227l359 -6l-3 -16l-360 -2l-35 -228q-3 -16 -3 -30q0 -45 25.5 -61t73.5 -16h288l-3 -16l-289 -6q-119 -2 -119 100zM416 843v2l10 62q1 12 14 12h11q10 0 10 -9v-3l-10 -62
q-2 -12 -14 -12h-11q-10 0 -10 10z" />
    <glyph glyph-name="edotaccent" unicode="&#x117;" horiz-adv-x="548" 
d="M148 37.5q-53 43.5 -53 133.5q0 52 11 120q17 121 80 185.5t184 64.5q90 0 135 -32t45 -103q0 -94 -74 -132t-189 -38q-51 0 -95 5.5t-68 12.5q-5 -34 -5 -81q0 -83 46 -120t152 -37h154l-3 -16q-102 -6 -153 -6q-114 0 -167 43.5zM459 289.5q67 31.5 67 114.5
q0 62 -38.5 88.5t-119.5 26.5q-116 0 -170 -61.5t-72 -187.5q62 -12 143 -12q123 0 190 31.5zM371 683v2l10 62q1 12 14 12h11q10 0 10 -9v-3l-10 -62q-2 -12 -14 -12h-11q-10 0 -10 10z" />
    <glyph glyph-name="Eogonek" unicode="&#x118;" horiz-adv-x="565" 
d="M239 685q-31 -25 -40 -83l-36 -227l359 -6l-3 -16l-360 -2l-35 -228q-3 -16 -3 -30q0 -45 25.5 -61t73.5 -16h288l-3 -16q-43 -20 -67 -50t-24 -55q0 -30 23 -46t69 -16h5l-3 -14q-8 -1 -21 -1q-42 0 -67 19.5t-25 53.5q0 27 23.5 57.5t73.5 51.5l-276 -6
q-119 -2 -119 100q0 15 3 34l76 479q11 68 51 97t95 28l297 -6l-3 -16h-297q-49 0 -80 -25z" />
    <glyph glyph-name="eogonek" unicode="&#x119;" horiz-adv-x="548" 
d="M192 241.5q-44 5.5 -68 12.5q-5 -34 -5 -81q0 -83 46 -120t152 -37h154l-3 -16q-43 -20 -67 -50t-24 -55q0 -30 23 -46t69 -16h5l-3 -14q-8 -1 -21 -1q-42 0 -67 19.5t-25 53.5q0 26 23.5 56.5t72.5 51.5q-87 -5 -139 -5q-114 0 -167 43.5t-53 133.5q0 52 11 120
q17 121 80 185.5t184 64.5q90 0 135 -32t45 -103q0 -94 -74 -132t-189 -38q-51 0 -95 5.5zM198 457.5q-54 -61.5 -72 -187.5q62 -12 143 -12q123 0 190 31.5t67 114.5q0 62 -38.5 88.5t-119.5 26.5q-116 0 -170 -61.5z" />
    <glyph glyph-name="Ecaron" unicode="&#x11a;" horiz-adv-x="565" 
d="M97 94q0 15 3 34l76 479q11 68 51 97t95 28l297 -6l-3 -16h-297q-49 0 -80 -25t-40 -83l-36 -227l359 -6l-3 -16l-360 -2l-35 -228q-3 -16 -3 -30q0 -45 25.5 -61t73.5 -16h288l-3 -16l-289 -6q-119 -2 -119 100zM330 921h18l93 -115l143 115h18l-153 -130h-20z" />
    <glyph glyph-name="ecaron" unicode="&#x11b;" horiz-adv-x="548" 
d="M148 37.5q-53 43.5 -53 133.5q0 52 11 120q17 121 80 185.5t184 64.5q90 0 135 -32t45 -103q0 -94 -74 -132t-189 -38q-51 0 -95 5.5t-68 12.5q-5 -34 -5 -81q0 -83 46 -120t152 -37h154l-3 -16q-102 -6 -153 -6q-114 0 -167 43.5zM459 289.5q67 31.5 67 114.5
q0 62 -38.5 88.5t-119.5 26.5q-116 0 -170 -61.5t-72 -187.5q62 -12 143 -12q123 0 190 31.5zM282 761h18l93 -115l143 115h18l-153 -130h-20z" />
    <glyph glyph-name="Gcircumflex" unicode="&#x11c;" horiz-adv-x="636" 
d="M159 47q-44 53 -44 170q0 60 15 160q27 175 95.5 269t201.5 94q68 0 120.5 -8t103.5 -22l-2 -16q-113 24 -226 24q-119 0 -180.5 -88t-88.5 -262q-15 -93 -15 -159q0 -102 39.5 -147.5t129.5 -45.5q51 0 124.5 18t110.5 35l44 278h-214l2 16q24 4 69.5 5t101.5 1
q32 0 68 -3l-58 -366h-16l2 53q-37 -17 -109.5 -38t-128.5 -21q-101 0 -145 53zM452 921h20l99 -130h-18l-94 115l-142 -115h-18z" />
    <glyph glyph-name="gcircumflex" unicode="&#x11d;" horiz-adv-x="559" 
d="M63 -232l3 16h156q85 0 147.5 37.5t75.5 112.5l21 125q-54 -33 -111.5 -49t-110.5 -16q-39 0 -73.5 19t-55.5 57.5t-21 93.5q0 46 10 111q14 89 43 146t84 86.5t146 29.5q100 0 186 -13l-94 -592q-11 -66 -53 -104t-95 -52.5t-103 -12.5zM351.5 29.5
q50.5 13.5 116.5 45.5l68 433l-67 3q-76 4 -112 4q-105 0 -157 -58.5t-72 -185.5q-10 -67 -10 -105q0 -74 36 -112t93 -38q54 0 104.5 13.5zM406 761h20l99 -130h-18l-94 115l-142 -115h-18z" />
    <glyph glyph-name="Gbreve" unicode="&#x11e;" horiz-adv-x="636" 
d="M159 47q-44 53 -44 170q0 60 15 160q27 175 95.5 269t201.5 94q68 0 120.5 -8t103.5 -22l-2 -16q-113 24 -226 24q-119 0 -180.5 -88t-88.5 -262q-15 -93 -15 -159q0 -102 39.5 -147.5t129.5 -45.5q51 0 124.5 18t110.5 35l44 278h-214l2 16q24 4 69.5 5t101.5 1
q32 0 68 -3l-58 -366h-16l2 53q-37 -17 -109.5 -38t-128.5 -21q-101 0 -145 53zM367 816.5q-30 23.5 -30 77.5q0 9 2 33h14q-2 -22 -2 -30q0 -46 25 -68t66 -22q50 0 86.5 28.5t46.5 91.5h14q-12 -74 -52.5 -104t-94.5 -30q-45 0 -75 23.5z" />
    <glyph glyph-name="gbreve" unicode="&#x11f;" horiz-adv-x="559" 
d="M63 -232l3 16h156q85 0 147.5 37.5t75.5 112.5l21 125q-54 -33 -111.5 -49t-110.5 -16q-39 0 -73.5 19t-55.5 57.5t-21 93.5q0 46 10 111q14 89 43 146t84 86.5t146 29.5q100 0 186 -13l-94 -592q-11 -66 -53 -104t-95 -52.5t-103 -12.5zM351.5 29.5
q50.5 13.5 116.5 45.5l68 433l-67 3q-76 4 -112 4q-105 0 -157 -58.5t-72 -185.5q-10 -67 -10 -105q0 -74 36 -112t93 -38q54 0 104.5 13.5zM311 656.5q-30 23.5 -30 77.5q0 9 2 33h14q-2 -22 -2 -30q0 -46 25 -68t66 -22q50 0 86.5 28.5t46.5 91.5h14q-12 -74 -52.5 -104
t-94.5 -30q-45 0 -75 23.5z" />
    <glyph glyph-name="Gdotaccent" unicode="&#x120;" horiz-adv-x="636" 
d="M159 47q-44 53 -44 170q0 60 15 160q27 175 95.5 269t201.5 94q68 0 120.5 -8t103.5 -22l-2 -16q-113 24 -226 24q-119 0 -180.5 -88t-88.5 -262q-15 -93 -15 -159q0 -102 39.5 -147.5t129.5 -45.5q51 0 124.5 18t110.5 35l44 278h-214l2 16q24 4 69.5 5t101.5 1
q32 0 68 -3l-58 -366h-16l2 53q-37 -17 -109.5 -38t-128.5 -21q-101 0 -145 53zM436 843v2l10 62q1 12 14 12h11q10 0 10 -9v-3l-10 -62q-2 -12 -14 -12h-11q-10 0 -10 10z" />
    <glyph glyph-name="gdotaccent" unicode="&#x121;" horiz-adv-x="559" 
d="M63 -232l3 16h156q85 0 147.5 37.5t75.5 112.5l21 125q-54 -33 -111.5 -49t-110.5 -16q-39 0 -73.5 19t-55.5 57.5t-21 93.5q0 46 10 111q14 89 43 146t84 86.5t146 29.5q100 0 186 -13l-94 -592q-11 -66 -53 -104t-95 -52.5t-103 -12.5zM351.5 29.5
q50.5 13.5 116.5 45.5l68 433l-67 3q-76 4 -112 4q-105 0 -157 -58.5t-72 -185.5q-10 -67 -10 -105q0 -74 36 -112t93 -38q54 0 104.5 13.5zM373 683v2l10 62q1 12 14 12h11q10 0 10 -9v-3l-10 -62q-2 -12 -14 -12h-11q-10 0 -10 10z" />
    <glyph glyph-name="Gcommaaccent" unicode="&#x122;" horiz-adv-x="636" 
d="M159 47q-44 53 -44 170q0 60 15 160q27 175 95.5 269t201.5 94q68 0 120.5 -8t103.5 -22l-2 -16q-113 24 -226 24q-119 0 -180.5 -88t-88.5 -262q-15 -93 -15 -159q0 -102 39.5 -147.5t129.5 -45.5q51 0 124.5 18t110.5 35l44 278h-214l2 16q24 4 69.5 5t101.5 1
q32 0 68 -3l-58 -366h-16l2 53q-37 -17 -109.5 -38t-128.5 -21q-101 0 -145 53zM225 -181l32 3q32 3 50 11.5t31.5 34t20.5 77.5h17q-8 -53 -21 -81.5t-37.5 -41.5t-67.5 -13h-27z" />
    <glyph glyph-name="gcommaaccent" unicode="&#x123;" horiz-adv-x="559" 
d="M63 -232l3 16h156q85 0 147.5 37.5t75.5 112.5l21 125q-54 -33 -111.5 -49t-110.5 -16q-39 0 -73.5 19t-55.5 57.5t-21 93.5q0 46 10 111q14 89 43 146t84 86.5t146 29.5q100 0 186 -13l-94 -592q-11 -66 -53 -104t-95 -52.5t-103 -12.5zM351.5 29.5
q50.5 13.5 116.5 45.5l68 433l-67 3q-76 4 -112 4q-105 0 -157 -58.5t-72 -185.5q-10 -67 -10 -105q0 -74 36 -112t93 -38q54 0 104.5 13.5zM356 690.5q13 28.5 37.5 41.5t67.5 13h27l-2 -10l-32 -3q-32 -3 -50 -11.5t-31.5 -34t-20.5 -77.5h-17q8 53 21 81.5z" />
    <glyph glyph-name="Hcircumflex" unicode="&#x124;" horiz-adv-x="646" 
d="M196 732h24l-58 -367h438l58 367h24l-116 -732h-24l54 343h-438l-54 -343h-24zM454 921h20l99 -130h-18l-94 115l-142 -115h-18z" />
    <glyph glyph-name="hcircumflex" unicode="&#x125;" horiz-adv-x="564" 
d="M201 763h24l-47 -294q52 33 111 52t120 19q67 0 102 -33t35 -95q0 -19 -3 -42l-59 -370h-24l57 363q4 23 4 46q0 58 -30 83.5t-89 25.5q-63 0 -112 -15t-114 -50l-72 -453h-24zM316 961h20l99 -130h-18l-94 115l-142 -115h-18z" />
    <glyph glyph-name="Hbar" unicode="&#x126;" horiz-adv-x="646" 
d="M726 531h-76l-84 -531h-24l54 343h-438l-54 -343h-24l84 531h-75l3 22h76l28 179h24l-28 -179h438l28 179h24l-28 -179h75zM626 531h-438l-26 -166h438z" />
    <glyph glyph-name="hbar" unicode="&#x127;" horiz-adv-x="564" 
d="M511 507q35 -33 35 -95q0 -19 -3 -42l-59 -370h-24l57 363q4 23 4 46q0 58 -30 83.5t-89 25.5q-63 0 -112 -15t-114 -50l-72 -453h-24l101 640h-81l3 16h81l17 107h24l-17 -107h153l-3 -16h-153l-27 -171q52 33 111 52t120 19q67 0 102 -33z" />
    <glyph glyph-name="Itilde" unicode="&#x128;" horiz-adv-x="184" 
d="M196 732h24l-116 -732h-24zM112 888.5q29 21.5 66 21.5q21 0 39.5 -9.5t41.5 -28.5q22 -17 38.5 -26t35.5 -9q32 0 54.5 19t28.5 54h14q-6 -40 -32.5 -64.5t-68.5 -24.5q-19 0 -35.5 9t-39.5 27q-27 19 -43.5 28t-37.5 9q-31 0 -54 -18t-29 -55h-14q7 46 36 67.5z" />
    <glyph glyph-name="itilde" unicode="&#x129;" horiz-adv-x="184" 
d="M164 531h24l-84 -531h-24zM87 728.5q29 21.5 66 21.5q21 0 39.5 -9.5t41.5 -28.5q22 -17 38.5 -26t35.5 -9q32 0 54.5 19t28.5 54h14q-6 -40 -32.5 -64.5t-68.5 -24.5q-19 0 -35.5 9t-39.5 27q-27 19 -43.5 28t-37.5 9q-31 0 -54 -18t-29 -55h-14q7 46 36 67.5z" />
    <glyph glyph-name="Imacron" unicode="&#x12a;" horiz-adv-x="184" 
d="M196 732h24l-116 -732h-24zM99 866h252l-3 -15h-252z" />
    <glyph glyph-name="imacron" unicode="&#x12b;" horiz-adv-x="184" 
d="M164 531h24l-84 -531h-24zM84 706h252l-3 -15h-252z" />
    <glyph glyph-name="Ibreve" unicode="&#x12c;" horiz-adv-x="184" 
d="M196 732h24l-116 -732h-24zM138 816.5q-30 23.5 -30 77.5q0 9 2 33h14q-2 -22 -2 -30q0 -46 25 -68t66 -22q50 0 86.5 28.5t46.5 91.5h14q-12 -74 -52.5 -104t-94.5 -30q-45 0 -75 23.5z" />
    <glyph glyph-name="ibreve" unicode="&#x12d;" horiz-adv-x="184" 
d="M164 531h24l-84 -531h-24zM123 656.5q-30 23.5 -30 77.5q0 9 2 33h14q-2 -22 -2 -30q0 -46 25 -68t66 -22q50 0 86.5 28.5t46.5 91.5h14q-12 -74 -52.5 -104t-94.5 -30q-45 0 -75 23.5z" />
    <glyph glyph-name="Iogonek" unicode="&#x12e;" horiz-adv-x="184" 
d="M196 732h24l-116 -732h-24zM19 -162.5q-25 19.5 -25 53.5q0 27 23.5 57.5t74.5 51.5h12q-43 -20 -67 -50t-24 -55q0 -30 23 -46t69 -16h5l-3 -14q-8 -1 -21 -1q-42 0 -67 19.5z" />
    <glyph glyph-name="iogonek" unicode="&#x12f;" horiz-adv-x="184" 
d="M180 643.5q-3 3.5 -2 8.5l10 62q2 12 14 12h11q11 0 9 -12l-10 -62q-1 -12 -13 -12h-11q-5 0 -8 3.5zM164 531h24l-84 -531h-24zM19 -162.5q-25 19.5 -25 53.5q0 27 23.5 57.5t74.5 51.5h12q-43 -20 -67 -50t-24 -55q0 -30 23 -46t69 -16h5l-3 -14q-8 -1 -21 -1
q-42 0 -67 19.5z" />
    <glyph glyph-name="Idotaccent" unicode="&#x130;" horiz-adv-x="184" 
d="M196 732h24l-116 -732h-24zM207 843v2l10 62q1 12 14 12h11q10 0 10 -9v-3l-10 -62q-2 -12 -14 -12h-11q-10 0 -10 10z" />
    <glyph glyph-name="dotlessi" unicode="&#x131;" horiz-adv-x="184" 
d="M164 531h24l-84 -531h-24z" />
    <glyph glyph-name="Jcircumflex" unicode="&#x134;" horiz-adv-x="319" 
d="M31 19l3 16q42 -18 97 -18q116 0 140 148l90 567h24l-90 -567q-14 -88 -54.5 -129.5t-110.5 -41.5q-61 0 -99 25zM391 921h20l99 -130h-18l-94 115l-142 -115h-18z" />
    <glyph glyph-name="jcircumflex" unicode="&#x135;" horiz-adv-x="184" 
d="M164 531h24l-85 -535q-22 -137 -45 -233h-16zM218 761h20l99 -130h-18l-94 115l-142 -115h-18z" />
    <glyph glyph-name="Kcommaaccent" unicode="&#x136;" horiz-adv-x="561" 
d="M196 732h24l-56 -354h155l284 354h28l-292 -365l187 -367h-27l-181 356h-158l-56 -356h-24zM175 -181l32 3q32 3 50 11.5t31.5 34t20.5 77.5h17q-8 -53 -21 -81.5t-37.5 -41.5t-67.5 -13h-27z" />
    <glyph glyph-name="kcommaaccent" unicode="&#x137;" horiz-adv-x="497" 
d="M201 763h24l-74 -466q113 0 191.5 54t116.5 180h24q-52 -179 -194 -234l168 -297h-28l-164 290q-26 -7 -59 -11t-58 -4l-44 -275h-24zM142 -181l32 3q32 3 50 11.5t31.5 34t20.5 77.5h17q-8 -53 -21 -81.5t-37.5 -41.5t-67.5 -13h-27z" />
    <glyph glyph-name="kgreenlandic" unicode="&#x138;" horiz-adv-x="497" 
d="M164 531h24l-40 -254q113 0 191.5 58.5t119.5 195.5h24q-31 -105 -81 -164.5t-116 -89.5l171 -277h-28l-167 270q-26 -8 -58.5 -11.5t-59.5 -3.5l-40 -255h-24z" />
    <glyph glyph-name="Lacute" unicode="&#x139;" horiz-adv-x="517" 
d="M126 19.5q-29 19.5 -29 71.5q0 17 3 35l96 606h24l-96 -606q-3 -18 -3 -35q0 -40 23.5 -54.5t64.5 -14.5h286l-3 -22h-281q-56 0 -85 19.5zM347 924h26l-154 -133h-14z" />
    <glyph glyph-name="lacute" unicode="&#x13a;" horiz-adv-x="269" 
d="M123.5 24.5q-24.5 24.5 -24.5 71.5q0 29 9 83l93 584h24l-93 -584q-1 -7 -5 -32t-4 -50q0 -37 17 -54.5t50 -20.5l63 -6l-3 -16h-55q-47 0 -71.5 24.5zM361 964h26l-154 -133h-14z" />
    <glyph glyph-name="Lcommaaccent" unicode="&#x13b;" horiz-adv-x="517" 
d="M126 19.5q-29 19.5 -29 71.5q0 17 3 35l96 606h24l-96 -606q-3 -18 -3 -35q0 -40 23.5 -54.5t64.5 -14.5h286l-3 -22h-281q-56 0 -85 19.5zM185 -181l32 3q32 3 50 11.5t31.5 34t20.5 77.5h17q-8 -53 -21 -81.5t-37.5 -41.5t-67.5 -13h-27z" />
    <glyph glyph-name="lcommaaccent" unicode="&#x13c;" horiz-adv-x="269" 
d="M123.5 24.5q-24.5 24.5 -24.5 71.5q0 29 9 83l93 584h24l-93 -584q-1 -7 -5 -32t-4 -50q0 -37 17 -54.5t50 -20.5l63 -6l-3 -16h-55q-47 0 -71.5 24.5zM72 -181l32 3q32 3 50 11.5t31.5 34t20.5 77.5h17q-8 -53 -21 -81.5t-37.5 -41.5t-67.5 -13h-27z" />
    <glyph glyph-name="Lcaron" unicode="&#x13d;" horiz-adv-x="517" 
d="M126 19.5q-29 19.5 -29 71.5q0 17 3 35l96 606h24l-96 -606q-3 -18 -3 -35q0 -40 23.5 -54.5t64.5 -14.5h286l-3 -22h-281q-56 0 -85 19.5zM339 654l10 67h25l-10 -67l-29 -158h-12z" />
    <glyph glyph-name="lcaron" unicode="&#x13e;" horiz-adv-x="269" 
d="M123.5 24.5q-24.5 24.5 -24.5 71.5q0 29 9 83l93 584h24l-93 -584q-1 -7 -5 -32t-4 -50q0 -37 17 -54.5t50 -20.5l63 -6l-3 -16h-55q-47 0 -71.5 24.5zM279 724l10 67h25l-10 -67l-29 -158h-12z" />
    <glyph glyph-name="Ldot" unicode="&#x13f;" horiz-adv-x="517" 
d="M126 19.5q-29 19.5 -29 71.5q0 17 3 35l96 606h24l-96 -606q-3 -18 -3 -35q0 -40 23.5 -54.5t64.5 -14.5h286l-3 -22h-281q-56 0 -85 19.5zM416 417.5q-3 3.5 -2 8.5l2 12q2 12 14 12h12q11 0 9 -12l-2 -12q-1 -12 -13 -12h-12q-5 0 -8 3.5z" />
    <glyph glyph-name="ldot" unicode="&#x140;" horiz-adv-x="269" 
d="M123.5 24.5q-24.5 24.5 -24.5 71.5q0 29 9 83l93 584h24l-93 -584q-1 -7 -5 -32t-4 -50q0 -37 17 -54.5t50 -20.5l63 -6l-3 -16h-55q-47 0 -71.5 24.5zM295 417.5q-3 3.5 -2 8.5l2 12q2 12 14 12h12q11 0 9 -12l-2 -12q-1 -12 -13 -12h-12q-5 0 -8 3.5z" />
    <glyph glyph-name="Lslash" unicode="&#x141;" horiz-adv-x="517" 
d="M495 22l-3 -22h-281q-56 0 -85 19.5t-29 71.5q0 17 3 35l37 231l-89 -35l3 21l89 35l56 354h24l-55 -346l151 61l-3 -20l-151 -61l-38 -240q-3 -18 -3 -35q0 -40 23.5 -54.5t64.5 -14.5h286z" />
    <glyph glyph-name="lslash" unicode="&#x142;" horiz-adv-x="269" 
d="M132 179q-1 -7 -5 -32t-4 -50q0 -37 17 -54.5t50 -20.5l63 -6l-3 -16h-55q-47 0 -71.5 24.5t-24.5 71.5q0 29 9 83l35 220l-86 -28l3 21l86 27l55 344h24l-53 -334l120 36l-3 -21l-121 -37z" />
    <glyph glyph-name="Nacute" unicode="&#x143;" horiz-adv-x="649" 
d="M196 732h22l333 -691l110 691h24l-116 -732h-22l-333 692l-110 -692h-24zM567 924h26l-154 -133h-14z" />
    <glyph glyph-name="nacute" unicode="&#x144;" horiz-adv-x="564" 
d="M164 531h16l-2 -62q51 32 110.5 51.5t117.5 19.5q75 0 107.5 -35t32.5 -94q0 -20 -9 -79l-53 -332h-24l52 331q10 65 10 78q0 109 -120 109q-63 0 -112 -15t-114 -50l-72 -453h-24zM513 764h26l-154 -133h-14z" />
    <glyph glyph-name="Ncommaaccent" unicode="&#x145;" horiz-adv-x="649" 
d="M196 732h22l333 -691l110 691h24l-116 -732h-22l-333 692l-110 -692h-24zM225 -181l32 3q32 3 50 11.5t31.5 34t20.5 77.5h17q-8 -53 -21 -81.5t-37.5 -41.5t-67.5 -13h-27z" />
    <glyph glyph-name="ncommaaccent" unicode="&#x146;" horiz-adv-x="564" 
d="M164 531h16l-2 -62q51 32 110.5 51.5t117.5 19.5q75 0 107.5 -35t32.5 -94q0 -20 -9 -79l-53 -332h-24l52 331q10 65 10 78q0 109 -120 109q-63 0 -112 -15t-114 -50l-72 -453h-24zM174 -181l32 3q32 3 50 11.5t31.5 34t20.5 77.5h17q-8 -53 -21 -81.5t-37.5 -41.5
t-67.5 -13h-27z" />
    <glyph glyph-name="Ncaron" unicode="&#x147;" horiz-adv-x="649" 
d="M196 732h22l333 -691l110 691h24l-116 -732h-22l-333 692l-110 -692h-24zM350 921h18l93 -115l143 115h18l-153 -130h-20z" />
    <glyph glyph-name="ncaron" unicode="&#x148;" horiz-adv-x="564" 
d="M164 531h16l-2 -62q51 32 110.5 51.5t117.5 19.5q75 0 107.5 -35t32.5 -94q0 -20 -9 -79l-53 -332h-24l52 331q10 65 10 78q0 109 -120 109q-63 0 -112 -15t-114 -50l-72 -453h-24zM286 761h18l93 -115l143 115h18l-153 -130h-20z" />
    <glyph glyph-name="Eng" unicode="&#x14a;" horiz-adv-x="649" 
d="M685 732l-116 -732l-15 -92q-14 -85 -60 -118t-129 -33q-25 0 -54.5 7t-48.5 18l2 16q23 -8 52.5 -13.5t51.5 -5.5q69 0 109 27t53 102l16 95l-332 689l-110 -692h-24l116 732h22l333 -691l110 691h24z" />
    <glyph glyph-name="eng" unicode="&#x14b;" horiz-adv-x="564" 
d="M513.5 505q32.5 -35 32.5 -94q0 -20 -9 -79l-53 -332q-14 -90 -60.5 -151t-119.5 -86h-22q79 37 121.5 94t56.5 143l52 331q10 65 10 78q0 109 -120 109q-63 0 -112 -15t-114 -50l-72 -453h-24l84 531h16l-2 -62q51 32 110.5 51.5t117.5 19.5q75 0 107.5 -35z" />
    <glyph glyph-name="Omacron" unicode="&#x14c;" horiz-adv-x="678" 
d="M211 10.5q-48 16.5 -73.5 61t-25.5 127.5q0 70 16 169q24 150 64.5 230t103 110t161.5 30q74 0 122.5 -19t74.5 -65.5t26 -129.5q0 -71 -16 -170q-23 -148 -65 -226t-104 -106t-159 -28q-77 0 -125 16.5zM489 41.5q55 25.5 91 99.5t60 220q15 90 15 164q0 78 -23.5 119.5
t-67 56.5t-112.5 15q-90 0 -146 -27.5t-93.5 -104t-60.5 -223.5q-16 -106 -16 -162q0 -75 22 -114.5t65.5 -54t118.5 -14.5q92 0 147 25.5zM350 866h252l-3 -15h-252z" />
    <glyph glyph-name="omacron" unicode="&#x14d;" 
d="M143 34.5q-49 40.5 -49 135.5q0 39 8 95q17 106 48 165t82 83t133 24q97 0 141 -45t44 -136q0 -40 -10 -105q-16 -98 -46 -153.5t-81.5 -79.5t-133.5 -24q-87 0 -136 40.5zM399 35q44 19 72.5 71t44.5 152q9 57 9 98q0 86 -37.5 122.5t-127.5 36.5q-74 0 -118 -21
t-71.5 -76t-44.5 -160q-8 -54 -8 -88q0 -89 42.5 -121.5t123.5 -32.5q71 0 115 19zM266 706h252l-3 -15h-252z" />
    <glyph glyph-name="Obreve" unicode="&#x14e;" horiz-adv-x="678" 
d="M211 10.5q-48 16.5 -73.5 61t-25.5 127.5q0 70 16 169q24 150 64.5 230t103 110t161.5 30q74 0 122.5 -19t74.5 -65.5t26 -129.5q0 -71 -16 -170q-23 -148 -65 -226t-104 -106t-159 -28q-77 0 -125 16.5zM489 41.5q55 25.5 91 99.5t60 220q15 90 15 164q0 78 -23.5 119.5
t-67 56.5t-112.5 15q-90 0 -146 -27.5t-93.5 -104t-60.5 -223.5q-16 -106 -16 -162q0 -75 22 -114.5t65.5 -54t118.5 -14.5q92 0 147 25.5zM389 816.5q-30 23.5 -30 77.5q0 9 2 33h14q-2 -22 -2 -30q0 -46 25 -68t66 -22q50 0 86.5 28.5t46.5 91.5h14q-12 -74 -52.5 -104
t-94.5 -30q-45 0 -75 23.5z" />
    <glyph glyph-name="obreve" unicode="&#x14f;" 
d="M143 34.5q-49 40.5 -49 135.5q0 39 8 95q17 106 48 165t82 83t133 24q97 0 141 -45t44 -136q0 -40 -10 -105q-16 -98 -46 -153.5t-81.5 -79.5t-133.5 -24q-87 0 -136 40.5zM399 35q44 19 72.5 71t44.5 152q9 57 9 98q0 86 -37.5 122.5t-127.5 36.5q-74 0 -118 -21
t-71.5 -76t-44.5 -160q-8 -54 -8 -88q0 -89 42.5 -121.5t123.5 -32.5q71 0 115 19zM305 656.5q-30 23.5 -30 77.5q0 9 2 33h14q-2 -22 -2 -30q0 -46 25 -68t66 -22q50 0 86.5 28.5t46.5 91.5h14q-12 -74 -52.5 -104t-94.5 -30q-45 0 -75 23.5z" />
    <glyph glyph-name="Ohungarumlaut" unicode="&#x150;" horiz-adv-x="678" 
d="M211 10.5q-48 16.5 -73.5 61t-25.5 127.5q0 70 16 169q24 150 64.5 230t103 110t161.5 30q74 0 122.5 -19t74.5 -65.5t26 -129.5q0 -71 -16 -170q-23 -148 -65 -226t-104 -106t-159 -28q-77 0 -125 16.5zM489 41.5q55 25.5 91 99.5t60 220q15 90 15 164q0 78 -23.5 119.5
t-67 56.5t-112.5 15q-90 0 -146 -27.5t-93.5 -104t-60.5 -223.5q-16 -106 -16 -162q0 -75 22 -114.5t65.5 -54t118.5 -14.5q92 0 147 25.5zM509 924h26l-154 -133h-14zM648 924h26l-154 -133h-14z" />
    <glyph glyph-name="ohungarumlaut" unicode="&#x151;" 
d="M143 34.5q-49 40.5 -49 135.5q0 39 8 95q17 106 48 165t82 83t133 24q97 0 141 -45t44 -136q0 -40 -10 -105q-16 -98 -46 -153.5t-81.5 -79.5t-133.5 -24q-87 0 -136 40.5zM399 35q44 19 72.5 71t44.5 152q9 57 9 98q0 86 -37.5 122.5t-127.5 36.5q-74 0 -118 -21
t-71.5 -76t-44.5 -160q-8 -54 -8 -88q0 -89 42.5 -121.5t123.5 -32.5q71 0 115 19zM425 764h26l-154 -133h-14zM564 764h26l-154 -133h-14z" />
    <glyph glyph-name="OE" unicode="&#x152;" horiz-adv-x="1069" 
d="M744 685q-31 -25 -40 -83l-36 -227l359 -6l-3 -16l-360 -2l-35 -228q-3 -16 -3 -30q0 -45 25.5 -61t73.5 -16h288l-3 -16l-289 -6q-119 -2 -119 100q0 15 3 34l3 19q-40 -88 -104.5 -120.5t-167.5 -32.5q-77 0 -125 16.5t-73.5 61t-25.5 127.5q0 70 16 169
q24 150 64.5 230t103 110t161.5 30t153 -35t67 -124l4 28q11 68 51 97t95 28l297 -6l-3 -16h-297q-49 0 -80 -25zM489 41.5q55 25.5 91 99.5t60 220q15 90 15 164q0 78 -23.5 119.5t-67 56.5t-112.5 15q-90 0 -146 -27.5t-93.5 -104t-60.5 -223.5q-16 -106 -16 -162
q0 -75 22 -114.5t65.5 -54t118.5 -14.5q92 0 147 25.5z" />
    <glyph glyph-name="oe" unicode="&#x153;" horiz-adv-x="964" 
d="M143 34.5q-49 40.5 -49 135.5q0 39 8 95q17 105 49 164t83.5 83.5t130.5 24.5q90 0 131.5 -39.5t49.5 -116.5q28 81 86.5 120.5t154.5 39.5q90 0 135 -32t45 -103q0 -94 -74 -132t-189 -38q-51 0 -95 5.5t-68 12.5q-5 -34 -5 -81q0 -83 46 -120t152 -37h154l-3 -16
q-102 -6 -153 -6q-105 0 -159 40.5t-59 122.5q-31 -85 -84 -124t-151 -39q-87 0 -136 40.5zM876 289.5q67 31.5 67 114.5q0 62 -38.5 88.5t-119.5 26.5q-116 0 -170 -61.5t-72 -187.5q62 -12 143 -12q123 0 190 31.5zM394.5 35q44.5 19 75.5 71.5t46 151.5q9 57 9 98
q0 85 -38 122t-127 37q-74 0 -118 -21t-71.5 -76t-44.5 -160q-8 -54 -8 -88q0 -86 43 -120t123 -34q66 0 110.5 19z" />
    <glyph glyph-name="Racute" unicode="&#x154;" horiz-adv-x="604" 
d="M196 732h256q64 0 111.5 -34t47.5 -123q0 -22 -5 -57q-18 -110 -67.5 -149t-113.5 -43l109 -326h-24l-109 325q-17 0 -28 1q-181 3 -217 5l-52 -331h-24zM401 347q69 0 116.5 35.5t63.5 139.5q4 25 4 51q0 79 -39 108t-98 29h-232l-57 -363h242zM507 924h26l-154 -133
h-14z" />
    <glyph glyph-name="racute" unicode="&#x155;" horiz-adv-x="376" 
d="M164 531h16l-2 -62q89 68 177 68q50 0 75 -8l-4 -24q-34 8 -75 8q-46 0 -88 -16t-87 -44l-72 -453h-24zM421 764h26l-154 -133h-14z" />
    <glyph glyph-name="Rcommaaccent" unicode="&#x156;" horiz-adv-x="604" 
d="M196 732h256q64 0 111.5 -34t47.5 -123q0 -22 -5 -57q-18 -110 -67.5 -149t-113.5 -43l109 -326h-24l-109 325q-17 0 -28 1q-181 3 -217 5l-52 -331h-24zM401 347q69 0 116.5 35.5t63.5 139.5q4 25 4 51q0 79 -39 108t-98 29h-232l-57 -363h242zM185 -181l32 3
q32 3 50 11.5t31.5 34t20.5 77.5h17q-8 -53 -21 -81.5t-37.5 -41.5t-67.5 -13h-27z" />
    <glyph glyph-name="rcommaaccent" unicode="&#x157;" horiz-adv-x="376" 
d="M164 531h16l-2 -62q89 68 177 68q50 0 75 -8l-4 -24q-34 8 -75 8q-46 0 -88 -16t-87 -44l-72 -453h-24zM-14 -181l32 3q32 3 50 11.5t31.5 34t20.5 77.5h17q-8 -53 -21 -81.5t-37.5 -41.5t-67.5 -13h-27z" />
    <glyph glyph-name="Rcaron" unicode="&#x158;" horiz-adv-x="604" 
d="M196 732h256q64 0 111.5 -34t47.5 -123q0 -22 -5 -57q-18 -110 -67.5 -149t-113.5 -43l109 -326h-24l-109 325q-17 0 -28 1q-181 3 -217 5l-52 -331h-24zM401 347q69 0 116.5 35.5t63.5 139.5q4 25 4 51q0 79 -39 108t-98 29h-232l-57 -363h242zM290 921h18l93 -115
l143 115h18l-153 -130h-20z" />
    <glyph glyph-name="rcaron" unicode="&#x159;" horiz-adv-x="376" 
d="M164 531h16l-2 -62q89 68 177 68q50 0 75 -8l-4 -24q-34 8 -75 8q-46 0 -88 -16t-87 -44l-72 -453h-24zM194 761h18l93 -115l143 115h18l-153 -130h-20z" />
    <glyph glyph-name="Sacute" unicode="&#x15a;" horiz-adv-x="565" 
d="M181 -3q-63 3 -102 9l2 16q80 -6 221 -6q90 0 141.5 29.5t64.5 112.5l10 66q3 20 3 37q0 50 -29 73t-92 23h-112q-68 0 -101 25t-33 82q0 17 3 38l10 66q15 99 67.5 134.5t145.5 35.5q33 0 104.5 -5.5t104.5 -10.5l-2 -16q-126 8 -205 8q-59 0 -97 -12t-61.5 -43.5
t-32.5 -90.5l-10 -66q-3 -19 -3 -36q0 -48 26.5 -66.5t85.5 -18.5h114q72 0 106.5 -28.5t34.5 -87.5q0 -18 -3 -41l-10 -66q-14 -95 -75 -129.5t-160 -34.5q-53 0 -116 3zM527 924h26l-154 -133h-14z" />
    <glyph glyph-name="sacute" unicode="&#x15b;" horiz-adv-x="502" 
d="M159.5 -4.5q-71.5 1.5 -92.5 4.5l3 16h212q68 0 106 22t47 75l8 49q1 6 1 17q0 37 -22 55t-68 18h-113q-66 0 -96 18.5t-30 58.5q0 20 4 40l8 46q10 60 49 91t118 31q44 0 98.5 -1.5t98.5 -4.5l-4 -16h-197q-66 0 -98 -24t-41 -76l-8 -46q-4 -27 -4 -40q0 -29 24 -41
t80 -12h112q51 0 82.5 -25.5t31.5 -72.5q0 -6 -2 -22l-8 -49q-9 -59 -55.5 -86t-125.5 -27q-47 0 -118.5 1.5zM470 764h26l-154 -133h-14z" />
    <glyph glyph-name="Scircumflex" unicode="&#x15c;" horiz-adv-x="565" 
d="M181 -3q-63 3 -102 9l2 16q80 -6 221 -6q90 0 141.5 29.5t64.5 112.5l10 66q3 20 3 37q0 50 -29 73t-92 23h-112q-68 0 -101 25t-33 82q0 17 3 38l10 66q15 99 67.5 134.5t145.5 35.5q33 0 104.5 -5.5t104.5 -10.5l-2 -16q-126 8 -205 8q-59 0 -97 -12t-61.5 -43.5
t-32.5 -90.5l-10 -66q-3 -19 -3 -36q0 -48 26.5 -66.5t85.5 -18.5h114q72 0 106.5 -28.5t34.5 -87.5q0 -18 -3 -41l-10 -66q-14 -95 -75 -129.5t-160 -34.5q-53 0 -116 3zM412 921h20l99 -130h-18l-94 115l-142 -115h-18z" />
    <glyph glyph-name="scircumflex" unicode="&#x15d;" horiz-adv-x="502" 
d="M159.5 -4.5q-71.5 1.5 -92.5 4.5l3 16h212q68 0 106 22t47 75l8 49q1 6 1 17q0 37 -22 55t-68 18h-113q-66 0 -96 18.5t-30 58.5q0 20 4 40l8 46q10 60 49 91t118 31q44 0 98.5 -1.5t98.5 -4.5l-4 -16h-197q-66 0 -98 -24t-41 -76l-8 -46q-4 -27 -4 -40q0 -29 24 -41
t80 -12h112q51 0 82.5 -25.5t31.5 -72.5q0 -6 -2 -22l-8 -49q-9 -59 -55.5 -86t-125.5 -27q-47 0 -118.5 1.5zM365 761h20l99 -130h-18l-94 115l-142 -115h-18z" />
    <glyph glyph-name="Scedilla" unicode="&#x15e;" horiz-adv-x="565" 
d="M181 502q-3 -19 -3 -36q0 -48 26.5 -66.5t85.5 -18.5h114q72 0 106.5 -28.5t34.5 -87.5q0 -18 -3 -41l-10 -66q-14 -95 -75 -129.5t-160 -34.5h-13l-53 -62q69 -1 69 -47q0 -16 -12 -34t-34.5 -31t-52.5 -13h-20l2 10l26 2q24 2 41 13t26 25t9 25q0 19 -17 29.5t-59 10.5
l61 72q-122 2 -191 12l2 16q80 -6 221 -6q90 0 141.5 29.5t64.5 112.5l10 66q3 20 3 37q0 50 -29 73t-92 23h-112q-68 0 -101 25t-33 82q0 17 3 38l10 66q15 99 67.5 134.5t145.5 35.5q33 0 104.5 -5.5t104.5 -10.5l-2 -16q-126 8 -205 8q-59 0 -97 -12t-61.5 -43.5
t-32.5 -90.5z" />
    <glyph glyph-name="scedilla" unicode="&#x15f;" horiz-adv-x="502" 
d="M143 369q-4 -27 -4 -40q0 -29 24 -41t80 -12h112q51 0 82.5 -25.5t31.5 -72.5q0 -6 -2 -22l-8 -49q-9 -59 -55.5 -86t-125.5 -27h-33l-53 -62q69 -1 69 -47q0 -16 -12 -34t-34.5 -31t-52.5 -13h-20l2 10l26 2q24 2 41 13t26 25t9 25q0 19 -17 29.5t-59 10.5l61 72
q-135 2 -164 6l3 16h212q68 0 106 22t47 75l8 49q1 6 1 17q0 37 -22 55t-68 18h-113q-66 0 -96 18.5t-30 58.5q0 20 4 40l8 46q10 60 49 91t118 31q44 0 98.5 -1.5t98.5 -4.5l-4 -16h-197q-66 0 -98 -24t-41 -76z" />
    <glyph glyph-name="Scaron" unicode="&#x160;" horiz-adv-x="565" 
d="M181 -3q-63 3 -102 9l2 16q80 -6 221 -6q90 0 141.5 29.5t64.5 112.5l10 66q3 20 3 37q0 50 -29 73t-92 23h-112q-68 0 -101 25t-33 82q0 17 3 38l10 66q15 99 67.5 134.5t145.5 35.5q33 0 104.5 -5.5t104.5 -10.5l-2 -16q-126 8 -205 8q-59 0 -97 -12t-61.5 -43.5
t-32.5 -90.5l-10 -66q-3 -19 -3 -36q0 -48 26.5 -66.5t85.5 -18.5h114q72 0 106.5 -28.5t34.5 -87.5q0 -18 -3 -41l-10 -66q-14 -95 -75 -129.5t-160 -34.5q-53 0 -116 3zM310 921h18l93 -115l143 115h18l-153 -130h-20z" />
    <glyph glyph-name="scaron" unicode="&#x161;" horiz-adv-x="502" 
d="M159.5 -4.5q-71.5 1.5 -92.5 4.5l3 16h212q68 0 106 22t47 75l8 49q1 6 1 17q0 37 -22 55t-68 18h-113q-66 0 -96 18.5t-30 58.5q0 20 4 40l8 46q10 60 49 91t118 31q44 0 98.5 -1.5t98.5 -4.5l-4 -16h-197q-66 0 -98 -24t-41 -76l-8 -46q-4 -27 -4 -40q0 -29 24 -41
t80 -12h112q51 0 82.5 -25.5t31.5 -72.5q0 -6 -2 -22l-8 -49q-9 -59 -55.5 -86t-125.5 -27q-47 0 -118.5 1.5zM243 761h18l93 -115l143 115h18l-153 -130h-20z" />
    <glyph glyph-name="uni0162" unicode="&#x162;" horiz-adv-x="602" 
d="M396 710h-254l4 22h532l-4 -22h-254l-112 -710h-24zM310 -115q0 -16 -12 -34t-34.5 -31t-52.5 -13h-20l2 10l26 2q24 2 41 13t26 25t9 25q0 19 -17 29.5t-59 10.5l66 78h14l-58 -68q69 -1 69 -47z" />
    <glyph glyph-name="uni0163" unicode="&#x163;" horiz-adv-x="366" 
d="M173.5 28q-28.5 28 -28.5 79q0 26 4 51t5 30l53 321h-86l2 16l85 6l32 149h16l-24 -149h175l-3 -22h-175l-51 -321q-9 -56 -9 -81q0 -39 20 -60t62 -25l66 -6l-3 -16h-56q-56 0 -84.5 28zM260 -115q0 -16 -12 -34t-34.5 -31t-52.5 -13h-20l2 10l26 2q24 2 41 13t26 25
t9 25q0 19 -17 29.5t-59 10.5l66 78h14l-58 -68q69 -1 69 -47z" />
    <glyph glyph-name="Tcaron" unicode="&#x164;" horiz-adv-x="602" 
d="M396 710h-254l4 22h532l-4 -22h-254l-112 -710h-24zM320 921h18l93 -115l143 115h18l-153 -130h-20z" />
    <glyph glyph-name="tcaron" unicode="&#x165;" horiz-adv-x="366" 
d="M173.5 28q-28.5 28 -28.5 79q0 26 4 51t5 30l53 321h-86l2 16l85 6l32 149h16l-24 -149h175l-3 -22h-175l-51 -321q-9 -56 -9 -81q0 -39 20 -60t62 -25l66 -6l-3 -16h-56q-56 0 -84.5 28zM331 744l10 67h25l-10 -67l-29 -158h-12z" />
    <glyph glyph-name="Tbar" unicode="&#x166;" horiz-adv-x="602" 
d="M420 710l-48 -307h200l-3 -22h-201l-60 -381h-24l60 381h-200l3 22h201l48 307h-254l4 22h532l-4 -22h-254z" />
    <glyph glyph-name="tbar" unicode="&#x167;" horiz-adv-x="350" 
d="M229 509l-28 -175h155l-3 -16h-154l-21 -130q-9 -56 -9 -81q0 -39 20 -60t62 -25l66 -6l-3 -16h-56q-56 0 -84.5 28t-28.5 79q0 26 4 51t5 30l21 130h-85l3 16h85l29 175h-86l2 16l85 6l32 149h16l-24 -149h175l-3 -22h-175z" />
    <glyph glyph-name="Utilde" unicode="&#x168;" horiz-adv-x="667" 
d="M172 38q-53 44 -53 148q0 62 12 134l65 412h24l-65 -412q-13 -80 -13 -135q0 -93 46.5 -131t142.5 -38q83 0 135.5 21.5t90 87.5t57.5 195l65 412h24l-65 -412q-22 -136 -63 -207t-98.5 -95t-143.5 -24q-108 0 -161 44zM341 888.5q29 21.5 66 21.5q21 0 39.5 -9.5
t41.5 -28.5q22 -17 38.5 -26t35.5 -9q32 0 54.5 19t28.5 54h14q-6 -40 -32.5 -64.5t-68.5 -24.5q-19 0 -35.5 9t-39.5 27q-27 19 -43.5 28t-37.5 9q-31 0 -54 -18t-29 -55h-14q7 46 36 67.5z" />
    <glyph glyph-name="utilde" unicode="&#x169;" horiz-adv-x="564" 
d="M138 26.5q-36 32.5 -36 89.5q0 25 4 51l58 364h24l-58 -369q-4 -24 -4 -41q0 -51 28.5 -78t91.5 -27q61 0 111 14.5t115 47.5l72 453h24l-84 -531h-16l2 62q-56 -33 -109 -50.5t-118 -17.5q-69 0 -105 32.5zM275 728.5q29 21.5 66 21.5q21 0 39.5 -9.5t41.5 -28.5
q22 -17 38.5 -26t35.5 -9q32 0 54.5 19t28.5 54h14q-6 -40 -32.5 -64.5t-68.5 -24.5q-19 0 -35.5 9t-39.5 27q-27 19 -43.5 28t-37.5 9q-31 0 -54 -18t-29 -55h-14q7 46 36 67.5z" />
    <glyph glyph-name="Umacron" unicode="&#x16a;" horiz-adv-x="667" 
d="M172 38q-53 44 -53 148q0 62 12 134l65 412h24l-65 -412q-13 -80 -13 -135q0 -93 46.5 -131t142.5 -38q83 0 135.5 21.5t90 87.5t57.5 195l65 412h24l-65 -412q-22 -136 -63 -207t-98.5 -95t-143.5 -24q-108 0 -161 44zM328 866h252l-3 -15h-252z" />
    <glyph glyph-name="umacron" unicode="&#x16b;" horiz-adv-x="564" 
d="M138 26.5q-36 32.5 -36 89.5q0 25 4 51l58 364h24l-58 -369q-4 -24 -4 -41q0 -51 28.5 -78t91.5 -27q61 0 111 14.5t115 47.5l72 453h24l-84 -531h-16l2 62q-56 -33 -109 -50.5t-118 -17.5q-69 0 -105 32.5zM272 706h252l-3 -15h-252z" />
    <glyph glyph-name="Ubreve" unicode="&#x16c;" horiz-adv-x="667" 
d="M172 38q-53 44 -53 148q0 62 12 134l65 412h24l-65 -412q-13 -80 -13 -135q0 -93 46.5 -131t142.5 -38q83 0 135.5 21.5t90 87.5t57.5 195l65 412h24l-65 -412q-22 -136 -63 -207t-98.5 -95t-143.5 -24q-108 0 -161 44zM367 816.5q-30 23.5 -30 77.5q0 9 2 33h14
q-2 -22 -2 -30q0 -46 25 -68t66 -22q50 0 86.5 28.5t46.5 91.5h14q-12 -74 -52.5 -104t-94.5 -30q-45 0 -75 23.5z" />
    <glyph glyph-name="ubreve" unicode="&#x16d;" horiz-adv-x="564" 
d="M138 26.5q-36 32.5 -36 89.5q0 25 4 51l58 364h24l-58 -369q-4 -24 -4 -41q0 -51 28.5 -78t91.5 -27q61 0 111 14.5t115 47.5l72 453h24l-84 -531h-16l2 62q-56 -33 -109 -50.5t-118 -17.5q-69 0 -105 32.5zM311 656.5q-30 23.5 -30 77.5q0 9 2 33h14q-2 -22 -2 -30
q0 -46 25 -68t66 -22q50 0 86.5 28.5t46.5 91.5h14q-12 -74 -52.5 -104t-94.5 -30q-45 0 -75 23.5z" />
    <glyph glyph-name="Uring" unicode="&#x16e;" horiz-adv-x="667" 
d="M172 38q-53 44 -53 148q0 62 12 134l65 412h24l-65 -412q-13 -80 -13 -135q0 -93 46.5 -131t142.5 -38q83 0 135.5 21.5t90 87.5t57.5 195l65 412h24l-65 -412q-22 -136 -63 -207t-98.5 -95t-143.5 -24q-108 0 -161 44zM381 799.5q-25 19.5 -25 63.5q0 50 32.5 86
t88.5 36q37 0 61.5 -20t24.5 -62q0 -52 -31 -87.5t-86 -35.5q-40 0 -65 19.5zM521.5 826q25.5 30 25.5 75q0 37 -20.5 52.5t-50.5 15.5q-51 0 -77.5 -30t-26.5 -76q0 -36 21 -51.5t53 -15.5q50 0 75.5 30z" />
    <glyph glyph-name="uring" unicode="&#x16f;" horiz-adv-x="564" 
d="M138 26.5q-36 32.5 -36 89.5q0 25 4 51l58 364h24l-58 -369q-4 -24 -4 -41q0 -51 28.5 -78t91.5 -27q61 0 111 14.5t115 47.5l72 453h24l-84 -531h-16l2 62q-56 -33 -109 -50.5t-118 -17.5q-69 0 -105 32.5zM325 619.5q-25 19.5 -25 63.5q0 50 32.5 86t88.5 36
q37 0 61.5 -20t24.5 -62q0 -52 -31 -87.5t-86 -35.5q-40 0 -65 19.5zM465.5 646q25.5 30 25.5 75q0 37 -20.5 52.5t-50.5 15.5q-51 0 -77.5 -30t-26.5 -76q0 -36 21 -51.5t53 -15.5q50 0 75.5 30z" />
    <glyph glyph-name="Uhungarumlaut" unicode="&#x170;" horiz-adv-x="667" 
d="M172 38q-53 44 -53 148q0 62 12 134l65 412h24l-65 -412q-13 -80 -13 -135q0 -93 46.5 -131t142.5 -38q83 0 135.5 21.5t90 87.5t57.5 195l65 412h24l-65 -412q-22 -136 -63 -207t-98.5 -95t-143.5 -24q-108 0 -161 44zM487 924h26l-154 -133h-14zM626 924h26l-154 -133
h-14z" />
    <glyph glyph-name="uhungarumlaut" unicode="&#x171;" horiz-adv-x="564" 
d="M138 26.5q-36 32.5 -36 89.5q0 25 4 51l58 364h24l-58 -369q-4 -24 -4 -41q0 -51 28.5 -78t91.5 -27q61 0 111 14.5t115 47.5l72 453h24l-84 -531h-16l2 62q-56 -33 -109 -50.5t-118 -17.5q-69 0 -105 32.5zM431 764h26l-154 -133h-14zM570 764h26l-154 -133h-14z" />
    <glyph glyph-name="Uogonek" unicode="&#x172;" horiz-adv-x="667" 
d="M703 732l-65 -412q-18 -112 -49 -179t-73.5 -99t-100.5 -42q-43 -20 -67 -50t-24 -55q0 -30 23 -46t69 -16h5l-3 -14q-8 -1 -21 -1q-42 0 -67 19.5t-25 53.5q0 26 22.5 55.5t69.5 50.5q-31 -3 -64 -3q-108 0 -161 44t-53 148q0 62 12 134l65 412h24l-65 -412
q-13 -80 -13 -135q0 -93 46.5 -131t142.5 -38q83 0 135.5 21.5t90 87.5t57.5 195l65 412h24z" />
    <glyph glyph-name="uogonek" unicode="&#x173;" horiz-adv-x="564" 
d="M416 -151q23 -16 69 -16h5l-3 -14q-8 -1 -21 -1q-42 0 -67 19.5t-25 53.5q0 27 23.5 57.5t74.5 51.5h-4l2 62q-56 -33 -109 -50.5t-118 -17.5q-69 0 -105 32.5t-36 89.5q0 25 4 51l58 364h24l-58 -369q-4 -24 -4 -41q0 -51 28.5 -78t91.5 -27q61 0 111 14.5t115 47.5
l72 453h24l-84 -531q-43 -20 -67 -50t-24 -55q0 -30 23 -46z" />
    <glyph glyph-name="Wcircumflex" unicode="&#x174;" horiz-adv-x="980" 
d="M161 732h25l111 -707l291 707h34l56 -706l347 706h26l-360 -732h-34l-56 702l-290 -702h-34zM622 921h20l99 -130h-18l-94 115l-142 -115h-18z" />
    <glyph glyph-name="wcircumflex" unicode="&#x175;" horiz-adv-x="798" 
d="M104 531h24l105 -499l214 499h26l89 -501l202 413q9 18 18 46t13 50h16q0 -24 -8 -54t-22 -58l-210 -427h-27l-87 499l-215 -499h-26zM506 761h20l99 -130h-18l-94 115l-142 -115h-18z" />
    <glyph glyph-name="Ycircumflex" unicode="&#x176;" horiz-adv-x="590" 
d="M314 260l-168 472h27l156 -440l318 440h29l-338 -472l-41 -260h-24zM410 921h20l99 -130h-18l-94 115l-142 -115h-18z" />
    <glyph glyph-name="ycircumflex" unicode="&#x177;" horiz-adv-x="543" 
d="M97 -215q45 11 97 63.5t99 151.5q-27 3 -45.5 10.5t-35 31t-25.5 68.5l-83 421h24l82 -415q10 -53 33 -70.5t62 -20.5l205 429q25 55 28 85h16q0 -50 -21 -93l-213 -445q-57 -119 -109.5 -172.5t-113.5 -65.5v22zM366 761h20l99 -130h-18l-94 115l-142 -115h-18z" />
    <glyph glyph-name="Ydieresis" unicode="&#x178;" horiz-adv-x="590" 
d="M314 260l-168 472h27l156 -440l318 440h29l-338 -472l-41 -260h-24zM267 836l10 64q1 12 15 12h11q10 0 10 -9q0 4 -11 -65q-2 -12 -14 -12h-11q-10 0 -10 10zM475 836l10 64q1 12 15 12h11q10 0 10 -9q0 4 -11 -65q-2 -12 -14 -12h-11q-10 0 -10 10z" />
    <glyph glyph-name="Zacute" unicode="&#x179;" horiz-adv-x="553" 
d="M48 22l534 688h-425l4 22h453l-4 -22l-534 -688h435l-3 -22h-463zM505 924h26l-154 -133h-14z" />
    <glyph glyph-name="zacute" unicode="&#x17a;" horiz-adv-x="497" 
d="M68 22l412 487h-349l3 22h376l-3 -22l-412 -486h355q0 -4 -1.5 -11.5t-2.5 -10.5h-381zM475 764h26l-154 -133h-14z" />
    <glyph glyph-name="Zdotaccent" unicode="&#x17b;" horiz-adv-x="553" 
d="M48 22l534 688h-425l4 22h453l-4 -22l-534 -688h435l-3 -22h-463zM374 843v2l10 62q1 12 14 12h11q10 0 10 -9v-3l-10 -62q-2 -12 -14 -12h-11q-10 0 -10 10z" />
    <glyph glyph-name="zdotaccent" unicode="&#x17c;" horiz-adv-x="497" 
d="M68 22l412 487h-349l3 22h376l-3 -22l-412 -486h355q0 -4 -1.5 -11.5t-2.5 -10.5h-381zM337 683v2l10 62q1 12 14 12h11q10 0 10 -9v-3l-10 -62q-2 -12 -14 -12h-11q-10 0 -10 10z" />
    <glyph glyph-name="Zcaron" unicode="&#x17d;" horiz-adv-x="553" 
d="M48 22l534 688h-425l4 22h453l-4 -22l-534 -688h435l-3 -22h-463zM288 921h18l93 -115l143 115h18l-153 -130h-20z" />
    <glyph glyph-name="zcaron" unicode="&#x17e;" horiz-adv-x="497" 
d="M68 22l412 487h-349l3 22h376l-3 -22l-412 -486h355q0 -4 -1.5 -11.5t-2.5 -10.5h-381zM248 761h18l93 -115l143 115h18l-153 -130h-20z" />
    <glyph glyph-name="uni018F" unicode="&#x18f;" horiz-adv-x="591" 
d="M152.5 40.5q-42.5 46.5 -42.5 152.5q0 63 13 144l5 27h426q17 110 17 174q0 71 -21 109.5t-66 53.5t-125 15q-63 0 -104 -6.5t-50 -7.5l3 16q98 20 170 20q78 0 124.5 -16.5t70 -60t23.5 -123.5q0 -71 -16 -168q-23 -146 -63 -228t-95.5 -115t-131.5 -33
q-95 0 -137.5 46.5zM408 44.5q47 28.5 81.5 99t59.5 198.5h-402q-14 -93 -14 -151q0 -94 37 -134.5t121 -40.5q70 0 117 28.5z" />
    <glyph glyph-name="florin" unicode="&#x192;" horiz-adv-x="609" 
d="M-5 -198l6 16h75q41 0 72 24.5t60 82.5t62 163l106 335h-102l7 23h102l35 110q31 96 57 147t59.5 73t84.5 22q47 0 80 -6l-5 -16h-78q-43 0 -71 -20t-51 -65t-50 -129l-38 -117h144l-6 -22h-144l-106 -335q-35 -112 -66 -174t-68.5 -90t-91.5 -28q-46 0 -73 6z" />
    <glyph glyph-name="Ohorn" unicode="&#x1a0;" horiz-adv-x="678" 
d="M699 745q-35 -29 -80 -29h-32q46 -21 69.5 -67.5t23.5 -124.5q0 -71 -16 -170q-23 -148 -65 -226t-104 -106t-159 -28q-77 0 -125 16.5t-73.5 61t-25.5 127.5q0 70 16 169q24 150 64.5 230t103 110t161.5 30q42 0 77 -6h88q83 0 102 116h22q-12 -74 -47 -103z
M631.5 644.5q-23.5 41.5 -67 56.5t-112.5 15q-90 0 -146 -27.5t-93.5 -104t-60.5 -223.5q-16 -106 -16 -162q0 -75 22 -114.5t65.5 -54t118.5 -14.5q92 0 147 25.5t91 99.5t60 220q15 90 15 164q0 78 -23.5 119.5z" />
    <glyph glyph-name="ohorn" unicode="&#x1a1;" horiz-adv-x="578" 
d="M596.5 544q-34.5 -29 -79.5 -29h-43q39 -21 57.5 -60.5t18.5 -98.5q0 -40 -10 -105q-16 -98 -46 -153.5t-81.5 -79.5t-133.5 -24q-87 0 -136 40.5t-49 135.5q0 39 8 95q17 106 48 165t82 83t133 24q36 0 63 -6h91q85 0 102 116h22q-12 -74 -46.5 -103zM487.5 478.5
q-37.5 36.5 -127.5 36.5q-74 0 -118 -21t-71.5 -76t-44.5 -160q-8 -54 -8 -88q0 -89 42.5 -121.5t123.5 -32.5q71 0 115 19t72.5 71t44.5 152q9 57 9 98q0 86 -37.5 122.5z" />
    <glyph glyph-name="Uhorn" unicode="&#x1af;" horiz-adv-x="667" 
d="M779 746.5q-34 -29.5 -79 -30.5l-62 -396q-22 -136 -63 -207t-98.5 -95t-143.5 -24q-108 0 -161 44t-53 148q0 62 12 134l65 412h24l-65 -412q-13 -80 -13 -135q0 -93 46.5 -131t142.5 -38q83 0 135.5 21.5t90 87.5t57.5 195l65 412h22q83 0 102 116h22
q-12 -72 -46 -101.5z" />
    <glyph glyph-name="uhorn" unicode="&#x1b0;" horiz-adv-x="582" 
d="M640 548q-32 -30 -74 -33l-82 -515h-16l2 62q-56 -33 -109 -50.5t-118 -17.5q-69 0 -105 32.5t-36 89.5q0 25 4 51l58 364h24l-58 -369q-4 -24 -4 -41q0 -51 28.5 -78t91.5 -27q61 0 111 14.5t115 47.5l72 453h15q83 0 102 116h22q-11 -69 -43 -99z" />
    <glyph glyph-name="Gcaron" unicode="&#x1e6;" horiz-adv-x="636" 
d="M159 47q-44 53 -44 170q0 60 15 160q27 175 95.5 269t201.5 94q68 0 120.5 -8t103.5 -22l-2 -16q-113 24 -226 24q-119 0 -180.5 -88t-88.5 -262q-15 -93 -15 -159q0 -102 39.5 -147.5t129.5 -45.5q51 0 124.5 18t110.5 35l44 278h-214l2 16q24 4 69.5 5t101.5 1
q32 0 68 -3l-58 -366h-16l2 53q-37 -17 -109.5 -38t-128.5 -21q-101 0 -145 53zM350 921h18l93 -115l143 115h18l-153 -130h-20z" />
    <glyph glyph-name="gcaron" unicode="&#x1e7;" horiz-adv-x="559" 
d="M63 -232l3 16h156q85 0 147.5 37.5t75.5 112.5l21 125q-54 -33 -111.5 -49t-110.5 -16q-39 0 -73.5 19t-55.5 57.5t-21 93.5q0 46 10 111q14 89 43 146t84 86.5t146 29.5q100 0 186 -13l-94 -592q-11 -66 -53 -104t-95 -52.5t-103 -12.5zM351.5 29.5
q50.5 13.5 116.5 45.5l68 433l-67 3q-76 4 -112 4q-105 0 -157 -58.5t-72 -185.5q-10 -67 -10 -105q0 -74 36 -112t93 -38q54 0 104.5 13.5zM284 761h18l93 -115l143 115h18l-153 -130h-20z" />
    <glyph glyph-name="uni01EA" unicode="&#x1ea;" horiz-adv-x="678" 
d="M579.5 719q48.5 -19 74.5 -65.5t26 -129.5q0 -71 -16 -170q-20 -124 -52 -198t-78.5 -110t-112.5 -46q-43 -20 -67 -50t-24 -55q0 -30 23 -46t69 -16h5l-3 -14q-8 -1 -21 -1q-42 0 -67 19.5t-25 53.5q0 26 22.5 55.5t69.5 50.5q-31 -3 -67 -3q-77 0 -125 16.5t-73.5 61
t-25.5 127.5q0 70 16 169q24 150 64.5 230t103 110t161.5 30q74 0 122.5 -19zM655 525q0 78 -23.5 119.5t-67 56.5t-112.5 15q-90 0 -146 -27.5t-93.5 -104t-60.5 -223.5q-16 -106 -16 -162q0 -75 22 -114.5t65.5 -54t118.5 -14.5q92 0 147 25.5t91 99.5t60 220
q15 90 15 164z" />
    <glyph glyph-name="uni01EB" unicode="&#x1eb;" 
d="M506 492q44 -45 44 -136q0 -40 -10 -105q-20 -121 -62 -178.5t-123 -72.5q-43 -20 -67 -50t-24 -55q0 -30 23 -46t69 -16h5l-3 -14q-8 -1 -21 -1q-42 0 -67 19.5t-25 53.5q0 26 22.5 55.5t69.5 50.5q-27 -3 -58 -3q-87 0 -136 40.5t-49 135.5q0 39 8 95q17 106 48 165
t82 83t133 24q97 0 141 -45zM525 356q0 86 -37.5 122.5t-127.5 36.5q-74 0 -118 -21t-71.5 -76t-44.5 -160q-8 -54 -8 -88q0 -89 42.5 -121.5t123.5 -32.5q71 0 115 19t72.5 71t44.5 152q9 57 9 98z" />
    <glyph glyph-name="Aringacute" unicode="&#x1fa;" horiz-adv-x="660" 
d="M391 799.5q-25 19.5 -25 63.5q0 50 32.5 86t88.5 36h3l127 119h26l-139 -120q30 -4 49.5 -24t19.5 -57q0 -52 -31 -87.5t-86 -35.5q-40 0 -65 19.5zM408.5 939q-26.5 -30 -26.5 -76q0 -36 21 -51.5t53 -15.5q50 0 75.5 30t25.5 75q0 37 -20.5 52.5t-50.5 15.5
q-51 0 -77.5 -30zM469 732l146 -732h-25l-51 254h-333l-136 -254h-25l390 732h34zM535 276l-87 430l-230 -430h317z" />
    <glyph glyph-name="aringacute" unicode="&#x1fb;" horiz-adv-x="559" 
d="M138 38q-46 44 -46 133q0 37 10 97q22 142 83 205.5t184 63.5q51 0 103 -13.5t83 -42.5l-76 -481h-16l2 59q-30 -20 -92.5 -42.5t-113.5 -22.5q-75 0 -121 44zM357 30.5q45 14.5 110 44.5l63 401q-24 15 -67 27t-96 12q-80 0 -127.5 -26t-73.5 -81t-41 -150
q-9 -57 -9 -86q0 -79 38 -117.5t104 -38.5q54 0 99 14.5zM325 619.5q-25 19.5 -25 63.5q0 50 32.5 86t88.5 36q37 0 61.5 -20t24.5 -62q0 -52 -31 -87.5t-86 -35.5q-40 0 -65 19.5zM465.5 646q25.5 30 25.5 75q0 37 -20.5 52.5t-50.5 15.5q-51 0 -77.5 -30t-26.5 -76
q0 -36 21 -51.5t53 -15.5q50 0 75.5 30zM559 964h26l-154 -133h-14z" />
    <glyph glyph-name="AEacute" unicode="&#x1fc;" horiz-adv-x="896" 
d="M530 14q-36 19 -36 76q0 15 3 31l21 131h-259l-199 -252h-30l469 590q50 63 75 89t59 40t87 13l266 -6l-3 -16h-267q-50 0 -73.5 -10.5t-30.5 -28.5t-13 -56l-3 -23l-35 -218l329 -3l-3 -16l-329 -3l-37 -229q-2 -10 -2 -28q0 -45 26.5 -60.5t71.5 -15.5h257l-3 -16
l-249 -6q-56 -2 -92 17zM521 274l62 387l-306 -387h244zM727 924h26l-154 -133h-14z" />
    <glyph glyph-name="aeacute" unicode="&#x1fd;" horiz-adv-x="915" 
d="M136.5 37.5q-41.5 43.5 -41.5 133.5q0 155 62.5 260.5t213.5 105.5q46 0 100 -15.5t85 -40.5q64 60 183 60q87 0 132.5 -37.5t45.5 -108.5q0 -46 -30 -82t-85.5 -56.5t-127.5 -20.5q-59 0 -114 6.5t-70 12.5q-4 -39 -4 -78q0 -82 30.5 -121.5t111.5 -39.5h212l-3 -16
q-74 -6 -206 -6q-65 0 -105 26.5t-54 71.5q-38 -35 -99.5 -66.5t-120.5 -31.5q-74 0 -115.5 43.5zM829 291.5q63 33.5 63 100.5q0 60 -38 93.5t-108 33.5q-91 0 -141 -28t-73.5 -80t-39.5 -142q14 -2 62.5 -6.5t102.5 -4.5q109 0 172 33.5zM364 44.5q61 28.5 104 67.5
q-6 24 -6 55q0 80 19.5 162t62.5 139q-33 18 -79 32.5t-95 14.5q-139 0 -195 -100t-56 -241q0 -158 125 -158q59 0 120 28.5zM684 764h26l-154 -133h-14z" />
    <glyph glyph-name="Oslashacute" unicode="&#x1fe;" horiz-adv-x="678" 
d="M656 649q24 -46 24 -125q0 -71 -16 -170q-23 -148 -65 -226t-104 -106t-159 -28q-74 0 -120 15t-72 53l-54 -62h-25l69 79q-22 43 -22 120q0 70 16 169q24 150 64.5 230t103 110t161.5 30q70 0 116.5 -16.5t72.5 -55.5l58 66h25zM151 99l479 548q-23 39 -66 54t-112 15
q-90 0 -146 -27.5t-93.5 -104t-60.5 -223.5q-16 -106 -16 -162q0 -62 15 -100zM639 629l-479 -549q21 -37 64.5 -50.5t117.5 -13.5q92 0 147 25.5t91 99.5t60 220q15 90 15 164q0 61 -16 104zM586 924h26l-154 -133h-14z" />
    <glyph glyph-name="oslashacute" unicode="&#x1ff;" 
d="M521 473q29 -42 29 -117q0 -40 -10 -105q-16 -98 -46 -153.5t-81.5 -79.5t-133.5 -24q-101 0 -146 51l-41 -45h-22l52 58q-28 40 -28 112q0 39 8 95q17 106 48 165t82 83t133 24q102 0 146 -51l41 45h22zM138 75l358 394q-19 24 -52 35t-84 11q-74 0 -118 -21t-71.5 -76
t-44.5 -160q-8 -54 -8 -88q0 -60 20 -95zM505 455l-357 -393q20 -25 54.5 -35.5t81.5 -10.5q71 0 115 19t72.5 71t44.5 152q9 57 9 98q0 65 -20 99zM476 764h26l-154 -133h-14z" />
    <glyph glyph-name="uni0200" unicode="&#x200;" horiz-adv-x="660" 
d="M435 732h34l146 -732h-25l-51 254h-333l-136 -254h-25zM535 276l-87 430l-230 -430h317zM276 924h26l100 -133h-14zM396 924h26l100 -133h-14z" />
    <glyph glyph-name="uni0201" unicode="&#x201;" horiz-adv-x="559" 
d="M138 38q-46 44 -46 133q0 37 10 97q22 142 83 205.5t184 63.5q51 0 103 -13.5t83 -42.5l-76 -481h-16l2 59q-30 -20 -92.5 -42.5t-113.5 -22.5q-75 0 -121 44zM357 30.5q45 14.5 110 44.5l63 401q-24 15 -67 27t-96 12q-80 0 -127.5 -26t-73.5 -81t-41 -150
q-9 -57 -9 -86q0 -79 38 -117.5t104 -38.5q54 0 99 14.5zM230 764h26l100 -133h-14zM350 764h26l100 -133h-14z" />
    <glyph glyph-name="uni0202" unicode="&#x202;" horiz-adv-x="660" 
d="M435 732h34l146 -732h-25l-51 254h-333l-136 -254h-25zM535 276l-87 430l-230 -430h317zM379.5 897q40.5 30 94.5 30q45 0 75 -23.5t30 -77.5q0 -9 -2 -33h-14q2 22 2 30q0 46 -25.5 68t-67.5 22q-48 0 -84.5 -28.5t-46.5 -91.5h-14q12 74 52.5 104z" />
    <glyph glyph-name="uni0203" unicode="&#x203;" horiz-adv-x="559" 
d="M138 38q-46 44 -46 133q0 37 10 97q22 142 83 205.5t184 63.5q51 0 103 -13.5t83 -42.5l-76 -481h-16l2 59q-30 -20 -92.5 -42.5t-113.5 -22.5q-75 0 -121 44zM357 30.5q45 14.5 110 44.5l63 401q-24 15 -67 27t-96 12q-80 0 -127.5 -26t-73.5 -81t-41 -150
q-9 -57 -9 -86q0 -79 38 -117.5t104 -38.5q54 0 99 14.5zM303.5 737q40.5 30 94.5 30q45 0 75 -23.5t30 -77.5q0 -9 -2 -33h-14q2 22 2 30q0 46 -25.5 68t-67.5 22q-48 0 -84.5 -28.5t-46.5 -91.5h-14q12 74 52.5 104z" />
    <glyph glyph-name="uni0204" unicode="&#x204;" horiz-adv-x="565" 
d="M97 94q0 15 3 34l76 479q11 68 51 97t95 28l297 -6l-3 -16h-297q-49 0 -80 -25t-40 -83l-36 -227l359 -6l-3 -16l-360 -2l-35 -228q-3 -16 -3 -30q0 -45 25.5 -61t73.5 -16h288l-3 -16l-289 -6q-119 -2 -119 100zM246 924h26l100 -133h-14zM366 924h26l100 -133h-14z" />
    <glyph glyph-name="uni0205" unicode="&#x205;" horiz-adv-x="548" 
d="M148 37.5q-53 43.5 -53 133.5q0 52 11 120q17 121 80 185.5t184 64.5q90 0 135 -32t45 -103q0 -94 -74 -132t-189 -38q-51 0 -95 5.5t-68 12.5q-5 -34 -5 -81q0 -83 46 -120t152 -37h154l-3 -16q-102 -6 -153 -6q-114 0 -167 43.5zM459 289.5q67 31.5 67 114.5
q0 62 -38.5 88.5t-119.5 26.5q-116 0 -170 -61.5t-72 -187.5q62 -12 143 -12q123 0 190 31.5zM228 764h26l100 -133h-14zM348 764h26l100 -133h-14z" />
    <glyph glyph-name="uni0206" unicode="&#x206;" horiz-adv-x="565" 
d="M97 94q0 15 3 34l76 479q11 68 51 97t95 28l297 -6l-3 -16h-297q-49 0 -80 -25t-40 -83l-36 -227l359 -6l-3 -16l-360 -2l-35 -228q-3 -16 -3 -30q0 -45 25.5 -61t73.5 -16h288l-3 -16l-289 -6q-119 -2 -119 100zM349.5 897q40.5 30 94.5 30q45 0 75 -23.5t30 -77.5
q0 -9 -2 -33h-14q2 22 2 30q0 46 -25.5 68t-67.5 22q-48 0 -84.5 -28.5t-46.5 -91.5h-14q12 74 52.5 104z" />
    <glyph glyph-name="uni0207" unicode="&#x207;" horiz-adv-x="548" 
d="M148 37.5q-53 43.5 -53 133.5q0 52 11 120q17 121 80 185.5t184 64.5q90 0 135 -32t45 -103q0 -94 -74 -132t-189 -38q-51 0 -95 5.5t-68 12.5q-5 -34 -5 -81q0 -83 46 -120t152 -37h154l-3 -16q-102 -6 -153 -6q-114 0 -167 43.5zM459 289.5q67 31.5 67 114.5
q0 62 -38.5 88.5t-119.5 26.5q-116 0 -170 -61.5t-72 -187.5q62 -12 143 -12q123 0 190 31.5zM301.5 737q40.5 30 94.5 30q45 0 75 -23.5t30 -77.5q0 -9 -2 -33h-14q2 22 2 30q0 46 -25.5 68t-67.5 22q-48 0 -84.5 -28.5t-46.5 -91.5h-14q12 74 52.5 104z" />
    <glyph glyph-name="uni0208" unicode="&#x208;" horiz-adv-x="184" 
d="M196 732h24l-116 -732h-24zM37 924h26l100 -133h-14zM157 924h26l100 -133h-14z" />
    <glyph glyph-name="uni0209" unicode="&#x209;" horiz-adv-x="184" 
d="M164 531h24l-84 -531h-24zM42 764h26l100 -133h-14zM162 764h26l100 -133h-14z" />
    <glyph glyph-name="uni020A" unicode="&#x20a;" horiz-adv-x="184" 
d="M196 732h24l-116 -732h-24zM140.5 897q40.5 30 94.5 30q45 0 75 -23.5t30 -77.5q0 -9 -2 -33h-14q2 22 2 30q0 46 -25.5 68t-67.5 22q-48 0 -84.5 -28.5t-46.5 -91.5h-14q12 74 52.5 104z" />
    <glyph glyph-name="uni020B" unicode="&#x20b;" horiz-adv-x="184" 
d="M164 531h24l-84 -531h-24zM115.5 737q40.5 30 94.5 30q45 0 75 -23.5t30 -77.5q0 -9 -2 -33h-14q2 22 2 30q0 46 -25.5 68t-67.5 22q-48 0 -84.5 -28.5t-46.5 -91.5h-14q12 74 52.5 104z" />
    <glyph glyph-name="uni020C" unicode="&#x20c;" horiz-adv-x="678" 
d="M211 10.5q-48 16.5 -73.5 61t-25.5 127.5q0 70 16 169q24 150 64.5 230t103 110t161.5 30q74 0 122.5 -19t74.5 -65.5t26 -129.5q0 -71 -16 -170q-23 -148 -65 -226t-104 -106t-159 -28q-77 0 -125 16.5zM489 41.5q55 25.5 91 99.5t60 220q15 90 15 164q0 78 -23.5 119.5
t-67 56.5t-112.5 15q-90 0 -146 -27.5t-93.5 -104t-60.5 -223.5q-16 -106 -16 -162q0 -75 22 -114.5t65.5 -54t118.5 -14.5q92 0 147 25.5zM288 924h26l100 -133h-14zM408 924h26l100 -133h-14z" />
    <glyph glyph-name="uni020D" unicode="&#x20d;" 
d="M143 34.5q-49 40.5 -49 135.5q0 39 8 95q17 106 48 165t82 83t133 24q97 0 141 -45t44 -136q0 -40 -10 -105q-16 -98 -46 -153.5t-81.5 -79.5t-133.5 -24q-87 0 -136 40.5zM399 35q44 19 72.5 71t44.5 152q9 57 9 98q0 86 -37.5 122.5t-127.5 36.5q-74 0 -118 -21
t-71.5 -76t-44.5 -160q-8 -54 -8 -88q0 -89 42.5 -121.5t123.5 -32.5q71 0 115 19zM224 764h26l100 -133h-14zM344 764h26l100 -133h-14z" />
    <glyph glyph-name="uni020E" unicode="&#x20e;" horiz-adv-x="678" 
d="M211 10.5q-48 16.5 -73.5 61t-25.5 127.5q0 70 16 169q24 150 64.5 230t103 110t161.5 30q74 0 122.5 -19t74.5 -65.5t26 -129.5q0 -71 -16 -170q-23 -148 -65 -226t-104 -106t-159 -28q-77 0 -125 16.5zM489 41.5q55 25.5 91 99.5t60 220q15 90 15 164q0 78 -23.5 119.5
t-67 56.5t-112.5 15q-90 0 -146 -27.5t-93.5 -104t-60.5 -223.5q-16 -106 -16 -162q0 -75 22 -114.5t65.5 -54t118.5 -14.5q92 0 147 25.5zM391.5 897q40.5 30 94.5 30q45 0 75 -23.5t30 -77.5q0 -9 -2 -33h-14q2 22 2 30q0 46 -25.5 68t-67.5 22q-48 0 -84.5 -28.5
t-46.5 -91.5h-14q12 74 52.5 104z" />
    <glyph glyph-name="uni020F" unicode="&#x20f;" 
d="M143 34.5q-49 40.5 -49 135.5q0 39 8 95q17 106 48 165t82 83t133 24q97 0 141 -45t44 -136q0 -40 -10 -105q-16 -98 -46 -153.5t-81.5 -79.5t-133.5 -24q-87 0 -136 40.5zM399 35q44 19 72.5 71t44.5 152q9 57 9 98q0 86 -37.5 122.5t-127.5 36.5q-74 0 -118 -21
t-71.5 -76t-44.5 -160q-8 -54 -8 -88q0 -89 42.5 -121.5t123.5 -32.5q71 0 115 19zM297.5 737q40.5 30 94.5 30q45 0 75 -23.5t30 -77.5q0 -9 -2 -33h-14q2 22 2 30q0 46 -25.5 68t-67.5 22q-48 0 -84.5 -28.5t-46.5 -91.5h-14q12 74 52.5 104z" />
    <glyph glyph-name="uni0210" unicode="&#x210;" horiz-adv-x="604" 
d="M196 732h256q64 0 111.5 -34t47.5 -123q0 -22 -5 -57q-18 -110 -67.5 -149t-113.5 -43l109 -326h-24l-109 325q-17 0 -28 1q-181 3 -217 5l-52 -331h-24zM401 347q69 0 116.5 35.5t63.5 139.5q4 25 4 51q0 79 -39 108t-98 29h-232l-57 -363h242zM206 924h26l100 -133h-14
zM326 924h26l100 -133h-14z" />
    <glyph glyph-name="uni0211" unicode="&#x211;" horiz-adv-x="376" 
d="M164 531h16l-2 -62q89 68 177 68q50 0 75 -8l-4 -24q-34 8 -75 8q-46 0 -88 -16t-87 -44l-72 -453h-24zM140 764h26l100 -133h-14zM260 764h26l100 -133h-14z" />
    <glyph glyph-name="uni0212" unicode="&#x212;" horiz-adv-x="604" 
d="M196 732h256q64 0 111.5 -34t47.5 -123q0 -22 -5 -57q-18 -110 -67.5 -149t-113.5 -43l109 -326h-24l-109 325q-17 0 -28 1q-181 3 -217 5l-52 -331h-24zM401 347q69 0 116.5 35.5t63.5 139.5q4 25 4 51q0 79 -39 108t-98 29h-232l-57 -363h242zM309.5 897
q40.5 30 94.5 30q45 0 75 -23.5t30 -77.5q0 -9 -2 -33h-14q2 22 2 30q0 46 -25.5 68t-67.5 22q-48 0 -84.5 -28.5t-46.5 -91.5h-14q12 74 52.5 104z" />
    <glyph glyph-name="uni0213" unicode="&#x213;" horiz-adv-x="376" 
d="M164 531h16l-2 -62q89 68 177 68q50 0 75 -8l-4 -24q-34 8 -75 8q-46 0 -88 -16t-87 -44l-72 -453h-24zM213.5 737q40.5 30 94.5 30q45 0 75 -23.5t30 -77.5q0 -9 -2 -33h-14q2 22 2 30q0 46 -25.5 68t-67.5 22q-48 0 -84.5 -28.5t-46.5 -91.5h-14q12 74 52.5 104z" />
    <glyph glyph-name="uni0214" unicode="&#x214;" horiz-adv-x="667" 
d="M172 38q-53 44 -53 148q0 62 12 134l65 412h24l-65 -412q-13 -80 -13 -135q0 -93 46.5 -131t142.5 -38q83 0 135.5 21.5t90 87.5t57.5 195l65 412h24l-65 -412q-22 -136 -63 -207t-98.5 -95t-143.5 -24q-108 0 -161 44zM266 924h26l100 -133h-14zM386 924h26l100 -133
h-14z" />
    <glyph glyph-name="uni0215" unicode="&#x215;" horiz-adv-x="564" 
d="M138 26.5q-36 32.5 -36 89.5q0 25 4 51l58 364h24l-58 -369q-4 -24 -4 -41q0 -51 28.5 -78t91.5 -27q61 0 111 14.5t115 47.5l72 453h24l-84 -531h-16l2 62q-56 -33 -109 -50.5t-118 -17.5q-69 0 -105 32.5zM230 764h26l100 -133h-14zM350 764h26l100 -133h-14z" />
    <glyph glyph-name="uni0216" unicode="&#x216;" horiz-adv-x="667" 
d="M172 38q-53 44 -53 148q0 62 12 134l65 412h24l-65 -412q-13 -80 -13 -135q0 -93 46.5 -131t142.5 -38q83 0 135.5 21.5t90 87.5t57.5 195l65 412h24l-65 -412q-22 -136 -63 -207t-98.5 -95t-143.5 -24q-108 0 -161 44zM369.5 897q40.5 30 94.5 30q45 0 75 -23.5
t30 -77.5q0 -9 -2 -33h-14q2 22 2 30q0 46 -25.5 68t-67.5 22q-48 0 -84.5 -28.5t-46.5 -91.5h-14q12 74 52.5 104z" />
    <glyph glyph-name="uni0217" unicode="&#x217;" horiz-adv-x="564" 
d="M138 26.5q-36 32.5 -36 89.5q0 25 4 51l58 364h24l-58 -369q-4 -24 -4 -41q0 -51 28.5 -78t91.5 -27q61 0 111 14.5t115 47.5l72 453h24l-84 -531h-16l2 62q-56 -33 -109 -50.5t-118 -17.5q-69 0 -105 32.5zM303.5 737q40.5 30 94.5 30q45 0 75 -23.5t30 -77.5
q0 -9 -2 -33h-14q2 22 2 30q0 46 -25.5 68t-67.5 22q-48 0 -84.5 -28.5t-46.5 -91.5h-14q12 74 52.5 104z" />
    <glyph glyph-name="Scommaaccent" unicode="&#x218;" horiz-adv-x="565" 
d="M181 -3q-63 3 -102 9l2 16q80 -6 221 -6q90 0 141.5 29.5t64.5 112.5l10 66q3 20 3 37q0 50 -29 73t-92 23h-112q-68 0 -101 25t-33 82q0 17 3 38l10 66q15 99 67.5 134.5t145.5 35.5q33 0 104.5 -5.5t104.5 -10.5l-2 -16q-126 8 -205 8q-59 0 -97 -12t-61.5 -43.5
t-32.5 -90.5l-10 -66q-3 -19 -3 -36q0 -48 26.5 -66.5t85.5 -18.5h114q72 0 106.5 -28.5t34.5 -87.5q0 -18 -3 -41l-10 -66q-14 -95 -75 -129.5t-160 -34.5q-53 0 -116 3zM185 -181l32 3q32 3 50 11.5t31.5 34t20.5 77.5h17q-8 -53 -21 -81.5t-37.5 -41.5t-67.5 -13h-27z
" />
    <glyph glyph-name="scommaaccent" unicode="&#x219;" horiz-adv-x="502" 
d="M159.5 -4.5q-71.5 1.5 -92.5 4.5l3 16h212q68 0 106 22t47 75l8 49q1 6 1 17q0 37 -22 55t-68 18h-113q-66 0 -96 18.5t-30 58.5q0 20 4 40l8 46q10 60 49 91t118 31q44 0 98.5 -1.5t98.5 -4.5l-4 -16h-197q-66 0 -98 -24t-41 -76l-8 -46q-4 -27 -4 -40q0 -29 24 -41
t80 -12h112q51 0 82.5 -25.5t31.5 -72.5q0 -6 -2 -22l-8 -49q-9 -59 -55.5 -86t-125.5 -27q-47 0 -118.5 1.5zM131 -181l32 3q32 3 50 11.5t31.5 34t20.5 77.5h17q-8 -53 -21 -81.5t-37.5 -41.5t-67.5 -13h-27z" />
    <glyph glyph-name="uni021A" unicode="&#x21a;" horiz-adv-x="602" 
d="M396 710h-254l4 22h532l-4 -22h-254l-112 -710h-24zM195 -181l32 3q32 3 50 11.5t31.5 34t20.5 77.5h17q-8 -53 -21 -81.5t-37.5 -41.5t-67.5 -13h-27z" />
    <glyph glyph-name="uni021B" unicode="&#x21b;" horiz-adv-x="366" 
d="M173.5 28q-28.5 28 -28.5 79q0 26 4 51t5 30l53 321h-86l2 16l85 6l32 149h16l-24 -149h175l-3 -22h-175l-51 -321q-9 -56 -9 -81q0 -39 20 -60t62 -25l66 -6l-3 -16h-56q-56 0 -84.5 28zM130 -181l32 3q32 3 50 11.5t31.5 34t20.5 77.5h17q-8 -53 -21 -81.5t-37.5 -41.5
t-67.5 -13h-27z" />
    <glyph glyph-name="uni022A" unicode="&#x22a;" horiz-adv-x="678" 
d="M211 10.5q-48 16.5 -73.5 61t-25.5 127.5q0 70 16 169q24 150 64.5 230t103 110t161.5 30q74 0 122.5 -19t74.5 -65.5t26 -129.5q0 -71 -16 -170q-23 -148 -65 -226t-104 -106t-159 -28q-77 0 -125 16.5zM489 41.5q55 25.5 91 99.5t60 220q15 90 15 164q0 78 -23.5 119.5
t-67 56.5t-112.5 15q-90 0 -146 -27.5t-93.5 -104t-60.5 -223.5q-16 -106 -16 -162q0 -75 22 -114.5t65.5 -54t118.5 -14.5q92 0 147 25.5zM341 836l10 64q1 12 15 12h11q10 0 10 -9q0 4 -11 -65q-2 -12 -14 -12h-11q-10 0 -10 10zM549 836l10 64q1 12 15 12h11q10 0 10 -9
q0 4 -11 -65q-2 -12 -14 -12h-11q-10 0 -10 10zM360 996h252l-3 -15h-252z" />
    <glyph glyph-name="uni022B" unicode="&#x22b;" 
d="M143 34.5q-49 40.5 -49 135.5q0 39 8 95q17 106 48 165t82 83t133 24q97 0 141 -45t44 -136q0 -40 -10 -105q-16 -98 -46 -153.5t-81.5 -79.5t-133.5 -24q-87 0 -136 40.5zM399 35q44 19 72.5 71t44.5 152q9 57 9 98q0 86 -37.5 122.5t-127.5 36.5q-74 0 -118 -21
t-71.5 -76t-44.5 -160q-8 -54 -8 -88q0 -89 42.5 -121.5t123.5 -32.5q71 0 115 19zM247 676l10 64q1 12 15 12h11q10 0 10 -9q0 4 -11 -65q-2 -12 -14 -12h-11q-10 0 -10 10zM455 676l10 64q1 12 15 12h11q10 0 10 -9q0 4 -11 -65q-2 -12 -14 -12h-11q-10 0 -10 10zM266 846
h252l-3 -15h-252z" />
    <glyph glyph-name="uni022C" unicode="&#x22c;" horiz-adv-x="678" 
d="M211 10.5q-48 16.5 -73.5 61t-25.5 127.5q0 70 16 169q24 150 64.5 230t103 110t161.5 30q74 0 122.5 -19t74.5 -65.5t26 -129.5q0 -71 -16 -170q-23 -148 -65 -226t-104 -106t-159 -28q-77 0 -125 16.5zM489 41.5q55 25.5 91 99.5t60 220q15 90 15 164q0 78 -23.5 119.5
t-67 56.5t-112.5 15q-90 0 -146 -27.5t-93.5 -104t-60.5 -223.5q-16 -106 -16 -162q0 -75 22 -114.5t65.5 -54t118.5 -14.5q92 0 147 25.5zM360 996h252l-3 -15h-252zM343 888.5q29 21.5 66 21.5q21 0 39.5 -9.5t41.5 -28.5q22 -17 38.5 -26t35.5 -9q32 0 54.5 19t28.5 54
h14q-6 -40 -32.5 -64.5t-68.5 -24.5q-19 0 -35.5 9t-39.5 27q-27 19 -43.5 28t-37.5 9q-31 0 -54 -18t-29 -55h-14q7 46 36 67.5z" />
    <glyph glyph-name="uni022D" unicode="&#x22d;" 
d="M143 34.5q-49 40.5 -49 135.5q0 39 8 95q17 106 48 165t82 83t133 24q97 0 141 -45t44 -136q0 -40 -10 -105q-16 -98 -46 -153.5t-81.5 -79.5t-133.5 -24q-87 0 -136 40.5zM399 35q44 19 72.5 71t44.5 152q9 57 9 98q0 86 -37.5 122.5t-127.5 36.5q-74 0 -118 -21
t-71.5 -76t-44.5 -160q-8 -54 -8 -88q0 -89 42.5 -121.5t123.5 -32.5q71 0 115 19zM266 846h252l-3 -15h-252zM239 728.5q29 21.5 66 21.5q21 0 39.5 -9.5t41.5 -28.5q22 -17 38.5 -26t35.5 -9q32 0 54.5 19t28.5 54h14q-6 -40 -32.5 -64.5t-68.5 -24.5q-19 0 -35.5 9
t-39.5 27q-27 19 -43.5 28t-37.5 9q-31 0 -54 -18t-29 -55h-14q7 46 36 67.5z" />
    <glyph glyph-name="uni0230" unicode="&#x230;" horiz-adv-x="678" 
d="M211 10.5q-48 16.5 -73.5 61t-25.5 127.5q0 70 16 169q24 150 64.5 230t103 110t161.5 30q74 0 122.5 -19t74.5 -65.5t26 -129.5q0 -71 -16 -170q-23 -148 -65 -226t-104 -106t-159 -28q-77 0 -125 16.5zM489 41.5q55 25.5 91 99.5t60 220q15 90 15 164q0 78 -23.5 119.5
t-67 56.5t-112.5 15q-90 0 -146 -27.5t-93.5 -104t-60.5 -223.5q-16 -106 -16 -162q0 -75 22 -114.5t65.5 -54t118.5 -14.5q92 0 147 25.5zM458 843v2l10 62q1 12 14 12h11q10 0 10 -9v-3l-10 -62q-2 -12 -14 -12h-11q-10 0 -10 10zM370 1016h252l-3 -15h-252z" />
    <glyph glyph-name="uni0231" unicode="&#x231;" 
d="M143 34.5q-49 40.5 -49 135.5q0 39 8 95q17 106 48 165t82 83t133 24q97 0 141 -45t44 -136q0 -40 -10 -105q-16 -98 -46 -153.5t-81.5 -79.5t-133.5 -24q-87 0 -136 40.5zM399 35q44 19 72.5 71t44.5 152q9 57 9 98q0 86 -37.5 122.5t-127.5 36.5q-74 0 -118 -21
t-71.5 -76t-44.5 -160q-8 -54 -8 -88q0 -89 42.5 -121.5t123.5 -32.5q71 0 115 19zM367 683v2l10 62q1 12 14 12h11q10 0 10 -9v-3l-10 -62q-2 -12 -14 -12h-11q-10 0 -10 10zM286 846h252l-3 -15h-252z" />
    <glyph glyph-name="uni0232" unicode="&#x232;" horiz-adv-x="590" 
d="M314 260l-168 472h27l156 -440l318 440h29l-338 -472l-41 -260h-24zM286 866h252l-3 -15h-252z" />
    <glyph glyph-name="uni0233" unicode="&#x233;" horiz-adv-x="543" 
d="M97 -215q45 11 97 63.5t99 151.5q-27 3 -45.5 10.5t-35 31t-25.5 68.5l-83 421h24l82 -415q10 -53 33 -70.5t62 -20.5l205 429q25 55 28 85h16q0 -50 -21 -93l-213 -445q-57 -119 -109.5 -172.5t-113.5 -65.5v22zM232 706h252l-3 -15h-252z" />
    <glyph glyph-name="uni0237" unicode="&#x237;" horiz-adv-x="184" 
d="M164 531h24l-85 -535q-22 -137 -45 -233h-16z" />
    <glyph glyph-name="uni0259" unicode="&#x259;" horiz-adv-x="550" 
d="M486 493.5q53 -43.5 53 -133.5q0 -52 -11 -120q-17 -121 -80 -185.5t-184 -64.5q-90 0 -135 32t-45 103q0 94 74 132t189 38q51 0 95 -5.5t68 -12.5q5 34 5 81q0 83 -46 120t-152 37h-154l3 16q102 6 153 6q114 0 167 -43.5zM175 241.5q-67 -31.5 -67 -114.5
q0 -62 38.5 -88.5t119.5 -26.5q116 0 170 61.5t72 187.5q-62 12 -143 12q-123 0 -190 -31.5z" />
    <glyph glyph-name="uni02B9" unicode="&#x2b9;" horiz-adv-x="104" 
d="M180 763h24l-87 -288h-17z" />
    <glyph glyph-name="uni02BA" unicode="&#x2ba;" horiz-adv-x="184" 
d="M180 763h24l-87 -288h-17zM260 763h24l-87 -288h-17z" />
    <glyph glyph-name="uni02BB" unicode="&#x2bb;" horiz-adv-x="114" 
d="M170.5 734.5q1.5 -0.5 2.5 -0.5l-1 -6q-9 0 -13 -3.5t-6 -11.5l-7 -47h6q10 0 10 -10v-3l-10 -60q-1 -13 -14 -13h-10q-10 0 -10 9v4l18 110q5 32 30 32q3 0 4.5 -0.5z" />
    <glyph glyph-name="uni02BC" unicode="&#x2bc;" horiz-adv-x="169" 
d="M149 552l2 7q10 0 15 4.5t7 14.5l10 67h-7q-5 0 -8.5 3.5t-3.5 8.5q0 3 1 4l10 63q1 16 16 16h12q7 0 7 -10v-6l-22 -134q-3 -22 -12 -30.5t-19 -8.5z" />
    <glyph glyph-name="uni02BE" unicode="&#x2be;" horiz-adv-x="192" 
d="M108 606q68 0 101 28t33 76q0 43 -25.5 61t-79.5 18l2 16q64 0 95.5 -21.5t31.5 -71.5q0 -53 -41.5 -87.5t-119.5 -34.5z" />
    <glyph glyph-name="uni02BF" unicode="&#x2bf;" horiz-adv-x="192" 
d="M151.5 611.5q-31.5 21.5 -31.5 70.5q0 54 41.5 88.5t119.5 34.5l-2 -16q-68 0 -101.5 -28.5t-33.5 -76.5q0 -41 26 -59.5t80 -18.5l-3 -16q-64 0 -95.5 21.5z" />
    <glyph glyph-name="circumflex" unicode="&#x2c6;" horiz-adv-x="407" 
d="M321 761h20l99 -130h-18l-94 115l-142 -115h-18z" />
    <glyph glyph-name="caron" unicode="&#x2c7;" horiz-adv-x="407" 
d="M189 761h18l93 -115l143 115h18l-153 -130h-20z" />
    <glyph glyph-name="uni02C8" unicode="&#x2c8;" horiz-adv-x="84" 
d="M151 763h24l-41 -260h-24z" />
    <glyph glyph-name="uni02C9" unicode="&#x2c9;" horiz-adv-x="312" 
d="M142 706h252l-3 -15h-252z" />
    <glyph glyph-name="uni02CA" unicode="&#x2ca;" horiz-adv-x="204" 
d="M269 764h26l-154 -133h-14z" />
    <glyph glyph-name="uni02CB" unicode="&#x2cb;" horiz-adv-x="204" 
d="M148 764h26l100 -133h-14z" />
    <glyph glyph-name="uni02CC" unicode="&#x2cc;" horiz-adv-x="84" 
d="M34 23h24l-41 -260h-24z" />
    <glyph glyph-name="breve" unicode="&#x2d8;" horiz-adv-x="363" 
d="M207 656.5q-30 23.5 -30 77.5q0 9 2 33h14q-2 -22 -2 -30q0 -46 25 -68t66 -22q50 0 86.5 28.5t46.5 91.5h14q-12 -74 -52.5 -104t-94.5 -30q-45 0 -75 23.5z" />
    <glyph glyph-name="dotaccent" unicode="&#x2d9;" horiz-adv-x="170" 
d="M169 676v2l10 62q2 12 14 12h11q10 0 10 -9v-3l-10 -62q-1 -12 -14 -12h-11q-10 0 -10 10z" />
    <glyph glyph-name="ring" unicode="&#x2da;" horiz-adv-x="338" 
d="M202 619.5q-25 19.5 -25 63.5q0 50 32.5 86t88.5 36q37 0 61.5 -20t24.5 -62q0 -52 -31 -87.5t-86 -35.5q-40 0 -65 19.5zM342.5 646q25.5 30 25.5 75q0 37 -20.5 52.5t-50.5 15.5q-51 0 -77.5 -30t-26.5 -76q0 -36 21 -51.5t53 -15.5q50 0 75.5 30z" />
    <glyph glyph-name="ogonek" unicode="&#x2db;" horiz-adv-x="258" 
d="M74 -162.5q-25 19.5 -25 53.5q0 27 23.5 57.5t74.5 51.5h12q-43 -20 -67 -50t-24 -55q0 -30 23 -46t69 -16h5l-3 -14q-8 -1 -21 -1q-42 0 -67 19.5z" />
    <glyph glyph-name="tilde" unicode="&#x2dc;" horiz-adv-x="473" 
d="M208 728.5q29 21.5 66 21.5q21 0 39.5 -9.5t41.5 -28.5q22 -17 38.5 -26t35.5 -9q32 0 54.5 19t28.5 54h14q-6 -40 -32.5 -64.5t-68.5 -24.5q-19 0 -35.5 9t-39.5 27q-27 19 -43.5 28t-37.5 9q-31 0 -54 -18t-29 -55h-14q7 46 36 67.5z" />
    <glyph glyph-name="hungarumlaut" unicode="&#x2dd;" horiz-adv-x="344" 
d="M269 764h26l-154 -133h-14zM408 764h26l-154 -133h-14z" />
    <glyph glyph-name="gravecomb" unicode="&#x300;" horiz-adv-x="0" 
d="M-362 764h26l100 -133h-14z" />
    <glyph glyph-name="acutecomb" unicode="&#x301;" horiz-adv-x="0" 
d="M-141 764h26l-154 -133h-14z" />
    <glyph glyph-name="uni0302" unicode="&#x302;" horiz-adv-x="0" 
d="M-246 761h20l99 -130h-18l-94 115l-142 -115h-18z" />
    <glyph glyph-name="tildecomb" unicode="&#x303;" horiz-adv-x="0" 
d="M-377 728.5q29 21.5 66 21.5q21 0 39.5 -9.5t41.5 -28.5q22 -17 38.5 -26t35.5 -9q32 0 54.5 19t28.5 54h14q-6 -40 -32.5 -64.5t-68.5 -24.5q-19 0 -35.5 9t-39.5 27q-27 19 -43.5 28t-37.5 9q-31 0 -54 -18t-29 -55h-14q7 46 36 67.5z" />
    <glyph glyph-name="uni0304" unicode="&#x304;" horiz-adv-x="0" 
d="M-380 706h252l-3 -15h-252z" />
    <glyph glyph-name="uni0306" unicode="&#x306;" horiz-adv-x="0" 
d="M-341 656.5q-30 23.5 -30 77.5q0 9 2 33h14q-2 -22 -2 -30q0 -46 25 -68t66 -22q50 0 86.5 28.5t46.5 91.5h14q-12 -74 -52.5 -104t-94.5 -30q-45 0 -75 23.5z" />
    <glyph glyph-name="uni0307" unicode="&#x307;" horiz-adv-x="0" 
d="M-279 683v2l10 62q1 12 14 12h11q10 0 10 -9v-3l-10 -62q-2 -12 -14 -12h-11q-10 0 -10 10z" />
    <glyph glyph-name="uni0308" unicode="&#x308;" horiz-adv-x="0" 
d="M-399 676l10 64q1 12 15 12h11q10 0 10 -9q0 4 -11 -65q-2 -12 -14 -12h-11q-10 0 -10 10zM-191 676l10 64q1 12 15 12h11q10 0 10 -9q0 4 -11 -65q-2 -12 -14 -12h-11q-10 0 -10 10z" />
    <glyph glyph-name="hookabovecomb" unicode="&#x309;" horiz-adv-x="0" 
d="M-331 624q82 25 82 89q0 43 -50 43q-20 0 -40 -6l2 14q19 6 43 6q61 0 61 -56q0 -34 -24.5 -62t-76.5 -42z" />
    <glyph glyph-name="uni030A" unicode="&#x30a;" horiz-adv-x="0" 
d="M-327 619.5q-25 19.5 -25 63.5q0 50 32.5 86t88.5 36q37 0 61.5 -20t24.5 -62q0 -52 -31 -87.5t-86 -35.5q-40 0 -65 19.5zM-186.5 646q25.5 30 25.5 75q0 37 -20.5 52.5t-50.5 15.5q-51 0 -77.5 -30t-26.5 -76q0 -36 21 -51.5t53 -15.5q50 0 75.5 30z" />
    <glyph glyph-name="uni030B" unicode="&#x30b;" horiz-adv-x="0" 
d="M-221 764h26l-154 -133h-14zM-82 764h26l-154 -133h-14z" />
    <glyph glyph-name="uni030C" unicode="&#x30c;" horiz-adv-x="0" 
d="M-368 761h18l93 -115l143 115h18l-153 -130h-20z" />
    <glyph glyph-name="uni030F" unicode="&#x30f;" horiz-adv-x="0" 
d="M-422 764h26l100 -133h-14zM-302 764h26l100 -133h-14z" />
    <glyph glyph-name="uni0311" unicode="&#x311;" horiz-adv-x="0" 
d="M-348.5 737q40.5 30 94.5 30q45 0 75 -23.5t30 -77.5q0 -9 -2 -33h-14q2 22 2 30q0 46 -25.5 68t-67.5 22q-48 0 -84.5 -28.5t-46.5 -91.5h-14q12 74 52.5 104z" />
    <glyph glyph-name="uni0312" unicode="&#x312;" horiz-adv-x="0" 
d="M-231 690.5q13 28.5 37.5 41.5t67.5 13h27l-2 -10l-32 -3q-32 -3 -50 -11.5t-31.5 -34t-20.5 -77.5h-17q8 53 21 81.5z" />
    <glyph glyph-name="uni031B" unicode="&#x31b;" horiz-adv-x="0" 
d="M-278 531h104q85 0 102 116h22q-12 -74 -46.5 -103t-79.5 -29h-104z" />
    <glyph glyph-name="dotbelowcomb" unicode="&#x323;" horiz-adv-x="0" 
d="M-299 -187v2l10 62q1 12 14 12h11q10 0 10 -9v-3l-10 -62q-2 -12 -14 -12h-11q-10 0 -10 10z" />
    <glyph glyph-name="uni0324" unicode="&#x324;" horiz-adv-x="0" 
d="M-399 -174l10 64q1 12 15 12h11q10 0 10 -9q0 4 -11 -65q-2 -12 -14 -12h-11q-10 0 -10 10zM-191 -174l10 64q1 12 15 12h11q10 0 10 -9q0 4 -11 -65q-2 -12 -14 -12h-11q-10 0 -10 10z" />
    <glyph glyph-name="uni0326" unicode="&#x326;" horiz-adv-x="0" 
d="M-389 -181l32 3q32 3 50 11.5t31.5 34t20.5 77.5h17q-8 -53 -21 -81.5t-37.5 -41.5t-67.5 -13h-27z" />
    <glyph glyph-name="uni0327" unicode="&#x327;" horiz-adv-x="0" 
d="M-224 -115q0 -16 -12 -34t-34.5 -31t-52.5 -13h-20l2 10l26 2q24 2 41 13t26 25t9 25q0 19 -17 29.5t-59 10.5l66 78h14l-58 -68q69 -1 69 -47z" />
    <glyph glyph-name="uni0328" unicode="&#x328;" horiz-adv-x="0" 
d="M-326 -162.5q-25 19.5 -25 53.5q0 27 23.5 57.5t74.5 51.5h12q-43 -20 -67 -50t-24 -55q0 -30 23 -46t69 -16h5l-3 -14q-8 -1 -21 -1q-42 0 -67 19.5z" />
    <glyph glyph-name="uni032E" unicode="&#x32e;" horiz-adv-x="0" 
d="M-341 -193.5q-30 23.5 -30 77.5q0 9 2 33h14q-2 -22 -2 -30q0 -46 25 -68t66 -22q51 0 87 28.5t46 91.5h14q-12 -74 -52.5 -104t-94.5 -30q-45 0 -75 23.5z" />
    <glyph glyph-name="uni0331" unicode="&#x331;" horiz-adv-x="0" 
d="M-390 -154h252l-3 -15h-252z" />
    <glyph glyph-name="uni0335" unicode="&#x335;" horiz-adv-x="0" 
d="M-297 316h258l-2 -16h-258z" />
    <glyph glyph-name="uni03A9" unicode="&#x3a9;" horiz-adv-x="793" 
d="M73 16l212 8q-66 64 -105 143.5t-39 151.5q0 105 38.5 201t120.5 157.5t203 61.5q90 0 152 -35t92 -93.5t30 -129.5q0 -74 -26 -157t-84 -163t-149 -138l208 -7l-3 -16h-246l3 22q98 59 159 138.5t87.5 162t26.5 158.5q0 104 -62.5 170t-187.5 66q-112 0 -188 -59
t-113 -150t-37 -189q0 -81 40.5 -153t113.5 -144l-3 -22h-246z" />
    <glyph glyph-name="uni03BC" unicode="&#x3bc;" horiz-adv-x="582" 
d="M579 532l-84 -532h-14v62q-52 -31 -110.5 -49.5t-116.5 -18.5q-99 0 -128 72l-53 -334h-24l68 431l2 16l56 353h24l-50 -313h1l-12 -74q-1 -9 -1 -25q0 -57 33 -80.5t94 -23.5q59 0 107 14t112 46l72 456h24z" />
    <glyph glyph-name="pi" unicode="&#x3c0;" horiz-adv-x="603" 
d="M409.5 12.5q-20.5 18.5 -20.5 62.5q0 19 3 41l62 391h-207l-80 -507h-24l80 507h-116l4 24h500l-4 -24h-129l-62 -391q-3 -18 -3 -33q0 -33 15.5 -48t46.5 -15h63l-2 -14q-29 -12 -65 -12q-41 0 -61.5 18.5z" />
    <glyph glyph-name="uni1E02" unicode="&#x1e02;" horiz-adv-x="597" 
d="M196 732h233q84 0 125 -35t41 -100q0 -26 -4 -49q-11 -69 -48 -110.5t-88 -53.5q38 -11 72 -49.5t34 -101.5q0 -28 -6 -54q-37 -179 -222 -179h-253zM396 394q69 0 112 38.5t58 112.5q6 29 6 51q0 114 -147 114h-209l-50 -316h230zM337 22q88 0 132.5 42t62.5 121
q5 23 5 48q0 63 -39.5 101t-102.5 38h-232l-56 -350h230zM386 843v2l10 62q1 12 14 12h11q10 0 10 -9v-3l-10 -62q-2 -12 -14 -12h-11q-10 0 -10 10z" />
    <glyph glyph-name="uni1E03" unicode="&#x1e03;" horiz-adv-x="561" 
d="M202.5 13q-52.5 19 -89.5 44l-17 -57h-16l121 763h24l-46 -291q51 30 110.5 47.5t103.5 17.5q71 0 114.5 -44t43.5 -128q0 -43 -10 -111q-19 -119 -80.5 -189.5t-158.5 -70.5q-47 0 -99.5 19zM446 78.5q52 62.5 71 182.5q10 65 10 102q0 78 -37.5 115t-99.5 37
q-87 0 -214 -59l-60 -383q48 -27 91 -42t96 -15q91 0 143 62.5zM217 883v2l10 62q1 12 14 12h11q10 0 10 -9v-3l-10 -62q-2 -12 -14 -12h-11q-10 0 -10 10z" />
    <glyph glyph-name="uni1E08" unicode="&#x1e08;" horiz-adv-x="589" 
d="M419 791h-14l142 133h26zM289.5 678q-50.5 -38 -82.5 -114t-53 -198q-15 -88 -15 -155q0 -104 39 -149.5t129 -45.5q75 0 122.5 3.5t91.5 10.5l-3 -16q-89 -18 -194 -20l-53 -62q69 -1 69 -47q0 -16 -12 -34t-34.5 -31t-52.5 -13h-20l2 10l26 2q24 2 41 13t26 25t9 25
q0 19 -17 29.5t-59 10.5l61 72h-8q-99 0 -143.5 53.5t-44.5 162.5q0 70 16 166q28 180 96 271t192 91q62 0 109 -5.5t105 -16.5l-4 -16q-109 16 -212 16q-76 0 -126.5 -38z" />
    <glyph glyph-name="uni1E09" unicode="&#x1e09;" horiz-adv-x="485" 
d="M353 631h-14l142 133h26zM203.5 460q-55.5 -55 -77.5 -198q-9 -58 -9 -82q0 -65 18 -101t53 -49.5t91 -13.5h168l-2 -16q-82 -6 -170 -6h-19l-53 -62q69 -1 69 -47q0 -16 -12 -34t-34.5 -31t-52.5 -13h-20l2 10l26 2q24 2 41 13t26 25t9 25q0 19 -17 29.5t-59 10.5l62 73
q-73 6 -111.5 47.5t-38.5 137.5q0 33 10 93q22 138 83.5 201t162.5 63q69 0 167 -6l-4 -16h-165q-88 0 -143.5 -55z" />
    <glyph glyph-name="uni1E0A" unicode="&#x1e0a;" horiz-adv-x="663" 
d="M196 732h252q116 0 164.5 -62t48.5 -192q0 -47 -12 -123q-25 -159 -100 -257t-210 -98h-259zM338 22q126 0 195 95t93 247q11 68 11 117q0 78 -17 127.5t-59.5 75.5t-117.5 26h-227l-109 -688h231zM406 843v2l10 62q1 12 14 12h11q10 0 10 -9v-3l-10 -62q-2 -12 -14 -12
h-11q-10 0 -10 10z" />
    <glyph glyph-name="uni1E0B" unicode="&#x1e0b;" 
d="M138 38q-45 44 -45 127q0 55 10 106q17 90 43.5 146.5t79.5 88t142 31.5q49 0 89 -9t78 -30l42 265h24l-121 -763h-16l2 59q-47 -27 -102 -46t-111 -19q-70 0 -115 44zM357.5 31.5q51.5 15.5 110.5 43.5l63 401q-37 20 -76 29.5t-89 9.5q-81 0 -128 -27t-71 -80t-40 -145
q-10 -58 -10 -92q0 -79 37.5 -117t97.5 -38q54 0 105.5 15.5zM593 883v2l10 62q1 12 14 12h11q10 0 10 -9v-3l-10 -62q-2 -12 -14 -12h-11q-10 0 -10 10z" />
    <glyph glyph-name="uni1E0C" unicode="&#x1e0c;" horiz-adv-x="663" 
d="M196 732h252q116 0 164.5 -62t48.5 -192q0 -47 -12 -123q-25 -159 -100 -257t-210 -98h-259zM338 22q126 0 195 95t93 247q11 68 11 117q0 78 -17 127.5t-59.5 75.5t-117.5 26h-227l-109 -688h231zM235 -187v2l10 62q1 12 14 12h11q10 0 10 -9v-3l-10 -62q-2 -12 -14 -12
h-11q-10 0 -10 10z" />
    <glyph glyph-name="uni1E0D" unicode="&#x1e0d;" 
d="M138 38q-45 44 -45 127q0 55 10 106q17 90 43.5 146.5t79.5 88t142 31.5q49 0 89 -9t78 -30l42 265h24l-121 -763h-16l2 59q-47 -27 -102 -46t-111 -19q-70 0 -115 44zM357.5 31.5q51.5 15.5 110.5 43.5l63 401q-37 20 -76 29.5t-89 9.5q-81 0 -128 -27t-71 -80t-40 -145
q-10 -58 -10 -92q0 -79 37.5 -117t97.5 -38q54 0 105.5 15.5zM225 -187v2l10 62q1 12 14 12h11q10 0 10 -9v-3l-10 -62q-2 -12 -14 -12h-11q-10 0 -10 10z" />
    <glyph glyph-name="uni1E0E" unicode="&#x1e0e;" horiz-adv-x="663" 
d="M196 732h252q116 0 164.5 -62t48.5 -192q0 -47 -12 -123q-25 -159 -100 -257t-210 -98h-259zM338 22q126 0 195 95t93 247q11 68 11 117q0 78 -17 127.5t-59.5 75.5t-117.5 26h-227l-109 -688h231zM134 -154h252l-3 -15h-252z" />
    <glyph glyph-name="uni1E0F" unicode="&#x1e0f;" 
d="M138 38q-45 44 -45 127q0 55 10 106q17 90 43.5 146.5t79.5 88t142 31.5q49 0 89 -9t78 -30l42 265h24l-121 -763h-16l2 59q-47 -27 -102 -46t-111 -19q-70 0 -115 44zM357.5 31.5q51.5 15.5 110.5 43.5l63 401q-37 20 -76 29.5t-89 9.5q-81 0 -128 -27t-71 -80t-40 -145
q-10 -58 -10 -92q0 -79 37.5 -117t97.5 -38q54 0 105.5 15.5zM136 -154h252l-3 -15h-252z" />
    <glyph glyph-name="uni1E14" unicode="&#x1e14;" horiz-adv-x="565" 
d="M97 94q0 15 3 34l76 479q11 68 51 97t95 28l297 -6l-3 -16h-297q-49 0 -80 -25t-40 -83l-36 -227l359 -6l-3 -16l-360 -2l-35 -228q-3 -16 -3 -30q0 -45 25.5 -61t73.5 -16h288l-3 -16l-289 -6q-119 -2 -119 100zM308 866h252l-3 -15h-252zM326 1044h26l100 -133h-14z
" />
    <glyph glyph-name="uni1E15" unicode="&#x1e15;" horiz-adv-x="548" 
d="M148 37.5q-53 43.5 -53 133.5q0 52 11 120q17 121 80 185.5t184 64.5q90 0 135 -32t45 -103q0 -94 -74 -132t-189 -38q-51 0 -95 5.5t-68 12.5q-5 -34 -5 -81q0 -83 46 -120t152 -37h154l-3 -16q-102 -6 -153 -6q-114 0 -167 43.5zM459 289.5q67 31.5 67 114.5
q0 62 -38.5 88.5t-119.5 26.5q-116 0 -170 -61.5t-72 -187.5q62 -12 143 -12q123 0 190 31.5zM270 706h252l-3 -15h-252zM288 884h26l100 -133h-14z" />
    <glyph glyph-name="uni1E16" unicode="&#x1e16;" horiz-adv-x="565" 
d="M97 94q0 15 3 34l76 479q11 68 51 97t95 28l297 -6l-3 -16h-297q-49 0 -80 -25t-40 -83l-36 -227l359 -6l-3 -16l-360 -2l-35 -228q-3 -16 -3 -30q0 -45 25.5 -61t73.5 -16h288l-3 -16l-289 -6q-119 -2 -119 100zM308 866h252l-3 -15h-252zM567 1044h26l-154 -133h-14z
" />
    <glyph glyph-name="uni1E17" unicode="&#x1e17;" horiz-adv-x="548" 
d="M148 37.5q-53 43.5 -53 133.5q0 52 11 120q17 121 80 185.5t184 64.5q90 0 135 -32t45 -103q0 -94 -74 -132t-189 -38q-51 0 -95 5.5t-68 12.5q-5 -34 -5 -81q0 -83 46 -120t152 -37h154l-3 -16q-102 -6 -153 -6q-114 0 -167 43.5zM459 289.5q67 31.5 67 114.5
q0 62 -38.5 88.5t-119.5 26.5q-116 0 -170 -61.5t-72 -187.5q62 -12 143 -12q123 0 190 31.5zM270 706h252l-3 -15h-252zM529 884h26l-154 -133h-14z" />
    <glyph glyph-name="uni1E1C" unicode="&#x1e1c;" horiz-adv-x="565" 
d="M347 816.5q-30 23.5 -30 77.5q0 9 2 33h14q-2 -22 -2 -30q0 -46 25 -68t66 -22q50 0 86.5 28.5t46.5 91.5h14q-12 -74 -52.5 -104t-94.5 -30q-45 0 -75 23.5zM239 685q-31 -25 -40 -83l-36 -227l359 -6l-3 -16l-360 -2l-35 -228q-3 -16 -3 -30q0 -45 25.5 -61t73.5 -16
h288l-3 -16l-200 -4l-54 -64q69 -1 69 -47q0 -16 -12 -34t-34.5 -31t-52.5 -13h-20l2 10l26 2q24 2 41 13t26 25t9 25q0 19 -17 29.5t-59 10.5l62 74q-52 -2 -79 -2q-115 0 -115 99q0 16 3 35l76 479q11 68 51 97t95 28l297 -6l-3 -16h-297q-49 0 -80 -25z" />
    <glyph glyph-name="uni1E1D" unicode="&#x1e1d;" horiz-adv-x="548" 
d="M309 656.5q-30 23.5 -30 77.5q0 9 2 33h14q-2 -22 -2 -30q0 -46 25 -68t66 -22q50 0 86.5 28.5t46.5 91.5h14q-12 -74 -52.5 -104t-94.5 -30q-45 0 -75 23.5zM192 241.5q-44 5.5 -68 12.5q-5 -34 -5 -81q0 -83 46 -120t152 -37h154l-3 -16q-102 -6 -153 -6h-11l-53 -62
q69 -1 69 -47q0 -16 -12 -34t-34.5 -31t-52.5 -13h-20l2 10l26 2q24 2 41 13t26 25t9 25q0 19 -17 29.5t-59 10.5l61 73q-100 4 -147.5 47.5t-47.5 128.5q0 52 11 120q17 121 80 185.5t184 64.5q90 0 135 -32t45 -103q0 -94 -74 -132t-189 -38q-51 0 -95 5.5zM198 457.5
q-54 -61.5 -72 -187.5q62 -12 143 -12q123 0 190 31.5t67 114.5q0 62 -38.5 88.5t-119.5 26.5q-116 0 -170 -61.5z" />
    <glyph glyph-name="uni1E1E" unicode="&#x1e1e;" horiz-adv-x="544" 
d="M175 598q12 78 50 106.5t96 27.5l298 -6l-3 -16h-300q-51 0 -79 -25t-38 -83l-36 -227l359 -6l-3 -16l-359 -2l-56 -351h-24zM406 843v2l10 62q1 12 14 12h11q10 0 10 -9v-3l-10 -62q-2 -12 -14 -12h-11q-10 0 -10 10z" />
    <glyph glyph-name="uni1E1F" unicode="&#x1e1f;" horiz-adv-x="360" 
d="M200 507h-87l3 16l88 8l14 85q1 6 8 51t40.5 73.5t91.5 28.5t115 -5l-2 -16h-116q-40 0 -62.5 -16t-32.5 -43t-18 -73l-14 -85h188l-4 -24h-188l-80 -507h-24zM350 883v2l10 62q1 12 14 12h11q10 0 10 -9v-3l-10 -62q-2 -12 -14 -12h-11q-10 0 -10 10z" />
    <glyph glyph-name="uni1E20" unicode="&#x1e20;" horiz-adv-x="636" 
d="M159 47q-44 53 -44 170q0 60 15 160q27 175 95.5 269t201.5 94q68 0 120.5 -8t103.5 -22l-2 -16q-113 24 -226 24q-119 0 -180.5 -88t-88.5 -262q-15 -93 -15 -159q0 -102 39.5 -147.5t129.5 -45.5q51 0 124.5 18t110.5 35l44 278h-214l2 16q24 4 69.5 5t101.5 1
q32 0 68 -3l-58 -366h-16l2 53q-37 -17 -109.5 -38t-128.5 -21q-101 0 -145 53zM328 866h252l-3 -15h-252z" />
    <glyph glyph-name="uni1E21" unicode="&#x1e21;" horiz-adv-x="559" 
d="M63 -232l3 16h156q85 0 147.5 37.5t75.5 112.5l21 125q-54 -33 -111.5 -49t-110.5 -16q-39 0 -73.5 19t-55.5 57.5t-21 93.5q0 46 10 111q14 89 43 146t84 86.5t146 29.5q100 0 186 -13l-94 -592q-11 -66 -53 -104t-95 -52.5t-103 -12.5zM351.5 29.5
q50.5 13.5 116.5 45.5l68 433l-67 3q-76 4 -112 4q-105 0 -157 -58.5t-72 -185.5q-10 -67 -10 -105q0 -74 36 -112t93 -38q54 0 104.5 13.5zM272 706h252l-3 -15h-252z" />
    <glyph glyph-name="uni1E24" unicode="&#x1e24;" horiz-adv-x="646" 
d="M196 732h24l-58 -367h438l58 367h24l-116 -732h-24l54 343h-438l-54 -343h-24zM267 -187v2l10 62q1 12 14 12h11q10 0 10 -9v-3l-10 -62q-2 -12 -14 -12h-11q-10 0 -10 10z" />
    <glyph glyph-name="uni1E25" unicode="&#x1e25;" horiz-adv-x="564" 
d="M201 763h24l-47 -294q52 33 111 52t120 19q67 0 102 -33t35 -95q0 -19 -3 -42l-59 -370h-24l57 363q4 23 4 46q0 58 -30 83.5t-89 25.5q-63 0 -112 -15t-114 -50l-72 -453h-24zM225 -187v2l10 62q1 12 14 12h11q10 0 10 -9v-3l-10 -62q-2 -12 -14 -12h-11q-10 0 -10 10z
" />
    <glyph glyph-name="uni1E2A" unicode="&#x1e2a;" horiz-adv-x="646" 
d="M196 732h24l-58 -367h438l58 367h24l-116 -732h-24l54 343h-438l-54 -343h-24zM195 -193.5q-30 23.5 -30 77.5q0 9 2 33h14q-2 -22 -2 -30q0 -46 25 -68t66 -22q51 0 87 28.5t46 91.5h14q-12 -74 -52.5 -104t-94.5 -30q-45 0 -75 23.5z" />
    <glyph glyph-name="uni1E2B" unicode="&#x1e2b;" horiz-adv-x="564" 
d="M201 763h24l-47 -294q52 33 111 52t120 19q67 0 102 -33t35 -95q0 -19 -3 -42l-59 -370h-24l57 363q4 23 4 46q0 58 -30 83.5t-89 25.5q-63 0 -112 -15t-114 -50l-72 -453h-24zM185 -193.5q-30 23.5 -30 77.5q0 9 2 33h14q-2 -22 -2 -30q0 -46 25 -68t66 -22
q51 0 87 28.5t46 91.5h14q-12 -74 -52.5 -104t-94.5 -30q-45 0 -75 23.5z" />
    <glyph glyph-name="uni1E2E" unicode="&#x1e2e;" horiz-adv-x="184" 
d="M196 732h24l-116 -732h-24zM80 836l10 64q1 12 15 12h11q10 0 10 -9q0 4 -11 -65q-2 -12 -14 -12h-11q-10 0 -10 10zM288 836l10 64q1 12 15 12h11q10 0 10 -9q0 4 -11 -65q-2 -12 -14 -12h-11q-10 0 -10 10zM348 1084h26l-154 -133h-14z" />
    <glyph glyph-name="uni1E2F" unicode="&#x1e2f;" horiz-adv-x="184" 
d="M164 531h24l-84 -531h-24zM65 676l10 64q1 12 15 12h11q10 0 10 -9q0 4 -11 -65q-2 -12 -14 -12h-11q-10 0 -10 10zM273 676l10 64q1 12 15 12h11q10 0 10 -9q0 4 -11 -65q-2 -12 -14 -12h-11q-10 0 -10 10zM333 924h26l-154 -133h-14z" />
    <glyph glyph-name="uni1E36" unicode="&#x1e36;" horiz-adv-x="517" 
d="M126 19.5q-29 19.5 -29 71.5q0 17 3 35l96 606h24l-96 -606q-3 -18 -3 -35q0 -40 23.5 -54.5t64.5 -14.5h286l-3 -22h-281q-56 0 -85 19.5zM225 -187v2l10 62q1 12 14 12h11q10 0 10 -9v-3l-10 -62q-2 -12 -14 -12h-11q-10 0 -10 10z" />
    <glyph glyph-name="uni1E37" unicode="&#x1e37;" horiz-adv-x="269" 
d="M123.5 24.5q-24.5 24.5 -24.5 71.5q0 29 9 83l93 584h24l-93 -584q-1 -7 -5 -32t-4 -50q0 -37 17 -54.5t50 -20.5l63 -6l-3 -16h-55q-47 0 -71.5 24.5zM125 -187v2l10 62q1 12 14 12h11q10 0 10 -9v-3l-10 -62q-2 -12 -14 -12h-11q-10 0 -10 10z" />
    <glyph glyph-name="uni1E3A" unicode="&#x1e3a;" horiz-adv-x="517" 
d="M126 19.5q-29 19.5 -29 71.5q0 17 3 35l96 606h24l-96 -606q-3 -18 -3 -35q0 -40 23.5 -54.5t64.5 -14.5h286l-3 -22h-281q-56 0 -85 19.5zM124 -154h252l-3 -15h-252z" />
    <glyph glyph-name="uni1E3B" unicode="&#x1e3b;" horiz-adv-x="269" 
d="M123.5 24.5q-24.5 24.5 -24.5 71.5q0 29 9 83l93 584h24l-93 -584q-1 -7 -5 -32t-4 -50q0 -37 17 -54.5t50 -20.5l63 -6l-3 -16h-55q-47 0 -71.5 24.5zM36 -154h252l-3 -15h-252z" />
    <glyph glyph-name="uni1E40" unicode="&#x1e40;" horiz-adv-x="770" 
d="M268 732h22l117 -682l335 682h22l-32 -732h-24l32 682l-328 -682h-22l-113 682l-181 -682h-25zM506 843v2l10 62q1 12 14 12h11q10 0 10 -9v-3l-10 -62q-2 -12 -14 -12h-11q-10 0 -10 10z" />
    <glyph glyph-name="uni1E41" unicode="&#x1e41;" horiz-adv-x="943" 
d="M164 531h16l-2 -62q121 71 228 71q60 0 90.5 -21t44.5 -61q54 37 117.5 59.5t126.5 22.5q141 0 141 -131q0 -19 -4 -39l-59 -370h-24l59 370q4 20 4 39q0 109 -121 109q-65 0 -118 -18.5t-119 -57.5q2 -18 2 -29q0 -28 -5 -54l-57 -359h-24l57 359q5 35 5 51
q0 108 -120 108q-61 0 -109 -15t-117 -50l-72 -453h-24zM553 683v2l10 62q1 12 14 12h11q10 0 10 -9v-3l-10 -62q-2 -12 -14 -12h-11q-10 0 -10 10z" />
    <glyph glyph-name="uni1E42" unicode="&#x1e42;" horiz-adv-x="770" 
d="M268 732h22l117 -682l335 682h22l-32 -732h-24l32 682l-328 -682h-22l-113 682l-181 -682h-25zM335 -187v2l10 62q1 12 14 12h11q10 0 10 -9v-3l-10 -62q-2 -12 -14 -12h-11q-10 0 -10 10z" />
    <glyph glyph-name="uni1E43" unicode="&#x1e43;" horiz-adv-x="943" 
d="M164 531h16l-2 -62q121 71 228 71q60 0 90.5 -21t44.5 -61q54 37 117.5 59.5t126.5 22.5q141 0 141 -131q0 -19 -4 -39l-59 -370h-24l59 370q4 20 4 39q0 109 -121 109q-65 0 -118 -18.5t-119 -57.5q2 -18 2 -29q0 -28 -5 -54l-57 -359h-24l57 359q5 35 5 51
q0 108 -120 108q-61 0 -109 -15t-117 -50l-72 -453h-24zM405 -187v2l10 62q1 12 14 12h11q10 0 10 -9v-3l-10 -62q-2 -12 -14 -12h-11q-10 0 -10 10z" />
    <glyph glyph-name="uni1E44" unicode="&#x1e44;" horiz-adv-x="649" 
d="M196 732h22l333 -691l110 691h24l-116 -732h-22l-333 692l-110 -692h-24zM265 -187v2l10 62q1 12 14 12h11q10 0 10 -9v-3l-10 -62q-2 -12 -14 -12h-11q-10 0 -10 10z" />
    <glyph glyph-name="uni1E45" unicode="&#x1e45;" horiz-adv-x="564" 
d="M164 531h16l-2 -62q51 32 110.5 51.5t117.5 19.5q75 0 107.5 -35t32.5 -94q0 -20 -9 -79l-53 -332h-24l52 331q10 65 10 78q0 109 -120 109q-63 0 -112 -15t-114 -50l-72 -453h-24zM227 -187v2l10 62q1 12 14 12h11q10 0 10 -9v-3l-10 -62q-2 -12 -14 -12h-11
q-10 0 -10 10z" />
    <glyph glyph-name="uni1E46" unicode="&#x1e46;" horiz-adv-x="649" 
d="M196 732h22l333 -691l110 691h24l-116 -732h-22l-333 692l-110 -692h-24zM265 -187v2l10 62q1 12 14 12h11q10 0 10 -9v-3l-10 -62q-2 -12 -14 -12h-11q-10 0 -10 10z" />
    <glyph glyph-name="uni1E47" unicode="&#x1e47;" horiz-adv-x="564" 
d="M164 531h16l-2 -62q51 32 110.5 51.5t117.5 19.5q75 0 107.5 -35t32.5 -94q0 -20 -9 -79l-53 -332h-24l52 331q10 65 10 78q0 109 -120 109q-63 0 -112 -15t-114 -50l-72 -453h-24zM227 -187v2l10 62q1 12 14 12h11q10 0 10 -9v-3l-10 -62q-2 -12 -14 -12h-11
q-10 0 -10 10z" />
    <glyph glyph-name="uni1E48" unicode="&#x1e48;" horiz-adv-x="649" 
d="M196 732h22l333 -691l110 691h24l-116 -732h-22l-333 692l-110 -692h-24zM184 -154h252l-3 -15h-252z" />
    <glyph glyph-name="uni1E49" unicode="&#x1e49;" horiz-adv-x="564" 
d="M164 531h16l-2 -62q51 32 110.5 51.5t117.5 19.5q75 0 107.5 -35t32.5 -94q0 -20 -9 -79l-53 -332h-24l52 331q10 65 10 78q0 109 -120 109q-63 0 -112 -15t-114 -50l-72 -453h-24zM138 -154h252l-3 -15h-252z" />
    <glyph glyph-name="uni1E4C" unicode="&#x1e4c;" horiz-adv-x="678" 
d="M211 10.5q-48 16.5 -73.5 61t-25.5 127.5q0 70 16 169q24 150 64.5 230t103 110t161.5 30q74 0 122.5 -19t74.5 -65.5t26 -129.5q0 -71 -16 -170q-23 -148 -65 -226t-104 -106t-159 -28q-77 0 -125 16.5zM489 41.5q55 25.5 91 99.5t60 220q15 90 15 164q0 78 -23.5 119.5
t-67 56.5t-112.5 15q-90 0 -146 -27.5t-93.5 -104t-60.5 -223.5q-16 -106 -16 -162q0 -75 22 -114.5t65.5 -54t118.5 -14.5q92 0 147 25.5zM363 888.5q29 21.5 66 21.5q21 0 39.5 -9.5t41.5 -28.5q22 -17 38.5 -26t35.5 -9q32 0 54.5 19t28.5 54h14q-6 -40 -32.5 -64.5
t-68.5 -24.5q-19 0 -35.5 9t-39.5 27q-27 19 -43.5 28t-37.5 9q-31 0 -54 -18t-29 -55h-14q7 46 36 67.5zM619 1084h26l-154 -133h-14z" />
    <glyph glyph-name="uni1E4D" unicode="&#x1e4d;" 
d="M143 34.5q-49 40.5 -49 135.5q0 39 8 95q17 106 48 165t82 83t133 24q97 0 141 -45t44 -136q0 -40 -10 -105q-16 -98 -46 -153.5t-81.5 -79.5t-133.5 -24q-87 0 -136 40.5zM399 35q44 19 72.5 71t44.5 152q9 57 9 98q0 86 -37.5 122.5t-127.5 36.5q-74 0 -118 -21
t-71.5 -76t-44.5 -160q-8 -54 -8 -88q0 -89 42.5 -121.5t123.5 -32.5q71 0 115 19zM269 728.5q29 21.5 66 21.5q21 0 39.5 -9.5t41.5 -28.5q22 -17 38.5 -26t35.5 -9q32 0 54.5 19t28.5 54h14q-6 -40 -32.5 -64.5t-68.5 -24.5q-19 0 -35.5 9t-39.5 27q-27 19 -43.5 28
t-37.5 9q-31 0 -54 -18t-29 -55h-14q7 46 36 67.5zM525 924h26l-154 -133h-14z" />
    <glyph glyph-name="uni1E4E" unicode="&#x1e4e;" horiz-adv-x="678" 
d="M211 10.5q-48 16.5 -73.5 61t-25.5 127.5q0 70 16 169q24 150 64.5 230t103 110t161.5 30q74 0 122.5 -19t74.5 -65.5t26 -129.5q0 -71 -16 -170q-23 -148 -65 -226t-104 -106t-159 -28q-77 0 -125 16.5zM489 41.5q55 25.5 91 99.5t60 220q15 90 15 164q0 78 -23.5 119.5
t-67 56.5t-112.5 15q-90 0 -146 -27.5t-93.5 -104t-60.5 -223.5q-16 -106 -16 -162q0 -75 22 -114.5t65.5 -54t118.5 -14.5q92 0 147 25.5zM343 888.5q29 21.5 66 21.5q21 0 39.5 -9.5t41.5 -28.5q22 -17 38.5 -26t35.5 -9q32 0 54.5 19t28.5 54h14q-6 -40 -32.5 -64.5
t-68.5 -24.5q-19 0 -35.5 9t-39.5 27q-27 19 -43.5 28t-37.5 9q-31 0 -54 -18t-29 -55h-14q7 46 36 67.5zM371 976l10 64q1 12 15 12h11q10 0 10 -9q0 4 -11 -65q-2 -12 -14 -12h-11q-10 0 -10 10zM579 976l10 64q1 12 15 12h11q10 0 10 -9q0 4 -11 -65q-2 -12 -14 -12h-11
q-10 0 -10 10z" />
    <glyph glyph-name="uni1E4F" unicode="&#x1e4f;" 
d="M143 34.5q-49 40.5 -49 135.5q0 39 8 95q17 106 48 165t82 83t133 24q97 0 141 -45t44 -136q0 -40 -10 -105q-16 -98 -46 -153.5t-81.5 -79.5t-133.5 -24q-87 0 -136 40.5zM399 35q44 19 72.5 71t44.5 152q9 57 9 98q0 86 -37.5 122.5t-127.5 36.5q-74 0 -118 -21
t-71.5 -76t-44.5 -160q-8 -54 -8 -88q0 -89 42.5 -121.5t123.5 -32.5q71 0 115 19zM269 728.5q29 21.5 66 21.5q21 0 39.5 -9.5t41.5 -28.5q22 -17 38.5 -26t35.5 -9q32 0 54.5 19t28.5 54h14q-6 -40 -32.5 -64.5t-68.5 -24.5q-19 0 -35.5 9t-39.5 27q-27 19 -43.5 28
t-37.5 9q-31 0 -54 -18t-29 -55h-14q7 46 36 67.5zM287 816l10 64q1 12 15 12h11q10 0 10 -9q0 4 -11 -65q-2 -12 -14 -12h-11q-10 0 -10 10zM495 816l10 64q1 12 15 12h11q10 0 10 -9q0 4 -11 -65q-2 -12 -14 -12h-11q-10 0 -10 10z" />
    <glyph glyph-name="uni1E50" unicode="&#x1e50;" horiz-adv-x="678" 
d="M211 10.5q-48 16.5 -73.5 61t-25.5 127.5q0 70 16 169q24 150 64.5 230t103 110t161.5 30q74 0 122.5 -19t74.5 -65.5t26 -129.5q0 -71 -16 -170q-23 -148 -65 -226t-104 -106t-159 -28q-77 0 -125 16.5zM489 41.5q55 25.5 91 99.5t60 220q15 90 15 164q0 78 -23.5 119.5
t-67 56.5t-112.5 15q-90 0 -146 -27.5t-93.5 -104t-60.5 -223.5q-16 -106 -16 -162q0 -75 22 -114.5t65.5 -54t118.5 -14.5q92 0 147 25.5zM350 866h252l-3 -15h-252zM368 1044h26l100 -133h-14z" />
    <glyph glyph-name="uni1E51" unicode="&#x1e51;" 
d="M143 34.5q-49 40.5 -49 135.5q0 39 8 95q17 106 48 165t82 83t133 24q97 0 141 -45t44 -136q0 -40 -10 -105q-16 -98 -46 -153.5t-81.5 -79.5t-133.5 -24q-87 0 -136 40.5zM399 35q44 19 72.5 71t44.5 152q9 57 9 98q0 86 -37.5 122.5t-127.5 36.5q-74 0 -118 -21
t-71.5 -76t-44.5 -160q-8 -54 -8 -88q0 -89 42.5 -121.5t123.5 -32.5q71 0 115 19zM266 706h252l-3 -15h-252zM284 884h26l100 -133h-14z" />
    <glyph glyph-name="uni1E52" unicode="&#x1e52;" horiz-adv-x="678" 
d="M211 10.5q-48 16.5 -73.5 61t-25.5 127.5q0 70 16 169q24 150 64.5 230t103 110t161.5 30q74 0 122.5 -19t74.5 -65.5t26 -129.5q0 -71 -16 -170q-23 -148 -65 -226t-104 -106t-159 -28q-77 0 -125 16.5zM489 41.5q55 25.5 91 99.5t60 220q15 90 15 164q0 78 -23.5 119.5
t-67 56.5t-112.5 15q-90 0 -146 -27.5t-93.5 -104t-60.5 -223.5q-16 -106 -16 -162q0 -75 22 -114.5t65.5 -54t118.5 -14.5q92 0 147 25.5zM350 866h252l-3 -15h-252zM609 1044h26l-154 -133h-14z" />
    <glyph glyph-name="uni1E53" unicode="&#x1e53;" 
d="M143 34.5q-49 40.5 -49 135.5q0 39 8 95q17 106 48 165t82 83t133 24q97 0 141 -45t44 -136q0 -40 -10 -105q-16 -98 -46 -153.5t-81.5 -79.5t-133.5 -24q-87 0 -136 40.5zM399 35q44 19 72.5 71t44.5 152q9 57 9 98q0 86 -37.5 122.5t-127.5 36.5q-74 0 -118 -21
t-71.5 -76t-44.5 -160q-8 -54 -8 -88q0 -89 42.5 -121.5t123.5 -32.5q71 0 115 19zM266 706h252l-3 -15h-252zM525 884h26l-154 -133h-14z" />
    <glyph glyph-name="uni1E56" unicode="&#x1e56;" horiz-adv-x="592" 
d="M196 732h266q149 0 149 -145q0 -25 -6 -65q-34 -219 -222 -219q-84 0 -230 6l-49 -309h-24zM385 325q75 0 126.5 43.5t69.5 153.5q6 40 6 64q0 65 -33 94.5t-96 29.5h-242l-61 -385h230zM386 843v2l10 62q1 12 14 12h11q10 0 10 -9v-3l-10 -62q-2 -12 -14 -12h-11
q-10 0 -10 10z" />
    <glyph glyph-name="uni1E57" unicode="&#x1e57;" 
d="M164 529q74 8 221 8q80 0 123 -43.5t43 -132.5q0 -44 -10 -100q-20 -129 -77 -198t-171 -69q-54 0 -96.5 9t-87.5 30l-43 -270h-24zM446.5 77.5q49.5 61.5 70.5 190.5q10 63 10 92q0 156 -143 155l-200 -2l-73 -464q61 -20 95.5 -26.5t87.5 -6.5q103 0 152.5 61.5z
M367 683v2l10 62q1 12 14 12h11q10 0 10 -9v-3l-10 -62q-2 -12 -14 -12h-11q-10 0 -10 10z" />
    <glyph glyph-name="uni1E5A" unicode="&#x1e5a;" horiz-adv-x="604" 
d="M196 732h256q64 0 111.5 -34t47.5 -123q0 -22 -5 -57q-18 -110 -67.5 -149t-113.5 -43l109 -326h-24l-109 325q-17 0 -28 1q-181 3 -217 5l-52 -331h-24zM401 347q69 0 116.5 35.5t63.5 139.5q4 25 4 51q0 79 -39 108t-98 29h-232l-57 -363h242zM245 -187v2l10 62
q1 12 14 12h11q10 0 10 -9v-3l-10 -62q-2 -12 -14 -12h-11q-10 0 -10 10z" />
    <glyph glyph-name="uni1E5B" unicode="&#x1e5b;" horiz-adv-x="376" 
d="M164 531h16l-2 -62q89 68 177 68q50 0 75 -8l-4 -24q-34 8 -75 8q-46 0 -88 -16t-87 -44l-72 -453h-24zM39 -187v2l10 62q1 12 14 12h11q10 0 10 -9v-3l-10 -62q-2 -12 -14 -12h-11q-10 0 -10 10z" />
    <glyph glyph-name="uni1E5E" unicode="&#x1e5e;" horiz-adv-x="604" 
d="M196 732h256q64 0 111.5 -34t47.5 -123q0 -22 -5 -57q-18 -110 -67.5 -149t-113.5 -43l109 -326h-24l-109 325q-17 0 -28 1q-181 3 -217 5l-52 -331h-24zM401 347q69 0 116.5 35.5t63.5 139.5q4 25 4 51q0 79 -39 108t-98 29h-232l-57 -363h242zM154 -154h252l-3 -15
h-252z" />
    <glyph glyph-name="uni1E5F" unicode="&#x1e5f;" horiz-adv-x="376" 
d="M164 531h16l-2 -62q89 68 177 68q50 0 75 -8l-4 -24q-34 8 -75 8q-46 0 -88 -16t-87 -44l-72 -453h-24zM-50 -154h252l-3 -15h-252z" />
    <glyph glyph-name="uni1E60" unicode="&#x1e60;" horiz-adv-x="565" 
d="M181 -3q-63 3 -102 9l2 16q80 -6 221 -6q90 0 141.5 29.5t64.5 112.5l10 66q3 20 3 37q0 50 -29 73t-92 23h-112q-68 0 -101 25t-33 82q0 17 3 38l10 66q15 99 67.5 134.5t145.5 35.5q33 0 104.5 -5.5t104.5 -10.5l-2 -16q-126 8 -205 8q-59 0 -97 -12t-61.5 -43.5
t-32.5 -90.5l-10 -66q-3 -19 -3 -36q0 -48 26.5 -66.5t85.5 -18.5h114q72 0 106.5 -28.5t34.5 -87.5q0 -18 -3 -41l-10 -66q-14 -95 -75 -129.5t-160 -34.5q-53 0 -116 3zM396 843v2l10 62q1 12 14 12h11q10 0 10 -9v-3l-10 -62q-2 -12 -14 -12h-11q-10 0 -10 10z" />
    <glyph glyph-name="uni1E61" unicode="&#x1e61;" horiz-adv-x="502" 
d="M159.5 -4.5q-71.5 1.5 -92.5 4.5l3 16h212q68 0 106 22t47 75l8 49q1 6 1 17q0 37 -22 55t-68 18h-113q-66 0 -96 18.5t-30 58.5q0 20 4 40l8 46q10 60 49 91t118 31q44 0 98.5 -1.5t98.5 -4.5l-4 -16h-197q-66 0 -98 -24t-41 -76l-8 -46q-4 -27 -4 -40q0 -29 24 -41
t80 -12h112q51 0 82.5 -25.5t31.5 -72.5q0 -6 -2 -22l-8 -49q-9 -59 -55.5 -86t-125.5 -27q-47 0 -118.5 1.5zM332 683v2l10 62q1 12 14 12h11q10 0 10 -9v-3l-10 -62q-2 -12 -14 -12h-11q-10 0 -10 10z" />
    <glyph glyph-name="uni1E62" unicode="&#x1e62;" horiz-adv-x="565" 
d="M181 -3q-63 3 -102 9l2 16q80 -6 221 -6q90 0 141.5 29.5t64.5 112.5l10 66q3 20 3 37q0 50 -29 73t-92 23h-112q-68 0 -101 25t-33 82q0 17 3 38l10 66q15 99 67.5 134.5t145.5 35.5q33 0 104.5 -5.5t104.5 -10.5l-2 -16q-126 8 -205 8q-59 0 -97 -12t-61.5 -43.5
t-32.5 -90.5l-10 -66q-3 -19 -3 -36q0 -48 26.5 -66.5t85.5 -18.5h114q72 0 106.5 -28.5t34.5 -87.5q0 -18 -3 -41l-10 -66q-14 -95 -75 -129.5t-160 -34.5q-53 0 -116 3zM225 -187v2l10 62q1 12 14 12h11q10 0 10 -9v-3l-10 -62q-2 -12 -14 -12h-11q-10 0 -10 10z" />
    <glyph glyph-name="uni1E63" unicode="&#x1e63;" horiz-adv-x="502" 
d="M159.5 -4.5q-71.5 1.5 -92.5 4.5l3 16h212q68 0 106 22t47 75l8 49q1 6 1 17q0 37 -22 55t-68 18h-113q-66 0 -96 18.5t-30 58.5q0 20 4 40l8 46q10 60 49 91t118 31q44 0 98.5 -1.5t98.5 -4.5l-4 -16h-197q-66 0 -98 -24t-41 -76l-8 -46q-4 -27 -4 -40q0 -29 24 -41
t80 -12h112q51 0 82.5 -25.5t31.5 -72.5q0 -6 -2 -22l-8 -49q-9 -59 -55.5 -86t-125.5 -27q-47 0 -118.5 1.5zM184 -187v2l10 62q1 12 14 12h11q10 0 10 -9v-3l-10 -62q-2 -12 -14 -12h-11q-10 0 -10 10z" />
    <glyph glyph-name="uni1E64" unicode="&#x1e64;" horiz-adv-x="565" 
d="M181 -3q-63 3 -102 9l2 16q80 -6 221 -6q90 0 141.5 29.5t64.5 112.5l10 66q3 20 3 37q0 50 -29 73t-92 23h-112q-68 0 -101 25t-33 82q0 17 3 38l10 66q15 99 67.5 134.5t145.5 35.5q33 0 104.5 -5.5t104.5 -10.5l-2 -16q-126 8 -205 8q-59 0 -97 -12t-61.5 -43.5
t-32.5 -90.5l-10 -66q-3 -19 -3 -36q0 -48 26.5 -66.5t85.5 -18.5h114q72 0 106.5 -28.5t34.5 -87.5q0 -18 -3 -41l-10 -66q-14 -95 -75 -129.5t-160 -34.5q-53 0 -116 3zM497 924h26l-154 -133h-14zM446 963v2l10 62q1 12 14 12h11q10 0 10 -9v-3l-10 -62q-2 -12 -14 -12
h-11q-10 0 -10 10z" />
    <glyph glyph-name="uni1E65" unicode="&#x1e65;" horiz-adv-x="502" 
d="M159.5 -4.5q-71.5 1.5 -92.5 4.5l3 16h212q68 0 106 22t47 75l8 49q1 6 1 17q0 37 -22 55t-68 18h-113q-66 0 -96 18.5t-30 58.5q0 20 4 40l8 46q10 60 49 91t118 31q44 0 98.5 -1.5t98.5 -4.5l-4 -16h-197q-66 0 -98 -24t-41 -76l-8 -46q-4 -27 -4 -40q0 -29 24 -41
t80 -12h112q51 0 82.5 -25.5t31.5 -72.5q0 -6 -2 -22l-8 -49q-9 -59 -55.5 -86t-125.5 -27q-47 0 -118.5 1.5zM420 764h26l-154 -133h-14zM362 803v2l10 62q1 12 14 12h11q10 0 10 -9v-3l-10 -62q-2 -12 -14 -12h-11q-10 0 -10 10z" />
    <glyph glyph-name="uni1E66" unicode="&#x1e66;" horiz-adv-x="565" 
d="M181 -3q-63 3 -102 9l2 16q80 -6 221 -6q90 0 141.5 29.5t64.5 112.5l10 66q3 20 3 37q0 50 -29 73t-92 23h-112q-68 0 -101 25t-33 82q0 17 3 38l10 66q15 99 67.5 134.5t145.5 35.5q33 0 104.5 -5.5t104.5 -10.5l-2 -16q-126 8 -205 8q-59 0 -97 -12t-61.5 -43.5
t-32.5 -90.5l-10 -66q-3 -19 -3 -36q0 -48 26.5 -66.5t85.5 -18.5h114q72 0 106.5 -28.5t34.5 -87.5q0 -18 -3 -41l-10 -66q-14 -95 -75 -129.5t-160 -34.5q-53 0 -116 3zM310 921h18l93 -115l143 115h18l-153 -130h-20zM426 973v2l10 62q1 12 14 12h11q10 0 10 -9v-3
l-10 -62q-2 -12 -14 -12h-11q-10 0 -10 10z" />
    <glyph glyph-name="uni1E67" unicode="&#x1e67;" horiz-adv-x="502" 
d="M159.5 -4.5q-71.5 1.5 -92.5 4.5l3 16h212q68 0 106 22t47 75l8 49q1 6 1 17q0 37 -22 55t-68 18h-113q-66 0 -96 18.5t-30 58.5q0 20 4 40l8 46q10 60 49 91t118 31q44 0 98.5 -1.5t98.5 -4.5l-4 -16h-197q-66 0 -98 -24t-41 -76l-8 -46q-4 -27 -4 -40q0 -29 24 -41
t80 -12h112q51 0 82.5 -25.5t31.5 -72.5q0 -6 -2 -22l-8 -49q-9 -59 -55.5 -86t-125.5 -27q-47 0 -118.5 1.5zM243 761h18l93 -115l143 115h18l-153 -130h-20zM352 823v2l10 62q1 12 14 12h11q10 0 10 -9v-3l-10 -62q-2 -12 -14 -12h-11q-10 0 -10 10z" />
    <glyph glyph-name="uni1E68" unicode="&#x1e68;" horiz-adv-x="565" 
d="M181 -3q-63 3 -102 9l2 16q80 -6 221 -6q90 0 141.5 29.5t64.5 112.5l10 66q3 20 3 37q0 50 -29 73t-92 23h-112q-68 0 -101 25t-33 82q0 17 3 38l10 66q15 99 67.5 134.5t145.5 35.5q33 0 104.5 -5.5t104.5 -10.5l-2 -16q-126 8 -205 8q-59 0 -97 -12t-61.5 -43.5
t-32.5 -90.5l-10 -66q-3 -19 -3 -36q0 -48 26.5 -66.5t85.5 -18.5h114q72 0 106.5 -28.5t34.5 -87.5q0 -18 -3 -41l-10 -66q-14 -95 -75 -129.5t-160 -34.5q-53 0 -116 3zM225 -187v2l10 62q1 12 14 12h11q10 0 10 -9v-3l-10 -62q-2 -12 -14 -12h-11q-10 0 -10 10zM396 843
v2l10 62q1 12 14 12h11q10 0 10 -9v-3l-10 -62q-2 -12 -14 -12h-11q-10 0 -10 10z" />
    <glyph glyph-name="uni1E69" unicode="&#x1e69;" horiz-adv-x="502" 
d="M159.5 -4.5q-71.5 1.5 -92.5 4.5l3 16h212q68 0 106 22t47 75l8 49q1 6 1 17q0 37 -22 55t-68 18h-113q-66 0 -96 18.5t-30 58.5q0 20 4 40l8 46q10 60 49 91t118 31q44 0 98.5 -1.5t98.5 -4.5l-4 -16h-197q-66 0 -98 -24t-41 -76l-8 -46q-4 -27 -4 -40q0 -29 24 -41
t80 -12h112q51 0 82.5 -25.5t31.5 -72.5q0 -6 -2 -22l-8 -49q-9 -59 -55.5 -86t-125.5 -27q-47 0 -118.5 1.5zM184 -187v2l10 62q1 12 14 12h11q10 0 10 -9v-3l-10 -62q-2 -12 -14 -12h-11q-10 0 -10 10zM332 683v2l10 62q1 12 14 12h11q10 0 10 -9v-3l-10 -62
q-2 -12 -14 -12h-11q-10 0 -10 10z" />
    <glyph glyph-name="uni1E6A" unicode="&#x1e6a;" horiz-adv-x="602" 
d="M396 710h-254l4 22h532l-4 -22h-254l-112 -710h-24zM406 843v2l10 62q1 12 14 12h11q10 0 10 -9v-3l-10 -62q-2 -12 -14 -12h-11q-10 0 -10 10z" />
    <glyph glyph-name="uni1E6B" unicode="&#x1e6b;" horiz-adv-x="366" 
d="M173.5 28q-28.5 28 -28.5 79q0 26 4 51t5 30l53 321h-86l2 16l85 6l32 149h16l-24 -149h175l-3 -22h-175l-51 -321q-9 -56 -9 -81q0 -39 20 -60t62 -25l66 -6l-3 -16h-56q-56 0 -84.5 28zM249 783v2l10 62q1 12 14 12h11q10 0 10 -9v-3l-10 -62q-2 -12 -14 -12h-11
q-10 0 -10 10z" />
    <glyph glyph-name="uni1E6C" unicode="&#x1e6c;" horiz-adv-x="602" 
d="M396 710h-254l4 22h532l-4 -22h-254l-112 -710h-24zM235 -187v2l10 62q1 12 14 12h11q10 0 10 -9v-3l-10 -62q-2 -12 -14 -12h-11q-10 0 -10 10z" />
    <glyph glyph-name="uni1E6D" unicode="&#x1e6d;" horiz-adv-x="366" 
d="M173.5 28q-28.5 28 -28.5 79q0 26 4 51t5 30l53 321h-86l2 16l85 6l32 149h16l-24 -149h175l-3 -22h-175l-51 -321q-9 -56 -9 -81q0 -39 20 -60t62 -25l66 -6l-3 -16h-56q-56 0 -84.5 28zM183 -187v2l10 62q1 12 14 12h11q10 0 10 -9v-3l-10 -62q-2 -12 -14 -12h-11
q-10 0 -10 10z" />
    <glyph glyph-name="uni1E6E" unicode="&#x1e6e;" horiz-adv-x="602" 
d="M396 710h-254l4 22h532l-4 -22h-254l-112 -710h-24zM164 -154h252l-3 -15h-252z" />
    <glyph glyph-name="uni1E6F" unicode="&#x1e6f;" horiz-adv-x="366" 
d="M173.5 28q-28.5 28 -28.5 79q0 26 4 51t5 30l53 321h-86l2 16l85 6l32 149h16l-24 -149h175l-3 -22h-175l-51 -321q-9 -56 -9 -81q0 -39 20 -60t62 -25l66 -6l-3 -16h-56q-56 0 -84.5 28zM94 -154h252l-3 -15h-252z" />
    <glyph glyph-name="uni1E78" unicode="&#x1e78;" horiz-adv-x="667" 
d="M172 38q-53 44 -53 148q0 62 12 134l65 412h24l-65 -412q-13 -80 -13 -135q0 -93 46.5 -131t142.5 -38q83 0 135.5 21.5t90 87.5t57.5 195l65 412h24l-65 -412q-22 -136 -63 -207t-98.5 -95t-143.5 -24q-108 0 -161 44zM341 888.5q29 21.5 66 21.5q21 0 39.5 -9.5
t41.5 -28.5q22 -17 38.5 -26t35.5 -9q32 0 54.5 19t28.5 54h14q-6 -40 -32.5 -64.5t-68.5 -24.5q-19 0 -35.5 9t-39.5 27q-27 19 -43.5 28t-37.5 9q-31 0 -54 -18t-29 -55h-14q7 46 36 67.5zM597 1084h26l-154 -133h-14z" />
    <glyph glyph-name="uni1E79" unicode="&#x1e79;" horiz-adv-x="564" 
d="M138 26.5q-36 32.5 -36 89.5q0 25 4 51l58 364h24l-58 -369q-4 -24 -4 -41q0 -51 28.5 -78t91.5 -27q61 0 111 14.5t115 47.5l72 453h24l-84 -531h-16l2 62q-56 -33 -109 -50.5t-118 -17.5q-69 0 -105 32.5zM275 728.5q29 21.5 66 21.5q21 0 39.5 -9.5t41.5 -28.5
q22 -17 38.5 -26t35.5 -9q32 0 54.5 19t28.5 54h14q-6 -40 -32.5 -64.5t-68.5 -24.5q-19 0 -35.5 9t-39.5 27q-27 19 -43.5 28t-37.5 9q-31 0 -54 -18t-29 -55h-14q7 46 36 67.5zM531 924h26l-154 -133h-14z" />
    <glyph glyph-name="uni1E7A" unicode="&#x1e7a;" horiz-adv-x="667" 
d="M172 38q-53 44 -53 148q0 62 12 134l65 412h24l-65 -412q-13 -80 -13 -135q0 -93 46.5 -131t142.5 -38q83 0 135.5 21.5t90 87.5t57.5 195l65 412h24l-65 -412q-22 -136 -63 -207t-98.5 -95t-143.5 -24q-108 0 -161 44zM328 866h252l-3 -15h-252zM349 966l10 64
q1 12 15 12h11q10 0 10 -9q0 4 -11 -65q-2 -12 -14 -12h-11q-10 0 -10 10zM557 966l10 64q1 12 15 12h11q10 0 10 -9q0 4 -11 -65q-2 -12 -14 -12h-11q-10 0 -10 10z" />
    <glyph glyph-name="uni1E7B" unicode="&#x1e7b;" horiz-adv-x="564" 
d="M138 26.5q-36 32.5 -36 89.5q0 25 4 51l58 364h24l-58 -369q-4 -24 -4 -41q0 -51 28.5 -78t91.5 -27q61 0 111 14.5t115 47.5l72 453h24l-84 -531h-16l2 62q-56 -33 -109 -50.5t-118 -17.5q-69 0 -105 32.5zM272 706h252l-3 -15h-252zM293 796l10 64q1 12 15 12h11
q10 0 10 -9q0 4 -11 -65q-2 -12 -14 -12h-11q-10 0 -10 10zM501 796l10 64q1 12 15 12h11q10 0 10 -9q0 4 -11 -65q-2 -12 -14 -12h-11q-10 0 -10 10z" />
    <glyph glyph-name="Wgrave" unicode="&#x1e80;" horiz-adv-x="980" 
d="M161 732h25l111 -707l291 707h34l56 -706l347 706h26l-360 -732h-34l-56 702l-290 -702h-34zM516 924h26l100 -133h-14z" />
    <glyph glyph-name="wgrave" unicode="&#x1e81;" horiz-adv-x="798" 
d="M104 531h24l105 -499l214 499h26l89 -501l202 413q9 18 18 46t13 50h16q0 -24 -8 -54t-22 -58l-210 -427h-27l-87 499l-215 -499h-26zM390 764h26l100 -133h-14z" />
    <glyph glyph-name="Wacute" unicode="&#x1e82;" horiz-adv-x="980" 
d="M161 732h25l111 -707l291 707h34l56 -706l347 706h26l-360 -732h-34l-56 702l-290 -702h-34zM737 924h26l-154 -133h-14z" />
    <glyph glyph-name="wacute" unicode="&#x1e83;" horiz-adv-x="798" 
d="M104 531h24l105 -499l214 499h26l89 -501l202 413q9 18 18 46t13 50h16q0 -24 -8 -54t-22 -58l-210 -427h-27l-87 499l-215 -499h-26zM611 764h26l-154 -133h-14z" />
    <glyph glyph-name="Wdieresis" unicode="&#x1e84;" horiz-adv-x="980" 
d="M161 732h25l111 -707l291 707h34l56 -706l347 706h26l-360 -732h-34l-56 702l-290 -702h-34zM479 836l10 64q1 12 15 12h11q10 0 10 -9q0 4 -11 -65q-2 -12 -14 -12h-11q-10 0 -10 10zM687 836l10 64q1 12 15 12h11q10 0 10 -9q0 4 -11 -65q-2 -12 -14 -12h-11
q-10 0 -10 10z" />
    <glyph glyph-name="wdieresis" unicode="&#x1e85;" horiz-adv-x="798" 
d="M104 531h24l105 -499l214 499h26l89 -501l202 413q9 18 18 46t13 50h16q0 -24 -8 -54t-22 -58l-210 -427h-27l-87 499l-215 -499h-26zM353 676l10 64q1 12 15 12h11q10 0 10 -9q0 4 -11 -65q-2 -12 -14 -12h-11q-10 0 -10 10zM561 676l10 64q1 12 15 12h11q10 0 10 -9
q0 4 -11 -65q-2 -12 -14 -12h-11q-10 0 -10 10z" />
    <glyph glyph-name="uni1E8E" unicode="&#x1e8e;" horiz-adv-x="590" 
d="M314 260l-168 472h27l156 -440l318 440h29l-338 -472l-41 -260h-24zM223 -187v2l10 62q1 12 14 12h11q10 0 10 -9v-3l-10 -62q-2 -12 -14 -12h-11q-10 0 -10 10z" />
    <glyph glyph-name="uni1E8F" unicode="&#x1e8f;" horiz-adv-x="543" 
d="M97 -215q45 11 97 63.5t99 151.5q-27 3 -45.5 10.5t-35 31t-25.5 68.5l-83 421h24l82 -415q10 -53 33 -70.5t62 -20.5l205 429q25 55 28 85h16q0 -50 -21 -93l-213 -445q-57 -119 -109.5 -172.5t-113.5 -65.5v22zM365 -187v2l10 62q1 12 14 12h11q10 0 10 -9v-3l-10 -62
q-2 -12 -14 -12h-11q-10 0 -10 10z" />
    <glyph glyph-name="uni1E92" unicode="&#x1e92;" horiz-adv-x="553" 
d="M48 22l534 688h-425l4 22h453l-4 -22l-534 -688h435l-3 -22h-463zM203 -187v2l10 62q1 12 14 12h11q10 0 10 -9v-3l-10 -62q-2 -12 -14 -12h-11q-10 0 -10 10z" />
    <glyph glyph-name="uni1E93" unicode="&#x1e93;" horiz-adv-x="497" 
d="M68 22l412 487h-349l3 22h376l-3 -22l-412 -486h355q0 -4 -1.5 -11.5t-2.5 -10.5h-381zM189 -187v2l10 62q1 12 14 12h11q10 0 10 -9v-3l-10 -62q-2 -12 -14 -12h-11q-10 0 -10 10z" />
    <glyph glyph-name="uni1E97" unicode="&#x1e97;" horiz-adv-x="366" 
d="M173.5 28q-28.5 28 -28.5 79q0 26 4 51t5 30l53 321h-86l2 16l85 6l32 149h16l-24 -149h175l-3 -22h-175l-51 -321q-9 -56 -9 -81q0 -39 20 -60t62 -25l66 -6l-3 -16h-56q-56 0 -84.5 28zM129 776l10 64q1 12 15 12h11q10 0 10 -9q0 4 -11 -65q-2 -12 -14 -12h-11
q-10 0 -10 10zM337 776l10 64q1 12 15 12h11q10 0 10 -9q0 4 -11 -65q-2 -12 -14 -12h-11q-10 0 -10 10z" />
    <glyph glyph-name="uni1E9E" unicode="&#x1e9e;" horiz-adv-x="629" 
d="M643 710l-278 -329h92q71 0 105.5 -32.5t34.5 -89.5q0 -16 -13 -103q-15 -88 -80.5 -125t-159.5 -37q-20 0 -66 4t-67 7l2 16q42 -5 135 -5q88 0 143.5 29.5t68.5 110.5q13 88 13 103q0 49 -28.5 73.5t-90.5 24.5h-119l3 24l278 329h-290q-48 0 -79 -26.5t-40 -81.5
l-95 -602h-24l95 602q11 67 49 98.5t95 31.5q64 0 192 -2q84 -2 127 -2z" />
    <glyph glyph-name="uni1EA0" unicode="&#x1ea0;" horiz-adv-x="660" 
d="M435 732h34l146 -732h-25l-51 254h-333l-136 -254h-25zM535 276l-87 430l-230 -430h317zM275 -187v2l10 62q1 12 14 12h11q10 0 10 -9v-3l-10 -62q-2 -12 -14 -12h-11q-10 0 -10 10z" />
    <glyph glyph-name="uni1EA1" unicode="&#x1ea1;" horiz-adv-x="559" 
d="M138 38q-46 44 -46 133q0 37 10 97q22 142 83 205.5t184 63.5q51 0 103 -13.5t83 -42.5l-76 -481h-16l2 59q-30 -20 -92.5 -42.5t-113.5 -22.5q-75 0 -121 44zM357 30.5q45 14.5 110 44.5l63 401q-24 15 -67 27t-96 12q-80 0 -127.5 -26t-73.5 -81t-41 -150
q-9 -57 -9 -86q0 -79 38 -117.5t104 -38.5q54 0 99 14.5zM225 -187v2l10 62q1 12 14 12h11q10 0 10 -9v-3l-10 -62q-2 -12 -14 -12h-11q-10 0 -10 10z" />
    <glyph glyph-name="uni1EA2" unicode="&#x1ea2;" horiz-adv-x="660" 
d="M435 732h34l146 -732h-25l-51 254h-333l-136 -254h-25zM535 276l-87 430l-230 -430h317zM417 794q82 25 82 89q0 43 -50 43q-20 0 -40 -6l2 14q19 6 43 6q61 0 61 -56q0 -34 -24.5 -62t-76.5 -42z" />
    <glyph glyph-name="uni1EA3" unicode="&#x1ea3;" horiz-adv-x="559" 
d="M138 38q-46 44 -46 133q0 37 10 97q22 142 83 205.5t184 63.5q51 0 103 -13.5t83 -42.5l-76 -481h-16l2 59q-30 -20 -92.5 -42.5t-113.5 -22.5q-75 0 -121 44zM357 30.5q45 14.5 110 44.5l63 401q-24 15 -67 27t-96 12q-80 0 -127.5 -26t-73.5 -81t-41 -150
q-9 -57 -9 -86q0 -79 38 -117.5t104 -38.5q54 0 99 14.5zM368 624q82 25 82 89q0 43 -50 43q-20 0 -40 -6l2 14q19 6 43 6q61 0 61 -56q0 -34 -24.5 -62t-76.5 -42z" />
    <glyph glyph-name="uni1EA4" unicode="&#x1ea4;" horiz-adv-x="660" 
d="M435 732h34l146 -732h-25l-51 254h-333l-136 -254h-25zM535 276l-87 430l-230 -430h317zM687 994h26l-154 -133h-14zM458 881h20l106 -90h-18l-100 75l-136 -75h-18z" />
    <glyph glyph-name="uni1EA5" unicode="&#x1ea5;" horiz-adv-x="559" 
d="M138 38q-46 44 -46 133q0 37 10 97q22 142 83 205.5t184 63.5q51 0 103 -13.5t83 -42.5l-76 -481h-16l2 59q-30 -20 -92.5 -42.5t-113.5 -22.5q-75 0 -121 44zM357 30.5q45 14.5 110 44.5l63 401q-24 15 -67 27t-96 12q-80 0 -127.5 -26t-73.5 -81t-41 -150
q-9 -57 -9 -86q0 -79 38 -117.5t104 -38.5q54 0 99 14.5zM611 834h26l-154 -133h-14zM382 721h20l106 -90h-18l-100 75l-136 -75h-18z" />
    <glyph glyph-name="uni1EA6" unicode="&#x1ea6;" horiz-adv-x="660" 
d="M435 732h34l146 -732h-25l-51 254h-333l-136 -254h-25zM535 276l-87 430l-230 -430h317zM258 994h26l100 -133h-14zM450 881h20l106 -90h-18l-100 75l-136 -75h-18z" />
    <glyph glyph-name="uni1EA7" unicode="&#x1ea7;" horiz-adv-x="559" 
d="M138 38q-46 44 -46 133q0 37 10 97q22 142 83 205.5t184 63.5q51 0 103 -13.5t83 -42.5l-76 -481h-16l2 59q-30 -20 -92.5 -42.5t-113.5 -22.5q-75 0 -121 44zM357 30.5q45 14.5 110 44.5l63 401q-24 15 -67 27t-96 12q-80 0 -127.5 -26t-73.5 -81t-41 -150
q-9 -57 -9 -86q0 -79 38 -117.5t104 -38.5q54 0 99 14.5zM182 834h26l100 -133h-14zM374 721h20l106 -90h-18l-100 75l-136 -75h-18z" />
    <glyph glyph-name="uni1EA8" unicode="&#x1ea8;" horiz-adv-x="660" 
d="M435 732h34l146 -732h-25l-51 254h-333l-136 -254h-25zM535 276l-87 430l-230 -430h317zM564 854q41 12 58.5 32.5t17.5 43.5q0 36 -48 36q-21 0 -39 -6l2 14q18 6 41 6q30 0 45 -13.5t15 -36.5q0 -29 -22.5 -53t-71.5 -37zM462 881h20l106 -90h-18l-100 75l-136 -75h-18
z" />
    <glyph glyph-name="uni1EA9" unicode="&#x1ea9;" horiz-adv-x="559" 
d="M138 38q-46 44 -46 133q0 37 10 97q22 142 83 205.5t184 63.5q51 0 103 -13.5t83 -42.5l-76 -481h-16l2 59q-30 -20 -92.5 -42.5t-113.5 -22.5q-75 0 -121 44zM357 30.5q45 14.5 110 44.5l63 401q-24 15 -67 27t-96 12q-80 0 -127.5 -26t-73.5 -81t-41 -150
q-9 -57 -9 -86q0 -79 38 -117.5t104 -38.5q54 0 99 14.5zM488 694q41 12 58.5 32.5t17.5 43.5q0 36 -48 36q-21 0 -39 -6l2 14q18 6 41 6q30 0 45 -13.5t15 -36.5q0 -29 -22.5 -53t-71.5 -37zM386 721h20l106 -90h-18l-100 75l-136 -75h-18z" />
    <glyph glyph-name="uni1EAA" unicode="&#x1eaa;" horiz-adv-x="660" 
d="M435 732h34l146 -732h-25l-51 254h-333l-136 -254h-25zM535 276l-87 430l-230 -430h317zM351 983.5q26 16.5 57 16.5q21 0 40 -7.5t42 -20.5q22 -12 38.5 -18.5t34.5 -6.5q28 0 48.5 14t24.5 39h14q-5 -31 -29 -50t-62 -19q-19 0 -36.5 6.5t-39.5 19.5q-23 13 -40.5 20
t-38.5 7q-26 0 -46 -13t-24 -40h-14q5 36 31 52.5zM463 881h20l105 -90h-18l-100 75l-136 -75h-18z" />
    <glyph glyph-name="uni1EAB" unicode="&#x1eab;" horiz-adv-x="559" 
d="M138 38q-46 44 -46 133q0 37 10 97q22 142 83 205.5t184 63.5q51 0 103 -13.5t83 -42.5l-76 -481h-16l2 59q-30 -20 -92.5 -42.5t-113.5 -22.5q-75 0 -121 44zM357 30.5q45 14.5 110 44.5l63 401q-24 15 -67 27t-96 12q-80 0 -127.5 -26t-73.5 -81t-41 -150
q-9 -57 -9 -86q0 -79 38 -117.5t104 -38.5q54 0 99 14.5zM275 823.5q26 16.5 57 16.5q21 0 40 -7.5t42 -20.5q22 -12 38.5 -18.5t34.5 -6.5q28 0 48.5 14t24.5 39h14q-5 -31 -29 -50t-62 -19q-19 0 -36.5 6.5t-39.5 19.5q-23 13 -40.5 20t-38.5 7q-26 0 -46 -13t-24 -40h-14
q5 36 31 52.5zM387 721h20l105 -90h-18l-100 75l-136 -75h-18z" />
    <glyph glyph-name="uni1EAC" unicode="&#x1eac;" horiz-adv-x="660" 
d="M435 732h34l146 -732h-25l-51 254h-333l-136 -254h-25zM535 276l-87 430l-230 -430h317zM462 921h20l99 -130h-18l-94 115l-142 -115h-18zM275 -187v2l10 62q1 12 14 12h11q10 0 10 -9v-3l-10 -62q-2 -12 -14 -12h-11q-10 0 -10 10z" />
    <glyph glyph-name="uni1EAD" unicode="&#x1ead;" horiz-adv-x="559" 
d="M138 38q-46 44 -46 133q0 37 10 97q22 142 83 205.5t184 63.5q51 0 103 -13.5t83 -42.5l-76 -481h-16l2 59q-30 -20 -92.5 -42.5t-113.5 -22.5q-75 0 -121 44zM357 30.5q45 14.5 110 44.5l63 401q-24 15 -67 27t-96 12q-80 0 -127.5 -26t-73.5 -81t-41 -150
q-9 -57 -9 -86q0 -79 38 -117.5t104 -38.5q54 0 99 14.5zM406 761h20l99 -130h-18l-94 115l-142 -115h-18zM225 -187v2l10 62q1 12 14 12h11q10 0 10 -9v-3l-10 -62q-2 -12 -14 -12h-11q-10 0 -10 10z" />
    <glyph glyph-name="uni1EAE" unicode="&#x1eae;" horiz-adv-x="660" 
d="M435 732h34l146 -732h-25l-51 254h-333l-136 -254h-25zM535 276l-87 430l-230 -430h317zM587 1024h26l-154 -133h-14zM365.5 812.5q-31.5 19.5 -31.5 63.5q0 7 2 21h14q-1 -6 -1 -17q0 -37 26 -55t68 -18q44 0 82.5 19t46.5 71h14q-9 -58 -48.5 -81t-93.5 -23
q-47 0 -78.5 19.5z" />
    <glyph glyph-name="uni1EAF" unicode="&#x1eaf;" horiz-adv-x="559" 
d="M138 38q-46 44 -46 133q0 37 10 97q22 142 83 205.5t184 63.5q51 0 103 -13.5t83 -42.5l-76 -481h-16l2 59q-30 -20 -92.5 -42.5t-113.5 -22.5q-75 0 -121 44zM357 30.5q45 14.5 110 44.5l63 401q-24 15 -67 27t-96 12q-80 0 -127.5 -26t-73.5 -81t-41 -150
q-9 -57 -9 -86q0 -79 38 -117.5t104 -38.5q54 0 99 14.5zM511 864h26l-154 -133h-14zM289.5 652.5q-31.5 19.5 -31.5 63.5q0 7 2 21h14q-1 -6 -1 -17q0 -37 26 -55t68 -18q44 0 82.5 19t46.5 71h14q-9 -58 -48.5 -81t-93.5 -23q-47 0 -78.5 19.5z" />
    <glyph glyph-name="uni1EB0" unicode="&#x1eb0;" horiz-adv-x="660" 
d="M435 732h34l146 -732h-25l-51 254h-333l-136 -254h-25zM535 276l-87 430l-230 -430h317zM366 1024h26l100 -133h-14zM365.5 812.5q-31.5 19.5 -31.5 63.5q0 7 2 21h14q-1 -6 -1 -17q0 -37 26 -55t68 -18q115 0 129 90h14q-9 -58 -48.5 -81t-93.5 -23q-47 0 -78.5 19.5z
" />
    <glyph glyph-name="uni1EB1" unicode="&#x1eb1;" horiz-adv-x="559" 
d="M138 38q-46 44 -46 133q0 37 10 97q22 142 83 205.5t184 63.5q51 0 103 -13.5t83 -42.5l-76 -481h-16l2 59q-30 -20 -92.5 -42.5t-113.5 -22.5q-75 0 -121 44zM357 30.5q45 14.5 110 44.5l63 401q-24 15 -67 27t-96 12q-80 0 -127.5 -26t-73.5 -81t-41 -150
q-9 -57 -9 -86q0 -79 38 -117.5t104 -38.5q54 0 99 14.5zM290 864h26l100 -133h-14zM289.5 652.5q-31.5 19.5 -31.5 63.5q0 7 2 21h14q-1 -6 -1 -17q0 -37 26 -55t68 -18q115 0 129 90h14q-9 -58 -48.5 -81t-93.5 -23q-47 0 -78.5 19.5z" />
    <glyph glyph-name="uni1EB2" unicode="&#x1eb2;" horiz-adv-x="660" 
d="M435 732h34l146 -732h-25l-51 254h-333l-136 -254h-25zM535 276l-87 430l-230 -430h317zM439 864q82 25 82 89q0 43 -50 43q-20 0 -40 -6l2 14q19 6 43 6q61 0 61 -56q0 -34 -24.5 -62t-76.5 -42zM365.5 812.5q-31.5 19.5 -31.5 63.5q0 7 2 21h14q-1 -6 -1 -17
q0 -37 26 -55t68 -18q46 0 83.5 19t45.5 71h14q-9 -58 -48.5 -81t-93.5 -23q-47 0 -78.5 19.5z" />
    <glyph glyph-name="uni1EB3" unicode="&#x1eb3;" horiz-adv-x="559" 
d="M138 38q-46 44 -46 133q0 37 10 97q22 142 83 205.5t184 63.5q51 0 103 -13.5t83 -42.5l-76 -481h-16l2 59q-30 -20 -92.5 -42.5t-113.5 -22.5q-75 0 -121 44zM357 30.5q45 14.5 110 44.5l63 401q-24 15 -67 27t-96 12q-80 0 -127.5 -26t-73.5 -81t-41 -150
q-9 -57 -9 -86q0 -79 38 -117.5t104 -38.5q54 0 99 14.5zM363 704q82 25 82 89q0 43 -50 43q-20 0 -40 -6l2 14q19 6 43 6q61 0 61 -56q0 -34 -24.5 -62t-76.5 -42zM289.5 652.5q-31.5 19.5 -31.5 63.5q0 7 2 21h14q-1 -6 -1 -17q0 -37 26 -55t68 -18q46 0 83.5 19t45.5 71
h14q-9 -58 -48.5 -81t-93.5 -23q-47 0 -78.5 19.5z" />
    <glyph glyph-name="uni1EB4" unicode="&#x1eb4;" horiz-adv-x="660" 
d="M435 732h34l146 -732h-25l-51 254h-333l-136 -254h-25zM535 276l-87 430l-230 -430h317zM351 983.5q26 16.5 57 16.5q21 0 38 -6.5t44 -20.5q24 -13 39 -19.5t34 -6.5q28 0 48.5 14t24.5 39h14q-5 -31 -29.5 -50t-62.5 -19q-19 0 -35 6.5t-41 19.5q-23 13 -40.5 20
t-37.5 7q-27 0 -47 -13t-24 -40h-14q6 36 32 52.5zM371.5 812.5q-31.5 19.5 -31.5 63.5q0 7 2 21h14q-1 -6 -1 -17q0 -37 26 -55t68 -18q50 0 85 18.5t44 71.5h14q-9 -58 -48.5 -81t-93.5 -23q-47 0 -78.5 19.5z" />
    <glyph glyph-name="uni1EB5" unicode="&#x1eb5;" horiz-adv-x="559" 
d="M138 38q-46 44 -46 133q0 37 10 97q22 142 83 205.5t184 63.5q51 0 103 -13.5t83 -42.5l-76 -481h-16l2 59q-30 -20 -92.5 -42.5t-113.5 -22.5q-75 0 -121 44zM357 30.5q45 14.5 110 44.5l63 401q-24 15 -67 27t-96 12q-80 0 -127.5 -26t-73.5 -81t-41 -150
q-9 -57 -9 -86q0 -79 38 -117.5t104 -38.5q54 0 99 14.5zM275 823.5q26 16.5 57 16.5q21 0 38 -6.5t44 -20.5q24 -13 39 -19.5t34 -6.5q28 0 48.5 14t24.5 39h14q-5 -31 -29.5 -50t-62.5 -19q-19 0 -35 6.5t-41 19.5q-23 13 -40.5 20t-37.5 7q-27 0 -47 -13t-24 -40h-14
q6 36 32 52.5zM295.5 652.5q-31.5 19.5 -31.5 63.5q0 7 2 21h14q-1 -6 -1 -17q0 -37 26 -55t68 -18q50 0 85 18.5t44 71.5h14q-9 -58 -48.5 -81t-93.5 -23q-47 0 -78.5 19.5z" />
    <glyph glyph-name="uni1EB6" unicode="&#x1eb6;" horiz-adv-x="660" 
d="M435 732h34l146 -732h-25l-51 254h-333l-136 -254h-25zM535 276l-87 430l-230 -430h317zM377 816.5q-30 23.5 -30 77.5q0 9 2 33h14q-2 -22 -2 -30q0 -46 25 -68t66 -22q50 0 86.5 28.5t46.5 91.5h14q-12 -74 -52.5 -104t-94.5 -30q-45 0 -75 23.5zM275 -187v2l10 62
q1 12 14 12h11q10 0 10 -9v-3l-10 -62q-2 -12 -14 -12h-11q-10 0 -10 10z" />
    <glyph glyph-name="uni1EB7" unicode="&#x1eb7;" horiz-adv-x="559" 
d="M138 38q-46 44 -46 133q0 37 10 97q22 142 83 205.5t184 63.5q51 0 103 -13.5t83 -42.5l-76 -481h-16l2 59q-30 -20 -92.5 -42.5t-113.5 -22.5q-75 0 -121 44zM357 30.5q45 14.5 110 44.5l63 401q-24 15 -67 27t-96 12q-80 0 -127.5 -26t-73.5 -81t-41 -150
q-9 -57 -9 -86q0 -79 38 -117.5t104 -38.5q54 0 99 14.5zM311 656.5q-30 23.5 -30 77.5q0 9 2 33h14q-2 -22 -2 -30q0 -46 25 -68t66 -22q50 0 86.5 28.5t46.5 91.5h14q-12 -74 -52.5 -104t-94.5 -30q-45 0 -75 23.5zM225 -187v2l10 62q1 12 14 12h11q10 0 10 -9v-3l-10 -62
q-2 -12 -14 -12h-11q-10 0 -10 10z" />
    <glyph glyph-name="uni1EB8" unicode="&#x1eb8;" horiz-adv-x="565" 
d="M97 94q0 15 3 34l76 479q11 68 51 97t95 28l297 -6l-3 -16h-297q-49 0 -80 -25t-40 -83l-36 -227l359 -6l-3 -16l-360 -2l-35 -228q-3 -16 -3 -30q0 -45 25.5 -61t73.5 -16h288l-3 -16l-289 -6q-119 -2 -119 100zM245 -187v2l10 62q1 12 14 12h11q10 0 10 -9v-3l-10 -62
q-2 -12 -14 -12h-11q-10 0 -10 10z" />
    <glyph glyph-name="uni1EB9" unicode="&#x1eb9;" horiz-adv-x="548" 
d="M148 37.5q-53 43.5 -53 133.5q0 52 11 120q17 121 80 185.5t184 64.5q90 0 135 -32t45 -103q0 -94 -74 -132t-189 -38q-51 0 -95 5.5t-68 12.5q-5 -34 -5 -81q0 -83 46 -120t152 -37h154l-3 -16q-102 -6 -153 -6q-114 0 -167 43.5zM459 289.5q67 31.5 67 114.5
q0 62 -38.5 88.5t-119.5 26.5q-116 0 -170 -61.5t-72 -187.5q62 -12 143 -12q123 0 190 31.5zM243 -187v2l10 62q1 12 14 12h11q10 0 10 -9v-3l-10 -62q-2 -12 -14 -12h-11q-10 0 -10 10z" />
    <glyph glyph-name="uni1EBA" unicode="&#x1eba;" horiz-adv-x="565" 
d="M97 94q0 15 3 34l76 479q11 68 51 97t95 28l297 -6l-3 -16h-297q-49 0 -80 -25t-40 -83l-36 -227l359 -6l-3 -16l-360 -2l-35 -228q-3 -16 -3 -30q0 -45 25.5 -61t73.5 -16h288l-3 -16l-289 -6q-119 -2 -119 100zM387 794q82 25 82 89q0 43 -50 43q-20 0 -40 -6l2 14
q19 6 43 6q61 0 61 -56q0 -34 -24.5 -62t-76.5 -42z" />
    <glyph glyph-name="uni1EBB" unicode="&#x1ebb;" horiz-adv-x="548" 
d="M148 37.5q-53 43.5 -53 133.5q0 52 11 120q17 121 80 185.5t184 64.5q90 0 135 -32t45 -103q0 -94 -74 -132t-189 -38q-51 0 -95 5.5t-68 12.5q-5 -34 -5 -81q0 -83 46 -120t152 -37h154l-3 -16q-102 -6 -153 -6q-114 0 -167 43.5zM459 289.5q67 31.5 67 114.5
q0 62 -38.5 88.5t-119.5 26.5q-116 0 -170 -61.5t-72 -187.5q62 -12 143 -12q123 0 190 31.5zM366 624q82 25 82 89q0 43 -50 43q-20 0 -40 -6l2 14q19 6 43 6q61 0 61 -56q0 -34 -24.5 -62t-76.5 -42z" />
    <glyph glyph-name="uni1EBC" unicode="&#x1ebc;" horiz-adv-x="565" 
d="M97 94q0 15 3 34l76 479q11 68 51 97t95 28l297 -6l-3 -16h-297q-49 0 -80 -25t-40 -83l-36 -227l359 -6l-3 -16l-360 -2l-35 -228q-3 -16 -3 -30q0 -45 25.5 -61t73.5 -16h288l-3 -16l-289 -6q-119 -2 -119 100zM321 888.5q29 21.5 66 21.5q21 0 39.5 -9.5t41.5 -28.5
q22 -17 38.5 -26t35.5 -9q32 0 54.5 19t28.5 54h14q-6 -40 -32.5 -64.5t-68.5 -24.5q-19 0 -35.5 9t-39.5 27q-27 19 -43.5 28t-37.5 9q-31 0 -54 -18t-29 -55h-14q7 46 36 67.5z" />
    <glyph glyph-name="uni1EBD" unicode="&#x1ebd;" horiz-adv-x="548" 
d="M148 37.5q-53 43.5 -53 133.5q0 52 11 120q17 121 80 185.5t184 64.5q90 0 135 -32t45 -103q0 -94 -74 -132t-189 -38q-51 0 -95 5.5t-68 12.5q-5 -34 -5 -81q0 -83 46 -120t152 -37h154l-3 -16q-102 -6 -153 -6q-114 0 -167 43.5zM459 289.5q67 31.5 67 114.5
q0 62 -38.5 88.5t-119.5 26.5q-116 0 -170 -61.5t-72 -187.5q62 -12 143 -12q123 0 190 31.5zM273 728.5q29 21.5 66 21.5q21 0 39.5 -9.5t41.5 -28.5q22 -17 38.5 -26t35.5 -9q32 0 54.5 19t28.5 54h14q-6 -40 -32.5 -64.5t-68.5 -24.5q-19 0 -35.5 9t-39.5 27
q-27 19 -43.5 28t-37.5 9q-31 0 -54 -18t-29 -55h-14q7 46 36 67.5z" />
    <glyph glyph-name="uni1EBE" unicode="&#x1ebe;" horiz-adv-x="565" 
d="M97 94q0 15 3 34l76 479q11 68 51 97t95 28l297 -6l-3 -16h-297q-49 0 -80 -25t-40 -83l-36 -227l359 -6l-3 -16l-360 -2l-35 -228q-3 -16 -3 -30q0 -45 25.5 -61t73.5 -16h288l-3 -16l-289 -6q-119 -2 -119 100zM657 994h26l-154 -133h-14zM428 881h20l106 -90h-18
l-100 75l-136 -75h-18z" />
    <glyph glyph-name="uni1EBF" unicode="&#x1ebf;" horiz-adv-x="548" 
d="M148 37.5q-53 43.5 -53 133.5q0 52 11 120q17 121 80 185.5t184 64.5q90 0 135 -32t45 -103q0 -94 -74 -132t-189 -38q-51 0 -95 5.5t-68 12.5q-5 -34 -5 -81q0 -83 46 -120t152 -37h154l-3 -16q-102 -6 -153 -6q-114 0 -167 43.5zM459 289.5q67 31.5 67 114.5
q0 62 -38.5 88.5t-119.5 26.5q-116 0 -170 -61.5t-72 -187.5q62 -12 143 -12q123 0 190 31.5zM609 834h26l-154 -133h-14zM380 721h20l106 -90h-18l-100 75l-136 -75h-18z" />
    <glyph glyph-name="uni1EC0" unicode="&#x1ec0;" horiz-adv-x="565" 
d="M97 94q0 15 3 34l76 479q11 68 51 97t95 28l297 -6l-3 -16h-297q-49 0 -80 -25t-40 -83l-36 -227l359 -6l-3 -16l-360 -2l-35 -228q-3 -16 -3 -30q0 -45 25.5 -61t73.5 -16h288l-3 -16l-289 -6q-119 -2 -119 100zM228 994h26l100 -133h-14zM420 881h20l106 -90h-18
l-100 75l-136 -75h-18z" />
    <glyph glyph-name="uni1EC1" unicode="&#x1ec1;" horiz-adv-x="548" 
d="M148 37.5q-53 43.5 -53 133.5q0 52 11 120q17 121 80 185.5t184 64.5q90 0 135 -32t45 -103q0 -94 -74 -132t-189 -38q-51 0 -95 5.5t-68 12.5q-5 -34 -5 -81q0 -83 46 -120t152 -37h154l-3 -16q-102 -6 -153 -6q-114 0 -167 43.5zM459 289.5q67 31.5 67 114.5
q0 62 -38.5 88.5t-119.5 26.5q-116 0 -170 -61.5t-72 -187.5q62 -12 143 -12q123 0 190 31.5zM180 834h26l100 -133h-14zM372 721h20l106 -90h-18l-100 75l-136 -75h-18z" />
    <glyph glyph-name="uni1EC2" unicode="&#x1ec2;" horiz-adv-x="565" 
d="M97 94q0 15 3 34l76 479q11 68 51 97t95 28l297 -6l-3 -16h-297q-49 0 -80 -25t-40 -83l-36 -227l359 -6l-3 -16l-360 -2l-35 -228q-3 -16 -3 -30q0 -45 25.5 -61t73.5 -16h288l-3 -16l-289 -6q-119 -2 -119 100zM534 854q41 12 58.5 32.5t17.5 43.5q0 36 -48 36
q-21 0 -39 -6l2 14q18 6 41 6q30 0 45 -13.5t15 -36.5q0 -29 -22.5 -53t-71.5 -37zM432 881h20l106 -90h-18l-100 75l-136 -75h-18z" />
    <glyph glyph-name="uni1EC3" unicode="&#x1ec3;" horiz-adv-x="548" 
d="M148 37.5q-53 43.5 -53 133.5q0 52 11 120q17 121 80 185.5t184 64.5q90 0 135 -32t45 -103q0 -94 -74 -132t-189 -38q-51 0 -95 5.5t-68 12.5q-5 -34 -5 -81q0 -83 46 -120t152 -37h154l-3 -16q-102 -6 -153 -6q-114 0 -167 43.5zM459 289.5q67 31.5 67 114.5
q0 62 -38.5 88.5t-119.5 26.5q-116 0 -170 -61.5t-72 -187.5q62 -12 143 -12q123 0 190 31.5zM486 694q41 12 58.5 32.5t17.5 43.5q0 36 -48 36q-21 0 -39 -6l2 14q18 6 41 6q30 0 45 -13.5t15 -36.5q0 -29 -22.5 -53t-71.5 -37zM384 721h20l106 -90h-18l-100 75l-136 -75
h-18z" />
    <glyph glyph-name="uni1EC4" unicode="&#x1ec4;" horiz-adv-x="565" 
d="M97 94q0 15 3 34l76 479q11 68 51 97t95 28l297 -6l-3 -16h-297q-49 0 -80 -25t-40 -83l-36 -227l359 -6l-3 -16l-360 -2l-35 -228q-3 -16 -3 -30q0 -45 25.5 -61t73.5 -16h288l-3 -16l-289 -6q-119 -2 -119 100zM321 983.5q26 16.5 57 16.5q21 0 40 -7.5t42 -20.5
q22 -12 38.5 -18.5t34.5 -6.5q28 0 48.5 14t24.5 39h14q-5 -31 -29 -50t-62 -19q-19 0 -36.5 6.5t-39.5 19.5q-23 13 -40.5 20t-38.5 7q-26 0 -46 -13t-24 -40h-14q5 36 31 52.5zM433 881h20l105 -90h-18l-100 75l-136 -75h-18z" />
    <glyph glyph-name="uni1EC5" unicode="&#x1ec5;" horiz-adv-x="548" 
d="M148 37.5q-53 43.5 -53 133.5q0 52 11 120q17 121 80 185.5t184 64.5q90 0 135 -32t45 -103q0 -94 -74 -132t-189 -38q-51 0 -95 5.5t-68 12.5q-5 -34 -5 -81q0 -83 46 -120t152 -37h154l-3 -16q-102 -6 -153 -6q-114 0 -167 43.5zM459 289.5q67 31.5 67 114.5
q0 62 -38.5 88.5t-119.5 26.5q-116 0 -170 -61.5t-72 -187.5q62 -12 143 -12q123 0 190 31.5zM273 823.5q26 16.5 57 16.5q21 0 40 -7.5t42 -20.5q22 -12 38.5 -18.5t34.5 -6.5q28 0 48.5 14t24.5 39h14q-5 -31 -29 -50t-62 -19q-19 0 -36.5 6.5t-39.5 19.5q-23 13 -40.5 20
t-38.5 7q-26 0 -46 -13t-24 -40h-14q5 36 31 52.5zM385 721h20l105 -90h-18l-100 75l-136 -75h-18z" />
    <glyph glyph-name="uni1EC6" unicode="&#x1ec6;" horiz-adv-x="565" 
d="M97 94q0 15 3 34l76 479q11 68 51 97t95 28l297 -6l-3 -16h-297q-49 0 -80 -25t-40 -83l-36 -227l359 -6l-3 -16l-360 -2l-35 -228q-3 -16 -3 -30q0 -45 25.5 -61t73.5 -16h288l-3 -16l-289 -6q-119 -2 -119 100zM432 921h20l99 -130h-18l-94 115l-142 -115h-18z
M245 -187v2l10 62q1 12 14 12h11q10 0 10 -9v-3l-10 -62q-2 -12 -14 -12h-11q-10 0 -10 10z" />
    <glyph glyph-name="uni1EC7" unicode="&#x1ec7;" horiz-adv-x="548" 
d="M148 37.5q-53 43.5 -53 133.5q0 52 11 120q17 121 80 185.5t184 64.5q90 0 135 -32t45 -103q0 -94 -74 -132t-189 -38q-51 0 -95 5.5t-68 12.5q-5 -34 -5 -81q0 -83 46 -120t152 -37h154l-3 -16q-102 -6 -153 -6q-114 0 -167 43.5zM459 289.5q67 31.5 67 114.5
q0 62 -38.5 88.5t-119.5 26.5q-116 0 -170 -61.5t-72 -187.5q62 -12 143 -12q123 0 190 31.5zM404 761h20l99 -130h-18l-94 115l-142 -115h-18zM243 -187v2l10 62q1 12 14 12h11q10 0 10 -9v-3l-10 -62q-2 -12 -14 -12h-11q-10 0 -10 10z" />
    <glyph glyph-name="uni1EC8" unicode="&#x1ec8;" horiz-adv-x="184" 
d="M196 732h24l-116 -732h-24zM178 794q82 25 82 89q0 43 -50 43q-20 0 -40 -6l2 14q19 6 43 6q61 0 61 -56q0 -34 -24.5 -62t-76.5 -42z" />
    <glyph glyph-name="uni1EC9" unicode="&#x1ec9;" horiz-adv-x="184" 
d="M164 531h24l-84 -531h-24zM180 624q82 25 82 89q0 43 -50 43q-20 0 -40 -6l2 14q19 6 43 6q61 0 61 -56q0 -34 -24.5 -62t-76.5 -42z" />
    <glyph glyph-name="uni1ECA" unicode="&#x1eca;" horiz-adv-x="184" 
d="M196 732h24l-116 -732h-24zM36 -187v2l10 62q1 12 14 12h11q10 0 10 -9v-3l-10 -62q-2 -12 -14 -12h-11q-10 0 -10 10z" />
    <glyph glyph-name="uni1ECB" unicode="&#x1ecb;" horiz-adv-x="184" 
d="M180 643.5q-3 3.5 -2 8.5l10 62q2 12 14 12h11q11 0 9 -12l-10 -62q-1 -12 -13 -12h-11q-5 0 -8 3.5zM164 531h24l-84 -531h-24zM44 -187v2l10 62q1 12 14 12h11q10 0 10 -9v-3l-10 -62q-2 -12 -14 -12h-11q-10 0 -10 10z" />
    <glyph glyph-name="uni1ECC" unicode="&#x1ecc;" horiz-adv-x="678" 
d="M211 10.5q-48 16.5 -73.5 61t-25.5 127.5q0 70 16 169q24 150 64.5 230t103 110t161.5 30q74 0 122.5 -19t74.5 -65.5t26 -129.5q0 -71 -16 -170q-23 -148 -65 -226t-104 -106t-159 -28q-77 0 -125 16.5zM489 41.5q55 25.5 91 99.5t60 220q15 90 15 164q0 78 -23.5 119.5
t-67 56.5t-112.5 15q-90 0 -146 -27.5t-93.5 -104t-60.5 -223.5q-16 -106 -16 -162q0 -75 22 -114.5t65.5 -54t118.5 -14.5q92 0 147 25.5zM287 -187v2l10 62q1 12 14 12h11q10 0 10 -9v-3l-10 -62q-2 -12 -14 -12h-11q-10 0 -10 10z" />
    <glyph glyph-name="uni1ECD" unicode="&#x1ecd;" 
d="M143 34.5q-49 40.5 -49 135.5q0 39 8 95q17 106 48 165t82 83t133 24q97 0 141 -45t44 -136q0 -40 -10 -105q-16 -98 -46 -153.5t-81.5 -79.5t-133.5 -24q-87 0 -136 40.5zM399 35q44 19 72.5 71t44.5 152q9 57 9 98q0 86 -37.5 122.5t-127.5 36.5q-74 0 -118 -21
t-71.5 -76t-44.5 -160q-8 -54 -8 -88q0 -89 42.5 -121.5t123.5 -32.5q71 0 115 19zM219 -187v2l10 62q1 12 14 12h11q10 0 10 -9v-3l-10 -62q-2 -12 -14 -12h-11q-10 0 -10 10z" />
    <glyph glyph-name="uni1ECE" unicode="&#x1ece;" horiz-adv-x="678" 
d="M211 10.5q-48 16.5 -73.5 61t-25.5 127.5q0 70 16 169q24 150 64.5 230t103 110t161.5 30q74 0 122.5 -19t74.5 -65.5t26 -129.5q0 -71 -16 -170q-23 -148 -65 -226t-104 -106t-159 -28q-77 0 -125 16.5zM489 41.5q55 25.5 91 99.5t60 220q15 90 15 164q0 78 -23.5 119.5
t-67 56.5t-112.5 15q-90 0 -146 -27.5t-93.5 -104t-60.5 -223.5q-16 -106 -16 -162q0 -75 22 -114.5t65.5 -54t118.5 -14.5q92 0 147 25.5zM429 794q82 25 82 89q0 43 -50 43q-20 0 -40 -6l2 14q19 6 43 6q61 0 61 -56q0 -34 -24.5 -62t-76.5 -42z" />
    <glyph glyph-name="uni1ECF" unicode="&#x1ecf;" 
d="M143 34.5q-49 40.5 -49 135.5q0 39 8 95q17 106 48 165t82 83t133 24q97 0 141 -45t44 -136q0 -40 -10 -105q-16 -98 -46 -153.5t-81.5 -79.5t-133.5 -24q-87 0 -136 40.5zM399 35q44 19 72.5 71t44.5 152q9 57 9 98q0 86 -37.5 122.5t-127.5 36.5q-74 0 -118 -21
t-71.5 -76t-44.5 -160q-8 -54 -8 -88q0 -89 42.5 -121.5t123.5 -32.5q71 0 115 19zM362 624q82 25 82 89q0 43 -50 43q-20 0 -40 -6l2 14q19 6 43 6q61 0 61 -56q0 -34 -24.5 -62t-76.5 -42z" />
    <glyph glyph-name="uni1ED0" unicode="&#x1ed0;" horiz-adv-x="678" 
d="M211 10.5q-48 16.5 -73.5 61t-25.5 127.5q0 70 16 169q24 150 64.5 230t103 110t161.5 30q74 0 122.5 -19t74.5 -65.5t26 -129.5q0 -71 -16 -170q-23 -148 -65 -226t-104 -106t-159 -28q-77 0 -125 16.5zM489 41.5q55 25.5 91 99.5t60 220q15 90 15 164q0 78 -23.5 119.5
t-67 56.5t-112.5 15q-90 0 -146 -27.5t-93.5 -104t-60.5 -223.5q-16 -106 -16 -162q0 -75 22 -114.5t65.5 -54t118.5 -14.5q92 0 147 25.5zM699 994h26l-154 -133h-14zM470 881h20l106 -90h-18l-100 75l-136 -75h-18z" />
    <glyph glyph-name="uni1ED1" unicode="&#x1ed1;" 
d="M143 34.5q-49 40.5 -49 135.5q0 39 8 95q17 106 48 165t82 83t133 24q97 0 141 -45t44 -136q0 -40 -10 -105q-16 -98 -46 -153.5t-81.5 -79.5t-133.5 -24q-87 0 -136 40.5zM399 35q44 19 72.5 71t44.5 152q9 57 9 98q0 86 -37.5 122.5t-127.5 36.5q-74 0 -118 -21
t-71.5 -76t-44.5 -160q-8 -54 -8 -88q0 -89 42.5 -121.5t123.5 -32.5q71 0 115 19zM605 834h26l-154 -133h-14zM376 721h20l106 -90h-18l-100 75l-136 -75h-18z" />
    <glyph glyph-name="uni1ED2" unicode="&#x1ed2;" horiz-adv-x="678" 
d="M211 10.5q-48 16.5 -73.5 61t-25.5 127.5q0 70 16 169q24 150 64.5 230t103 110t161.5 30q74 0 122.5 -19t74.5 -65.5t26 -129.5q0 -71 -16 -170q-23 -148 -65 -226t-104 -106t-159 -28q-77 0 -125 16.5zM489 41.5q55 25.5 91 99.5t60 220q15 90 15 164q0 78 -23.5 119.5
t-67 56.5t-112.5 15q-90 0 -146 -27.5t-93.5 -104t-60.5 -223.5q-16 -106 -16 -162q0 -75 22 -114.5t65.5 -54t118.5 -14.5q92 0 147 25.5zM270 994h26l100 -133h-14zM462 881h20l106 -90h-18l-100 75l-136 -75h-18z" />
    <glyph glyph-name="uni1ED3" unicode="&#x1ed3;" 
d="M143 34.5q-49 40.5 -49 135.5q0 39 8 95q17 106 48 165t82 83t133 24q97 0 141 -45t44 -136q0 -40 -10 -105q-16 -98 -46 -153.5t-81.5 -79.5t-133.5 -24q-87 0 -136 40.5zM399 35q44 19 72.5 71t44.5 152q9 57 9 98q0 86 -37.5 122.5t-127.5 36.5q-74 0 -118 -21
t-71.5 -76t-44.5 -160q-8 -54 -8 -88q0 -89 42.5 -121.5t123.5 -32.5q71 0 115 19zM176 834h26l100 -133h-14zM368 721h20l106 -90h-18l-100 75l-136 -75h-18z" />
    <glyph glyph-name="uni1ED4" unicode="&#x1ed4;" horiz-adv-x="678" 
d="M211 10.5q-48 16.5 -73.5 61t-25.5 127.5q0 70 16 169q24 150 64.5 230t103 110t161.5 30q74 0 122.5 -19t74.5 -65.5t26 -129.5q0 -71 -16 -170q-23 -148 -65 -226t-104 -106t-159 -28q-77 0 -125 16.5zM489 41.5q55 25.5 91 99.5t60 220q15 90 15 164q0 78 -23.5 119.5
t-67 56.5t-112.5 15q-90 0 -146 -27.5t-93.5 -104t-60.5 -223.5q-16 -106 -16 -162q0 -75 22 -114.5t65.5 -54t118.5 -14.5q92 0 147 25.5zM576 854q41 12 58.5 32.5t17.5 43.5q0 36 -48 36q-21 0 -39 -6l2 14q18 6 41 6q30 0 45 -13.5t15 -36.5q0 -29 -22.5 -53t-71.5 -37z
M474 881h20l106 -90h-18l-100 75l-136 -75h-18z" />
    <glyph glyph-name="uni1ED5" unicode="&#x1ed5;" 
d="M143 34.5q-49 40.5 -49 135.5q0 39 8 95q17 106 48 165t82 83t133 24q97 0 141 -45t44 -136q0 -40 -10 -105q-16 -98 -46 -153.5t-81.5 -79.5t-133.5 -24q-87 0 -136 40.5zM399 35q44 19 72.5 71t44.5 152q9 57 9 98q0 86 -37.5 122.5t-127.5 36.5q-74 0 -118 -21
t-71.5 -76t-44.5 -160q-8 -54 -8 -88q0 -89 42.5 -121.5t123.5 -32.5q71 0 115 19zM482 694q41 12 58.5 32.5t17.5 43.5q0 36 -48 36q-21 0 -39 -6l2 14q18 6 41 6q30 0 45 -13.5t15 -36.5q0 -29 -22.5 -53t-71.5 -37zM380 721h20l106 -90h-18l-100 75l-136 -75h-18z" />
    <glyph glyph-name="uni1ED6" unicode="&#x1ed6;" horiz-adv-x="678" 
d="M211 10.5q-48 16.5 -73.5 61t-25.5 127.5q0 70 16 169q24 150 64.5 230t103 110t161.5 30q74 0 122.5 -19t74.5 -65.5t26 -129.5q0 -71 -16 -170q-23 -148 -65 -226t-104 -106t-159 -28q-77 0 -125 16.5zM489 41.5q55 25.5 91 99.5t60 220q15 90 15 164q0 78 -23.5 119.5
t-67 56.5t-112.5 15q-90 0 -146 -27.5t-93.5 -104t-60.5 -223.5q-16 -106 -16 -162q0 -75 22 -114.5t65.5 -54t118.5 -14.5q92 0 147 25.5zM363 983.5q26 16.5 57 16.5q21 0 40 -7.5t42 -20.5q22 -12 38.5 -18.5t34.5 -6.5q28 0 48.5 14t24.5 39h14q-5 -31 -29 -50t-62 -19
q-19 0 -36.5 6.5t-39.5 19.5q-23 13 -40.5 20t-38.5 7q-26 0 -46 -13t-24 -40h-14q5 36 31 52.5zM475 881h20l105 -90h-18l-100 75l-136 -75h-18z" />
    <glyph glyph-name="uni1ED7" unicode="&#x1ed7;" 
d="M143 34.5q-49 40.5 -49 135.5q0 39 8 95q17 106 48 165t82 83t133 24q97 0 141 -45t44 -136q0 -40 -10 -105q-16 -98 -46 -153.5t-81.5 -79.5t-133.5 -24q-87 0 -136 40.5zM399 35q44 19 72.5 71t44.5 152q9 57 9 98q0 86 -37.5 122.5t-127.5 36.5q-74 0 -118 -21
t-71.5 -76t-44.5 -160q-8 -54 -8 -88q0 -89 42.5 -121.5t123.5 -32.5q71 0 115 19zM269 823.5q26 16.5 57 16.5q21 0 40 -7.5t42 -20.5q22 -12 38.5 -18.5t34.5 -6.5q28 0 48.5 14t24.5 39h14q-5 -31 -29 -50t-62 -19q-19 0 -36.5 6.5t-39.5 19.5q-23 13 -40.5 20t-38.5 7
q-26 0 -46 -13t-24 -40h-14q5 36 31 52.5zM381 721h20l105 -90h-18l-100 75l-136 -75h-18z" />
    <glyph glyph-name="uni1ED8" unicode="&#x1ed8;" horiz-adv-x="678" 
d="M211 10.5q-48 16.5 -73.5 61t-25.5 127.5q0 70 16 169q24 150 64.5 230t103 110t161.5 30q74 0 122.5 -19t74.5 -65.5t26 -129.5q0 -71 -16 -170q-23 -148 -65 -226t-104 -106t-159 -28q-77 0 -125 16.5zM489 41.5q55 25.5 91 99.5t60 220q15 90 15 164q0 78 -23.5 119.5
t-67 56.5t-112.5 15q-90 0 -146 -27.5t-93.5 -104t-60.5 -223.5q-16 -106 -16 -162q0 -75 22 -114.5t65.5 -54t118.5 -14.5q92 0 147 25.5zM474 921h20l99 -130h-18l-94 115l-142 -115h-18zM287 -187v2l10 62q1 12 14 12h11q10 0 10 -9v-3l-10 -62q-2 -12 -14 -12h-11
q-10 0 -10 10z" />
    <glyph glyph-name="uni1ED9" unicode="&#x1ed9;" 
d="M143 34.5q-49 40.5 -49 135.5q0 39 8 95q17 106 48 165t82 83t133 24q97 0 141 -45t44 -136q0 -40 -10 -105q-16 -98 -46 -153.5t-81.5 -79.5t-133.5 -24q-87 0 -136 40.5zM399 35q44 19 72.5 71t44.5 152q9 57 9 98q0 86 -37.5 122.5t-127.5 36.5q-74 0 -118 -21
t-71.5 -76t-44.5 -160q-8 -54 -8 -88q0 -89 42.5 -121.5t123.5 -32.5q71 0 115 19zM400 761h20l99 -130h-18l-94 115l-142 -115h-18zM219 -187v2l10 62q1 12 14 12h11q10 0 10 -9v-3l-10 -62q-2 -12 -14 -12h-11q-10 0 -10 10z" />
    <glyph glyph-name="uni1EDA" unicode="&#x1eda;" horiz-adv-x="678" 
d="M699 745q-35 -29 -80 -29h-32q46 -21 69.5 -67.5t23.5 -124.5q0 -71 -16 -170q-23 -148 -65 -226t-104 -106t-159 -28q-77 0 -125 16.5t-73.5 61t-25.5 127.5q0 70 16 169q24 150 64.5 230t103 110t161.5 30q42 0 77 -6h88q83 0 102 116h22q-12 -74 -47 -103z
M631.5 644.5q-23.5 41.5 -67 56.5t-112.5 15q-90 0 -146 -27.5t-93.5 -104t-60.5 -223.5q-16 -106 -16 -162q0 -75 22 -114.5t65.5 -54t118.5 -14.5q92 0 147 25.5t91 99.5t60 220q15 90 15 164q0 78 -23.5 119.5zM586 924h26l-154 -133h-14z" />
    <glyph glyph-name="uni1EDB" unicode="&#x1edb;" horiz-adv-x="578" 
d="M596.5 544q-34.5 -29 -79.5 -29h-43q39 -21 57.5 -60.5t18.5 -98.5q0 -40 -10 -105q-16 -98 -46 -153.5t-81.5 -79.5t-133.5 -24q-87 0 -136 40.5t-49 135.5q0 39 8 95q17 106 48 165t82 83t133 24q36 0 63 -6h91q85 0 102 116h22q-12 -74 -46.5 -103zM487.5 478.5
q-37.5 36.5 -127.5 36.5q-74 0 -118 -21t-71.5 -76t-44.5 -160q-8 -54 -8 -88q0 -89 42.5 -121.5t123.5 -32.5q71 0 115 19t72.5 71t44.5 152q9 57 9 98q0 86 -37.5 122.5zM506 764h26l-154 -133h-14z" />
    <glyph glyph-name="uni1EDC" unicode="&#x1edc;" horiz-adv-x="678" 
d="M699 745q-35 -29 -80 -29h-32q46 -21 69.5 -67.5t23.5 -124.5q0 -71 -16 -170q-23 -148 -65 -226t-104 -106t-159 -28q-77 0 -125 16.5t-73.5 61t-25.5 127.5q0 70 16 169q24 150 64.5 230t103 110t161.5 30q42 0 77 -6h88q83 0 102 116h22q-12 -74 -47 -103z
M631.5 644.5q-23.5 41.5 -67 56.5t-112.5 15q-90 0 -146 -27.5t-93.5 -104t-60.5 -223.5q-16 -106 -16 -162q0 -75 22 -114.5t65.5 -54t118.5 -14.5q92 0 147 25.5t91 99.5t60 220q15 90 15 164q0 78 -23.5 119.5zM365 924h26l100 -133h-14z" />
    <glyph glyph-name="uni1EDD" unicode="&#x1edd;" horiz-adv-x="578" 
d="M596.5 544q-34.5 -29 -79.5 -29h-43q39 -21 57.5 -60.5t18.5 -98.5q0 -40 -10 -105q-16 -98 -46 -153.5t-81.5 -79.5t-133.5 -24q-87 0 -136 40.5t-49 135.5q0 39 8 95q17 106 48 165t82 83t133 24q36 0 63 -6h91q85 0 102 116h22q-12 -74 -46.5 -103zM487.5 478.5
q-37.5 36.5 -127.5 36.5q-74 0 -118 -21t-71.5 -76t-44.5 -160q-8 -54 -8 -88q0 -89 42.5 -121.5t123.5 -32.5q71 0 115 19t72.5 71t44.5 152q9 57 9 98q0 86 -37.5 122.5zM285 764h26l100 -133h-14z" />
    <glyph glyph-name="uni1EDE" unicode="&#x1ede;" horiz-adv-x="678" 
d="M699 745q-35 -29 -80 -29h-32q46 -21 69.5 -67.5t23.5 -124.5q0 -71 -16 -170q-23 -148 -65 -226t-104 -106t-159 -28q-77 0 -125 16.5t-73.5 61t-25.5 127.5q0 70 16 169q24 150 64.5 230t103 110t161.5 30q42 0 77 -6h88q83 0 102 116h22q-12 -74 -47 -103z
M631.5 644.5q-23.5 41.5 -67 56.5t-112.5 15q-90 0 -146 -27.5t-93.5 -104t-60.5 -223.5q-16 -106 -16 -162q0 -75 22 -114.5t65.5 -54t118.5 -14.5q92 0 147 25.5t91 99.5t60 220q15 90 15 164q0 78 -23.5 119.5zM426 794q82 25 82 89q0 43 -50 43q-20 0 -40 -6l2 14
q19 6 43 6q61 0 61 -56q0 -34 -24.5 -62t-76.5 -42z" />
    <glyph glyph-name="uni1EDF" unicode="&#x1edf;" horiz-adv-x="578" 
d="M596.5 544q-34.5 -29 -79.5 -29h-43q39 -21 57.5 -60.5t18.5 -98.5q0 -40 -10 -105q-16 -98 -46 -153.5t-81.5 -79.5t-133.5 -24q-87 0 -136 40.5t-49 135.5q0 39 8 95q17 106 48 165t82 83t133 24q36 0 63 -6h91q85 0 102 116h22q-12 -74 -46.5 -103zM487.5 478.5
q-37.5 36.5 -127.5 36.5q-74 0 -118 -21t-71.5 -76t-44.5 -160q-8 -54 -8 -88q0 -89 42.5 -121.5t123.5 -32.5q71 0 115 19t72.5 71t44.5 152q9 57 9 98q0 86 -37.5 122.5zM363 624q82 25 82 89q0 43 -50 43q-20 0 -40 -6l2 14q19 6 43 6q61 0 61 -56q0 -34 -24.5 -62
t-76.5 -42z" />
    <glyph glyph-name="uni1EE0" unicode="&#x1ee0;" horiz-adv-x="678" 
d="M699 745q-35 -29 -80 -29h-32q46 -21 69.5 -67.5t23.5 -124.5q0 -71 -16 -170q-23 -148 -65 -226t-104 -106t-159 -28q-77 0 -125 16.5t-73.5 61t-25.5 127.5q0 70 16 169q24 150 64.5 230t103 110t161.5 30q42 0 77 -6h88q83 0 102 116h22q-12 -74 -47 -103z
M631.5 644.5q-23.5 41.5 -67 56.5t-112.5 15q-90 0 -146 -27.5t-93.5 -104t-60.5 -223.5q-16 -106 -16 -162q0 -75 22 -114.5t65.5 -54t118.5 -14.5q92 0 147 25.5t91 99.5t60 220q15 90 15 164q0 78 -23.5 119.5zM360 888.5q29 21.5 66 21.5q21 0 39.5 -9.5t41.5 -28.5
q22 -17 38.5 -26t35.5 -9q32 0 54.5 19t28.5 54h14q-6 -40 -32.5 -64.5t-68.5 -24.5q-19 0 -35.5 9t-39.5 27q-27 19 -43.5 28t-37.5 9q-31 0 -54 -18t-29 -55h-14q7 46 36 67.5z" />
    </font>
</defs>
</svg>
